<?xml version="1.0" encoding="utf-8"?>
<!-- Generator: Adobe Illustrator 16.2.1, SVG Export Plug-In . SVG Version: 6.00 Build 0)  -->
<!DOCTYPE svg PUBLIC "-//W3C//DTD SVG 1.1//EN" "http://www.w3.org/Graphics/SVG/1.1/DTD/svg11.dtd">
<svg version="1.1" id="Layer_1" xmlns="http://www.w3.org/2000/svg" xmlns:xlink="http://www.w3.org/1999/xlink" x="0px" y="0px"
	 width="235px" height="109px" viewBox="0 0 235 109" enable-background="new 0 0 235 109" xml:space="preserve">
<g>
	<g id="waYJAW_1_">
		<g>
			<path fill="#FFFFFF" d="M79.794,80.499c0.063,0.468,0.127,0.935,0.19,1.403"/>
			<path fill="#FFFFFF" d="M76.765,83.84c0.543-0.701,0.072-2.189,0.072-3.312"/>
			<path fill-rule="evenodd" clip-rule="evenodd" d="M76.765,83.84c-6.146,7.927-12.571,15.525-22.252,19.521
				C50.856,104.87,47.496,107.1,44,109c-0.667,0-1.333,0-2,0c2.791-5.416,5.535-10.857,8.39-16.238
				c1.479-2.789,3.225-5.434,4.696-8.225c0.495-0.939,0.513-2.129,0.84-3.617c-7.274,1.248-14.038,2.757-20.885,3.48
				c-6.096,0.645-12.295,0.689-18.422,0.408c-1.693-0.078-4.104-1.908-4.807-3.532C3.643,62.391-1.439,42.873,1.048,22.04
				c0.287-2.405,1.143-4.742,1.635-6.71c25.746-3.202,50.741-6.982,75.873-9.249c25.005-2.255,50.146-4.042,75.23-4.096
				c25.139-0.054,50.333-2.139,75.465-0.864c1.418,11.642,2.637,21.863,3.921,32.076C233.71,37.473,234.387,41.733,235,46
				c0,2.667,0,5.333,0,8c-0.586,1.9-1.378,3.764-1.722,5.706c-1.223,6.914-1.556,7.849-8.642,8.866
				c-14.476,2.077-29.024,3.648-43.55,5.371c-9.744,1.156-19.486,2.354-29.254,3.281c-11.258,1.068-22.536,1.928-33.815,2.756
				c-10.949,0.803-21.907,1.476-32.866,2.141c-1.711,0.104-6.414,0.521-8.136,0.439c-0.063-0.469-0.115-1.565-0.179-2.033
				c1.788-0.427,6.513-1.113,8.324-1.275c20.362-1.807,40.75-3.35,61.091-5.352c14.724-1.448,29.396-3.438,44.08-5.264
				c11.544-1.438,23.074-2.979,34.604-4.519c1.437-0.192,2.835-0.663,4.503-1.065c2.058-19.513-0.203-38.36-4.525-57.872
				c-36.376-1.642-72.971-1.089-109.386,1.313C79.254,8.888,43.163,14.036,6.24,18.059c-3.759,22.651,1.446,43.09,8.639,63.785
				c7.765-0.4,15.034-0.577,22.264-1.205c6.983-0.606,13.893-3.164,21.992-1.143c-3.018,7.52-5.632,14.035-8.458,21.078
				c10.648-4.428,17.695-12.594,25.078-20.327c0.361,0.094,0.721,0.188,1.082,0.28C76.837,81.65,77.309,83.139,76.765,83.84"/>
		</g>
	</g>
	<path fill="#FFFFFF" d="M76.837,80.527c-0.36-0.093-0.721-0.187-1.082-0.28c-7.383,7.733-14.43,15.899-25.078,20.327
		c2.826-7.043,5.44-13.559,8.458-21.078c-8.099-2.021-15.009,0.536-21.992,1.143c-7.23,0.628-14.499,0.805-22.264,1.205
		C7.687,61.148,2.481,40.71,6.24,18.059c36.923-4.022,73.014-9.17,109.287-11.564c36.416-2.403,73.01-2.955,109.386-1.313
		c4.322,19.512,6.583,38.359,4.525,57.872c-1.668,0.402-3.066,0.873-4.503,1.065c-11.529,1.54-23.06,3.081-34.604,4.519
		c-14.685,1.826-29.356,3.815-44.08,5.264c-20.342,2.002-40.729,3.545-61.091,5.352C83.35,79.414,78.625,80.101,76.837,80.527"/>
</g>
</svg>
