<?xml version="1.0" encoding="utf-8"?>
<!-- Generator: Adobe Illustrator 18.1.1, SVG Export Plug-In . SVG Version: 6.00 Build 0)  -->
<!DOCTYPE svg PUBLIC "-//W3C//DTD SVG 1.1//EN" "http://www.w3.org/Graphics/SVG/1.1/DTD/svg11.dtd">
<svg version="1.1" id="Layer_1" xmlns="http://www.w3.org/2000/svg" xmlns:xlink="http://www.w3.org/1999/xlink" x="0px" y="0px"
	 viewBox="0 0 490.1 103.3" enable-background="new 0 0 490.1 103.3" xml:space="preserve">
<path fill="#231F20" d="M489.3,38.2H312.6v0H286c-6.8,0-15-1.6-17.6-4.6c3.8-4.3,6.9-10.9,6.9-18.2V4.8c0-3.4-5-4.8-9.6-4.8
	c-4.5,0.1-9.5,1.6-9.5,4.8l0,3.7l0,7.5c0,6.9,3,13.1,5.7,17.4c-1.8,1.7-6.7,5.3-12.5,5.3h-14.8c-5.7,0-6.9-4.5-7-5.8
	c5.2,0,9.2,0,11.6,0c5.7,0,7.5-4.5,7.5-8.3c0-4.5-2.9-7.8-6.4-7.8H231c-3.4,0-6,1.5-7.2,4.7c-1,2.5-1.4,4.4-1.5,6.9h-13.8l5.2-11.5
	l-5.7,0l-7.6,18c-1.2,2.9-2.7,3.7-4.5,3.7c-2.3,0-3.4-1.6-4.2-3.6l-7-18.2h-5.8l6.7,17.7c0.5,1.5,0.6,4.1-2.6,4.1l-3.7,0h-8.4
	c-1.9,0-2.8-1.7-2.8-3.5V16.8l-5.6,0.1l0,2.1l-8.5-2.3c-2.7-0.7-6.7-0.5-8.3,0.9c-2.1,2-3.5,4.3-4,8.5c-0.4,3.4,0,7.4,1.7,11
	c-2.8,1.1-9.8,3.1-13.2,0.3c-2.3-1.9-2.6-6.4-2.5-10.7c0.1-3.6,0.9-8.5,0.8-9.9c-4.3,0-13.5-0.1-19.2-0.1v-2.3H104v17.8
	c0,4.2-2,6.3-6.3,6.3l-10.6,0c-4,0-7.9-3-7.9-7.6v-9.4h13.6v-4.9H79.3V3l-5.6,1.4v12.4h-7.6v4.9h7.6V30c0,4.3-1.8,8.2-12.5,8.2
	l-60.5,0c-0.4,0-0.7,0.3-0.7,0.7v3.5c0,0.4,0.3,0.7,0.7,0.7l62.3,0c7.7,0,11.5-2.6,13.2-5c1.7,2.5,4.1,5,9.4,5l14.2,0
	c5.8,0,9.3-4.8,9.3-9l0-9.9l0-2.6l13.3,0.3l-0.2,1.6c-0.1,1.4-0.3,3.2-0.2,5.3c0.1,4,0.9,8.8,3.8,11.4c3.2,2.8,7.4,3.3,11.2,3
	c1.9-0.2,4.3-0.6,5.8-1c1.4-0.4,2.6-0.8,3.5-1.1c1.3,0.9,2.8,1.6,4.6,1.8c4.3,0.6,9.9-2.1,12.5-3.9c0.5,1.1,2.3,4.1,6.9,4.1h12.1
	c3.5,0,5.5-1.3,6.4-3.2c0.9,1.5,3.4,3.2,6.4,3.2l1.6,0c2.9,0,6.2-1.7,7.4-4.9l2.7-5.4h15.4c0.5,4.6,3.7,10.3,12.1,10.3
	c4.4,0,10.2-0.1,15.9-0.1c5.5,0,12-3.7,14.6-5.9c4.3,4.2,12.7,6.1,21.3,6.1l203.1,0c0.4,0,0.7-0.3,0.7-0.7v-3.5
	C490.1,38.5,489.8,38.2,489.3,38.2 M162.4,34.5c-2.9,1.9-7.5,4.1-11.4,3.4c-2.4-0.4-4.5-4.8-4.4-8.8c0.1-4.3,0.9-6.4,2.7-7.5
	c0.9-0.5,2.4-0.6,3.6-0.4c4.2,0.7,6.4,1.6,9.5,2.6L162.4,34.5z M230.7,21.5h8.6c1.3,0,2.2,1.6,2.2,3.4c0,1.8-0.9,3.4-2.8,3.4h-11.3
	C227.3,24.2,229,21.5,230.7,21.5z M261,14.9c0-3.4,0-4.4,0-5.1c0-0.6,0.1-0.9,0.1-2.7c0-1.4,2.1-2.3,4.6-2.3c2.5,0,4.6,0.9,4.6,2.3
	v6.3c0,7.6-2.6,13.6-5,16.4C262.6,25.7,261,20.3,261,14.9z"/>
<path fill="#231F20" d="M489.3,98.3l-488.6,0C0.3,98.3,0,98.6,0,99v3.5c0,0.4,0.3,0.7,0.7,0.7l488.6,0c0.4,0,0.7-0.3,0.7-0.7v-3.5
	C490.1,98.7,489.8,98.3,489.3,98.3"/>
<path fill="#231F20" d="M245.3,52.6c-0.3,0-0.7,0.1-0.7,0.8v4.6c0,0.4,0.1,0.7,0.8,0.7h9.1v24.5h-8.8c-0.2,0-0.6,0-0.6,0.7v4.4
	c0,0.5,0.2,0.6,0.6,0.6h46.7c0.4,0,0.7-0.1,0.7-0.8V72.6c0-0.2-0.2-0.6-0.5-0.6l-4.9,0c-0.4,0-0.5,0.4-0.5,0.7v10.4h-26.2V58.6h9.1
	c0.8,0,0.9-0.2,0.9-0.7v-4.7c0-0.6-0.5-0.6-0.6-0.6H245.3"/>
<path fill="#231F20" d="M186.4,52.8c0,0.6,0,13.3,0,13.3c0,0.9,0.3,0.9,0.6,0.9h4.1c0.2,0,0.7,0,0.7-1v-7.5h16.7v24.2h-9.8
	c-0.4,0-0.8,0.3-0.8,0.7v4.3c0,0.7,0.2,1,0.8,1h25.9c0.6,0,1-0.4,1-0.9v-4.3c0-0.2-0.2-0.7-0.9-0.7h-9.5V58.6h16.3v7.5
	c0,0.4,0.1,0.9,0.8,0.9h4c0.4,0,0.7-0.5,0.7-1c0,0,0-12.7,0-13.2C236.4,52.8,186.9,52.8,186.4,52.8"/>
<path fill="#231F20" d="M403.9,52.3c-0.5,0-0.8,0.2-0.8,1V57c0,0.6,0.2,0.8,0.8,0.8H414v22c0,0-29.2-27.5-29.4-27.6
	c-0.2,0-16.7,0-16.7,0c-0.7,0-1,0.3-1,0.9l0,3.9c0,0.5,0.1,0.8,1,0.8h8.8v24.7h-9c-0.8,0-0.9,0.3-0.9,0.8v4.2c0,0.5,0.3,0.8,0.9,0.8
	H392c0.6,0,0.9-0.3,0.9-1v-4.1c0-0.6-0.5-0.7-1-0.7h-9.2v-23l31,28.7h4.8c0.7,0,0.8-0.3,0.8-0.8V57.9h9.2c0.8,0,1-0.4,1-0.8v-4.2
	c0-0.5-0.4-0.6-0.7-0.6H403.9"/>
<path fill-rule="evenodd" clip-rule="evenodd" fill="#231F20" d="M61,70.8c0,14,7.5,19.2,27.8,19.2c19.2,0,27.7-5.9,27.7-19.2
	c0-13.6-8-19.2-27.7-19.2C68.3,51.6,61,56.7,61,70.8 M67.4,70.6c0-9.3,6.2-13.1,21.4-13.1c14.9,0,20.9,3.8,20.9,13.1
	c0,9.2-6.5,13.4-21,13.4C73.4,84,67.4,80.2,67.4,70.6z"/>
<path fill-rule="evenodd" clip-rule="evenodd" fill="#231F20" d="M123,53.1c-0.4,0-0.6,0.4-0.6,0.7v4.4c0,0.3,0.1,0.8,0.6,0.8h8.6
	v24h-8.4c-0.4,0-0.7,0.2-0.7,0.6v4.5c0,0.4,0.3,0.6,0.7,0.6h22.8c0.6,0,0.9-0.3,0.9-0.9v-4c0-0.5-0.3-0.8-1-0.8h-8.1V59l23.6,0
	c2.7,0,5.7,1.5,5.7,4.3s-3.1,4.4-5.6,4.4c-2,0-18.8,0-18.8,0c-0.9,0-0.9,0.7-0.9,0.9v3.6c0,0.7,0.3,1,1,1h6.4c2.6,0,4.9,1.2,6.4,3.4
	l5.9,8.5c1.9,2.8,5.5,4.2,10.5,4.2c4.9,0,8.1-2.5,9.9-4.6c2-2.3,2.7-3.7,2.8-4.4c0.1-0.7-0.8-1.2-2.8-1.2s-3.2,0.2-3.6,0.8
	c-0.3,0.5-1.4,1.9-1.4,1.9c-0.7,0.7-2.1,2-4.4,2c-3,0-4.9-0.8-6.2-2.7c0,0-3.5-5-4.3-6.1c-0.8-1.2-1.6-1.8-1.6-1.8s0.5,0,1.4,0
	c2.2,0,11.9-0.9,11.9-9.9c0-8.3-8.1-10.1-11.2-10.1H123"/>
<path fill-rule="evenodd" clip-rule="evenodd" fill="#231F20" d="M436.1,52.1c-0.4,0-0.7,0.2-0.7,0.5v4.4c0,0.5,0.2,0.7,0.7,0.7h7.2
	v25.3H436c-0.6,0-0.8,0.3-0.8,0.9v3.7c0,0.6,0.1,1,0.9,1l34.6,0c0.2,0,19-0.5,19-18.4c0-9.4-5.2-13.8-9.6-15.8
	c-2.5-1.2-4.9-1.7-6.6-2c0,0-2.2-0.2-2.2-0.2c0,0-0.8,0-0.8,0H436.1 M449.7,57.8h21.2c0.1,0,12.4,0.3,12.4,12.5
	c0,11.9-12.4,12.9-12.5,12.9h-21.1V57.8z"/>
<path fill-rule="evenodd" clip-rule="evenodd" fill="#231F20" d="M2.2,52.2c-0.7,0-0.7,0.6-0.7,0.8v4.1c0,0.3,0.1,0.7,0.7,0.7h9
	v26.5H2.4c-0.4,0-0.6,0.2-0.6,0.6v4c0,0.5,0.1,0.7,0.8,0.7l23.6,0c0.6,0,0.7-0.2,0.7-0.6v-4.2c0-0.2-0.1-0.5-0.6-0.5h-8.8v-8.4H41
	c4.9,0,13.1-2.5,13.1-12.1c0-8.5-7.1-11.5-13.1-11.5H2.2 M17.4,57.7h22.4c4.8,0,8.1,2.6,8.1,6.4c0,2.7-2.7,6.3-7.9,6.3H17.4V57.7z"
	/>
<path fill-rule="evenodd" clip-rule="evenodd" fill="#231F20" d="M360.1,83.3h-6.9l-19.3-31H314c-0.8,0-1.2,0.3-1.2,0.9
	c0,0,0,3.8,0,3.8c0,0.8,0.4,1.1,1.2,1.1h7.6l-14.2,25.1h-7.2c-0.5,0-0.7,0.3-0.7,0.7v4.1c0,0.3,0.1,0.7,0.8,0.7h22.4
	c1,0,1-0.3,1-0.7V84c0-0.6-0.1-0.8-1-0.8h-8.5l3.8-6.8h23.5l4.2,6.9h-9.2c-0.5,0-0.8,0.2-0.8,0.5v3.9c0,0.6,0.3,0.9,0.9,0.9H360
	c0.9,0,1-0.4,1-0.8V84C361,83.5,360.7,83.3,360.1,83.3 M321.1,71.1l0.3-0.6l6.8-12.3h2.2l7.9,12.9H321.1z"/>
</svg>
