<svg xmlns="http://www.w3.org/2000/svg" xmlns:xlink="http://www.w3.org/1999/xlink" version="1.1" id="connect_icons" x="0px" y="0px" width="112.547px" height="18px" viewBox="-29.389 -1.861 112.547 18" enable-background="new -29.389 -1.861 112.547 18" xml:space="preserve"><g id="rss"><g><path d="M83.137 15.191L83.137 15.191h-2.684v-0.247c0-7.483-6.107-13.174-13.584-13.174h0.163v-2.685h-0.163 c8.957 0 16.3 6.7 16.3 16.106H83.137z"/></g><g><path d="M77.769 15.191L77.769 15.191h-2.684v-0.27c0-4.279-3.94-7.784-8.213-7.784h0.16V4.454h-0.16 c5.924 0 10.8 4 10.8 10.737H77.769z"/></g><circle cx="68.7" cy="13.1" r="2"/></g><path id="Flickr" d="M28.137 7.174c0 2.354-1.75 3.734-3.858 3.734c-2.095 0-3.803-1.732-3.803-3.823 c0-2.087 1.708-3.736 3.803-3.736C26.388 3.3 28.1 4.8 28.1 7.174L28.137 7.174z M14.443 3.6 c-2.104 0-3.806 1.51-3.806 3.583c0 2.1 1.6 3.7 3.8 3.702c2.107 0 3.814-1.564 3.814-3.657 c0.039-2.032-1.618-3.628-3.738-3.628H14.443z"/><path id="facebook" d="M-2.822 4.996h-2.819V2.539c0-0.476 0.53-0.994 1.068-0.994h1.232v-2.301h-1.974 c-1.231 0-2.26 0.188-2.865 0.775C-8.727 0.547-9.092 1.18-9.092 2.125v2.872h-1.15v2.3h1.15v8.053h3.451V7.297h2.527 c0.064 0 0.251-1.15 0.251-2.3H-2.822z"/><path id="twitter_bird" d="M-11.189 3.832c-0.646 0-1.337-0.648-2.066-0.561c0.745-0.444 1.316-1.711 1.582-2.552 c-0.694 0.415-1.436 0.388-2.333 0.589c-0.652-0.696-1.589-1.275-2.619-1.275c-1.987 0-3.597 1.538-3.597 3.5 c0 0.3 0 0.5 0.1 0.783c-2.968-0.143-5.669-1.563-7.331-3.755c-0.368 0.529-0.511 1.158-0.511 1.8 c0 1.279-0.087 2.3 0.8 2.989c-0.559-0.053-2.26-0.185-2.26-0.458c0 0 0 0 0 0.044c0 1.8 2 3.2 3.7 3.6 c-0.302 0.083-0.253 0.132-0.583 0.132c-0.231 0-0.273-0.029-0.494-0.069c0.457 1.4 1.9 2.4 3.4 2.6 c-1.23 0.96-2.731 1.539-4.416 1.539c-0.292 0-0.556-0.024-0.837-0.056c1.59 1 3.5 1.7 5.5 1.6 c6.606 0 10.229-5.485 10.229-10.236c0-0.158-0.001 0.815-0.012 0.66c0.629-0.671 1.208-0.833 1.72-0.833H-11.189z"/><g id="Google"><g><path d="M6.922 8.167L6.136 7.574C5.953 7.4 5.8 7.2 5.8 6.969c0-0.288 0.181-0.485 0.42-0.723l0.039-0.053 c0.838-0.642 1.88-1.713 1.88-3.461c0-0.933-1.799-1.699-2.433-2.91H7.75v-1.21H4.599c-1.064 0-2.641 0.356-3.968 1.4 c-0.92 0.788-1.472 2.043-1.472 3.173c0 1.8 1.3 3.7 3.9 3.696c0.052 0 0.1 0 0.2 0 c-0.026 0.118-0.04 0.276-0.04 0.435c0 0.5 0.1 0.9 0.4 1.138c-1.116 0.09-2.47 0.306-3.536 1 c-1.642 0.972-1.774 2.421-1.774 2.841c0 1.7 1.5 3.4 4.8 3.337c3.838 0 6.63-2.145 6.63-4.281 C9.585 9.7 7.9 9 6.9 8.167L6.922 8.167z M3.98 14.346c-1.985 0-3.312-1.016-3.312-2.329 c0-1.234 1.016-1.713 1.463-1.879c0.894-0.302 1.987-0.38 1.987-0.38l0 0h0.115c0.145 0 0.3 0 0.4 0 c1.603 1.1 2.1 1.7 2.1 2.554c-0.029 1.14-1.008 2.023-2.703 2.023H3.98z M1.708 2.243c0 0 0.118-0.974 0.367-1.276 c0.276-0.328 0.762-0.546 1.197-0.546c1.417 0 2.3 2.1 2.3 3.491c0 0.592-0.129 1.003-0.405 1.3 c-0.303 0.29-0.775 0.437-1.183 0.449C2.365 5.7 1.7 3.5 1.7 2.243H1.708z"/></g></g><g><path d="M38.348-1.861c-4.97 0-9 4.029-9 9c0 3.7 2.2 6.9 5.4 8.245c-0.027-0.631-0.007-1.383 0.154-2.065 c0.173-0.732 1.157-4.906 1.157-4.906s-0.286-0.575-0.286-1.425c0-1.332 0.772-2.329 1.735-2.329c0.818 0 1.2 0.6 1.2 1.4 c0 0.822-0.524 2.051-0.796 3.195c-0.224 1 0.5 1.7 1.4 1.731c1.705 0 2.855-2.188 2.855-4.785 c0-1.973-1.329-3.45-3.745-3.45c-2.731 0-4.434 2.036-4.434 4.311c0 0.8 0.2 1.3 0.6 1.8 c0.167 0.2 0.2 0.3 0.1 0.501c-0.044 0.166-0.142 0.564-0.183 0.723c-0.06 0.228-0.246 0.309-0.451 0.2 c-1.257-0.515-1.842-1.892-1.842-3.438c0-2.556 2.154-5.623 6.432-5.623c3.435 0 5.7 2.5 5.7 5.2 c0 3.529-1.963 6.167-4.859 6.167c-0.97 0-1.883-0.527-2.194-1.125c0 0-0.525 2.074-0.633 2.5 c-0.193 0.693-0.567 1.389-0.908 1.928c0.81 0.2 1.7 0.4 2.5 0.368c4.971 0 9-4.028 9-9 C47.348 2.2 43.318-1.861 38.348-1.861z"/></g><g><rect x="49.7" y="3.3" width="3.4" height="10.9"/><path d="M62.574 3.969c-1.254-0.704-3.104-0.763-4.438-0.154V3.298H54.77v10.947h3.367V7.547l1.388-0.668 c0.341-0.164 1.087-0.149 1.4 0.028c0.238 0.1 0.6 0.7 0.6 1.022v6.314h3.368V7.93 C64.874 6.4 63.9 4.7 62.6 3.969z"/><circle cx="51.4" cy="0.8" r="1.7"/></g></svg>