<?xml version="1.0" encoding="utf-8"?>
<!-- Generator: Adobe Illustrator 16.2.1, SVG Export Plug-In . SVG Version: 6.00 Build 0)  -->
<!DOCTYPE svg PUBLIC "-//W3C//DTD SVG 1.1//EN" "http://www.w3.org/Graphics/SVG/1.1/DTD/svg11.dtd">
<svg version="1.1" id="Layer_1" xmlns="http://www.w3.org/2000/svg" xmlns:xlink="http://www.w3.org/1999/xlink" x="0px" y="0px"
	 width="14px" height="14px" viewBox="0 0 14 14" enable-background="new 0 0 14 14" xml:space="preserve">
<path d="M7,0C3.134,0,0,3.134,0,7s3.134,7,7,7s7-3.134,7-7S10.866,0,7,0z M7,11.984c-2.753,0-4.984-2.231-4.984-4.984
	S4.247,2.016,7,2.016S11.984,4.247,11.984,7S9.753,11.984,7,11.984z"/>
<polygon points="9.414,8 5.925,4.511 4.511,5.925 6.586,8 "/>
<polygon points="5.414,6 7.414,8 10,8 10,6 "/>
</svg>
