<?xml version="1.0" encoding="utf-8"?>
<!-- Generator: Adobe Illustrator 16.2.1, SVG Export Plug-In . SVG Version: 6.00 Build 0)  -->
<!DOCTYPE svg PUBLIC "-//W3C//DTD SVG 1.1//EN" "http://www.w3.org/Graphics/SVG/1.1/DTD/svg11.dtd">
<svg version="1.1" id="Layer_1" xmlns="http://www.w3.org/2000/svg" xmlns:xlink="http://www.w3.org/1999/xlink" x="0px" y="0px"
	 width="191.314px" height="229.958px" viewBox="0 0 191.314 229.958" enable-background="new 0 0 191.314 229.958"
	 xml:space="preserve">
<g id="Layer_1_1_">
	<path fill="#84514E" d="M78.785,130.036c-0.358,0.448-0.529,0.627-0.529,0.627l-0.14,0.068c-0.098,0.074-0.183,0.118-0.244,0.118
		L54.414,132.2c0,0,22.965-1.351,23.458-1.351l0.244-0.118C78.3,130.588,78.537,130.333,78.785,130.036
		c0.287-0.359,0.7-0.904,1.251-1.683l-1.396-2.312l0.198,0.086l-0.112-0.156l-0.279-0.119l-16.046-6.117l-29.907,14.008H54.03
		l0.193-0.58l2.882,5.776l-25.956,10.194l9.996,15.207l16.728-1.928l8.269-10.576l-21.149,27.318l22.688,50.805l10.673-53.127
		l3.361-17.498l0.141,0.07l0.052-0.261l-0.051,0.261l0.628,0.318l19.781,7.807l0.022-0.111l-0.961-2.692l-15.101-26.104
		l-6.188-10.261C79.798,128.708,79.273,129.45,78.785,130.036z"/>
	<polygon fill="#7D4B5B" points="81.855,159.403 78.353,176.833 76.909,184.349 81.856,159.403 	"/>
	<polygon fill="#7D4B5B" points="101.21,169.758 101.906,169.34 102.479,167.612 102.265,167.527 101.906,169.151 	"/>
	<path fill="#7D4B5B" d="M80.039,128.359c0.085-0.122,0.137-0.2,0.137-0.2c-0.049,0.071-0.092,0.129-0.14,0.194L80.039,128.359z"/>
	<polygon fill="#6B3E5F" points="90.751,146.441 94.215,152.409 136.918,152.961 96.596,147.245 	"/>
	<path fill="#7D4B5B" d="M138.647,152.75l-0.02,0.041l0.007-0.021l-0.2,0.403c0,0,15.767-11.762,15.767-10.967
		c0,0.787,0.964-6.926,0.964-6.926l-15.19,14.814L138.647,152.75z"/>
	<polygon fill="#B56B5E" points="155.432,116.679 155.353,116.807 145.552,132.202 141.315,145.09 138.635,152.774 138.647,152.75 
		139.783,150.1 155.165,135.286 156.508,134.125 157.462,118.528 156.421,117.487 	"/>
	<path fill="#A16467" d="M155.353,116.616l0.079,0.063l2.624-4.264l3.39-5.698c-0.021-0.026-0.044-0.056-0.074-0.095l-0.058-0.015
		l-9.997-12.122c-0.002,0-0.006,0.009-0.009,0.011c-0.867,3.343-1.887,7.545-2.97,12.155c-3.863,16.934-10.095,45.561-10.095,45.561
		l-0.386-1.539L114.832,58.09l-0.054-0.039c0.004,0.026,0.011,0.063,0.011,0.063L74.793,97.178c0,0-0.043-0.037-0.112-0.096
		l-3.452,2.984l0.294-0.192l-8.157,6.99l-30.87,26.687l29.802-13.857l0.105,0.04l0.087-0.04l16.152,6.157l0.086,0.118l58.169,25.095
		L78.84,126.125l1.336,1.844c0,0,0.04,0.037,0,0.189l6.052,10.461l4.718,7.82l5.651,0.805l41.837,5.735l-1.517-0.021l1.517,0.215
		l7.119-20.975L155.353,116.616z"/>
	<path fill="#C68374" d="M161.371,106.622l0.113,0.029l0.025-0.044l13.105,3.377l13.235,3.359l1.153-0.577L151.89,92.367
		l-0.575,2.119C151.806,94.41,160.202,105.127,161.371,106.622z"/>
	<path fill="#7D4B5B" d="M161.446,106.716c0.037,0.049,0.064,0.083,0.064,0.083l-3.454,5.615l-1.354,2.274l8.458,5.773l22.496-7.12
		l-13.04-3.359l-13.132-3.333L161.446,106.716z"/>
	<path fill="#C68374" d="M160.376,140.969l0.365-1.459l4.23-19.049l-8.27-5.774l-1.153,1.929l0.871,0.87l1.053,0.858l-0.012,0.183
		l0.012,0.011l-0.771,15.588l-1.538,1.35l-0.768,6.732c0,0-0.258,0.254-0.771,0.771c1.238,4.129-2.692,19.241-2.692,19.241
		l2.308,2.119l20.383,5.771v-0.581c0,0-16.114-8.182-16.73-9.429c-0.617-1.231-0.581-2.88-0.581-2.88l1.458-5.83
		c-0.188-0.205-0.298-0.325-0.298-0.325L160.376,140.969z"/>
	<path fill="#B56B5E" d="M174.982,151.182l-0.209,0.07l-13.647-12.889l-0.751,2.605l-2.604,10.42
		c2.235,2.443,16.757,18.35,16.237,18.529c-0.566,0.185,14.088,0.746,17.111-0.58C192.775,168.616,183.609,159.381,174.982,151.182z
		"/>
	<path fill="#7D4B5B" d="M186.697,147.209l-15.753-9.758l-8.476-5.062l0.026-0.172l-0.026-0.018l-1.344,6.161
		c0,0,6.744,6.06,13.857,12.82L186.697,147.209z"/>
	<polygon fill="#A16467" points="186.312,146.629 182.85,137.594 162.852,130.083 162.496,132.217 170.944,137.454 	"/>
	<polygon fill="#C68374" points="169.777,93.909 183.235,94.102 188.81,82.939 157.083,62.733 157.083,65.428 161.024,74.54 	"/>
	<path fill="#C68374" d="M129.927,56.557c-4.409-0.562-8.472-0.966-11.36-1.105l-4.257,0.532c0.155,0.431,0.372,1.552,0.447,1.966
		l0.031-0.03c0,0,18.229,12.964,29.786,21.516l9.435,6.771c0,0,2.572-20.966,3.072-23.667c0.169-0.895-4.414-2.156-10.643-3.37
		l-12.231-2.02L129.927,56.557z"/>
	<path fill="#A16467" d="M114.707,58.001l-0.113-0.081c0,0-0.813-0.099-0.421-1.919l-14.384,1.343L87.08,59.03
		c-0.25,0.037-0.501,0.077-0.751,0.115l-17.496,3.012l-13,2.732c-1.744,0.435-3.339,0.867-4.745,1.295l-2.253,0.785
		c0,0-0.902,0.337-1.729,0.648c-1.598,0.712-2.5,1.397-2.497,2.032l27.584,25.307c1.186,1.019,2.02,1.729,2.383,2.039l0.025-0.006
		c0,0-0.011,0.011-0.017,0.016c0.032,0.027,0.072,0.062,0.096,0.081l0.112-0.097L114.707,58.001z"/>
	<path fill="#7D4B5B" d="M114.707,58.001l0.072,0.052c-0.006-0.026-0.013-0.056-0.021-0.103L114.707,58.001z"/>
	<path fill="#7D4B5B" d="M72.192,94.954c-7.191-6.174-26.897-23.225-27.586-25.292c0-0.005,0.001-0.009,0.001-0.014l-0.147-0.136
		l-3.89,6.308l27.495,22.898l6.344-1.732L72.192,94.954z"/>
	<path fill="#7D4B5B" d="M44.222,88.135L44.196,88c0.008,0.11,0.019,0.217,0.026,0.328c0.005,0.07,0.007,0.142,0.013,0.211
		L44.222,88.135z"/>
	<path fill="#84514E" d="M69.156,101.419c3.407-2.237,5.302-4.277,5.43-4.418c-0.003-0.002-0.006-0.006-0.011-0.009l-6.51,1.725
		L42.106,77.358l0.013,0.031l0.179,0.162c0,0,0.084,0.276,0.216,0.758l0.168,0.396l0.093,0.578h0.678l22.11,20.783L44.46,96.994
		c-0.021,4.823-0.239,8.653-0.239,8.653l-0.2,0.677l-0.953,4.134l-1.923,5.774l24.233-12.576c0.659-0.37,1.301-0.732,1.916-1.086
		c0.553-0.318,1.071-0.638,1.564-0.953l-1.756,1.146l-1.724,0.895c-9.945,5.571-24.233,12.575-24.233,12.575l5.001,5.389
		l17.219-14.755l7.863-6.798L69.156,101.419z"/>
	<path fill="#A16467" d="M44.415,96.216l-0.191-7.889l-0.169-1.056l-1.562-7.99h0.274c-0.096-0.384-0.182-0.71-0.251-0.973
		l-0.395-0.919l-1.744-1.57l-0.322,0.299l0.134,0.085l-0.669,0.412L5.962,107.761l22.303,20.014l12.881-11.737l2.877-9.714
		l0.201-0.869L44.415,96.216z"/>
	<path fill="#7D4B5B" d="M42.793,79.391l-0.018-0.11h-0.01C42.775,79.318,42.784,79.353,42.793,79.391z"/>
	<path fill="#7D4B5B" d="M42.793,79.391l1.261,7.88L44.195,88C43.927,84.479,43.261,81.293,42.793,79.391z"/>
	<path fill="#7D4B5B" d="M44.415,94.293v1.924v0.769l0.046,0.007c0.012-2.674-0.042-5.648-0.226-8.452L44.415,94.293z"/>
	<path fill="#7D4B5B" d="M145.402,49.07h-13.118l-11.347,0.385l-11.918,0.962l-11.153,1.156L84.6,53.113l-13.938,1.162
		c-2.913,0.29-5.65,0.594-8.179,0.9l-3.074,0.439l-3.517,0.43c-6.478,0.934-10.521,1.794-10.905,2.263
		c0.452,7.59-6.286,14.273-7.489,15.403l3.068,2.11l3.844-6.351l0.047,0.043l0.146-0.235l1.153-1.155c0,0,0.214-0.083,0.531-0.201
		c0.232-0.086,0.519-0.193,0.814-0.305c1.047-0.467,2.392-0.947,3.982-1.432l2.17-0.754l2.573-0.541
		c8.226-2.045,19.771-4.104,30.496-5.743l0.384-0.067l0.367-0.049c12.617-1.912,23.943-3.225,27.129-3.225
		c0.1-0.388,1.754-0.479,4.357-0.354l1.792-0.224l9.569,1.329c5.494,0.699,11.528,1.642,16.511,2.614l5.055,0.835l-4.939-9.092
		L145.402,49.07z"/>
	<path fill="#7D4B5B" d="M114.21,55.998l0.102-0.014c-0.038-0.103-0.072-0.179-0.102-0.179c-0.019,0.074-0.021,0.127-0.036,0.196
		L114.21,55.998z"/>
	<polygon fill="#7D4B5B" points="24.419,66.006 31.148,55.613 29.545,54.544 20.958,66.006 37.685,77.743 39.518,76.616 
		40.053,76.118 	"/>
	<path fill="#A16467" d="M31.341,55.613l-6.922,10.393l12.497,8.081l0.384-0.193c0,0,0.084-0.076,0.201-0.186l-0.007-0.005
		c0,0,7.953-7.273,7.498-15.398c-0.023-0.409,1.346-0.577,1.346-0.577l5.191-1.154l4.366-0.533c1.979-0.285,4.189-0.579,6.591-0.868
		l3.654-0.523l4.523-0.376c1.342-0.134,2.717-0.266,4.129-0.394c14.671-1.322,32.248-3.606,46.146-4.426
		c14.1-0.832,24.224-0.769,24.224-0.769l0.24,0.385h0.151l1.002,1.843l3.419,5.469l1.728,3.657l-0.208-0.034l0.021,0.034l4.42,1.155
		l1.539-13.663l-0.771-1.922l-7.498-3.083l-17.689,0.193l-19.804,1.542l-29.997,3.271l-8.653,1.155l-13.458,1.539l-5.663,0.658
		L29.736,53.82l-0.32,0.64l0.127,0.085l0.065-0.085L31.341,55.613z"/>
	<polygon fill="#A16467" points="53.941,50.883 67.294,49.263 52.875,39.834 52.926,39.712 41.531,32.138 41.27,32.595 
		41.722,32.522 32.76,47.635 29.225,53.882 29.738,53.819 29.802,53.689 	"/>
	<polygon fill="#7D4B5B" points="0,39.257 27.686,56.19 32.76,47.635 41.27,32.595 	"/>
	<polygon fill="#7D4B5B" points="70.372,48.877 70.371,48.473 70.179,48.493 70.179,0.962 70.18,0.962 70.179,0.77 69.027,0.77 
		52.926,39.712 67.294,49.263 	"/>
	<polygon fill="#B56B5E" points="82.677,47.147 84.793,41.758 71.333,0.962 70.18,0.962 70.371,48.473 	"/>
	<polygon fill="#84514E" points="89.754,34.909 81.33,8.662 76.909,17.127 84.925,41.573 89.598,35.022 	"/>
	<polygon fill="#A16467" points="89.983,17.127 81.523,8.662 89.791,34.83 91.714,33.292 95.503,36.36 92.866,26.845 	"/>
	<polygon fill="#A16467" points="103.249,45.031 102.453,43.27 95.558,36.561 95.506,36.375 91.714,33.483 96.52,45.608 	"/>
	<polygon fill="#84514E" points="96.327,45.608 91.714,33.483 89.754,34.909 89.791,35.022 84.985,41.758 84.925,41.573 
		84.793,41.758 82.869,47.338 	"/>
	<path fill="#7D4B5B" d="M102.289,42.912l0.163,0.357l0.026,0.027l7.112,0.965h2.118l-0.104-0.201l-0.092,0.008l0.018-0.152
		l-10.08-19.427c-0.079-0.146-0.161-0.293-0.239-0.439L92.257,8.578C89.154,3.477,86.906,0,86.906,0l-1.537,0.577l4.806,16.551
		l2.692,9.716l2.884,9.717L102.289,42.912z"/>
	<polygon fill="#7D4B5B" points="95.503,36.36 95.506,36.375 95.75,36.561 	"/>
	<path fill="#B56B5E" d="M101.215,24.05l0.114,0.197l0.125,0.242c4.875,8.931,9.174,17.579,10.081,19.412l1.027-9.688l0.108-3.999
		l-1.729-6.158L87.29,0l4.967,8.578c2.132,3.503,4.663,7.771,7.148,12.204C100.012,21.867,100.617,22.959,101.215,24.05z"/>
	<path fill="#7D4B5B" d="M111.713,44.262l0.022-0.211l-0.119,0.01C111.676,44.188,111.713,44.262,111.713,44.262z"/>
	<polygon fill="#7D4B5B" points="111.734,44.051 127.478,42.719 149.01,42.143 141.893,37.391 129.682,30.964 113.63,22.706 
		113.251,27.71 112.561,34.213 112.481,37.142 	"/>
	<path fill="#7D4B5B" d="M111.534,43.901l-0.001,0.015l0.074,0.145h0.006C111.591,44.014,111.565,43.963,111.534,43.901z"/>
	<polygon fill="#B56B5E" points="141.893,37.391 143.246,38.103 146.128,34.83 151.122,26.749 153.626,20.59 152.857,20.399 
		141.315,21.359 130.166,21.937 122.288,22.513 113.63,22.513 129.682,30.964 140.937,36.753 	"/>
	<path fill="#B56B5E" d="M154.01,86.404l-0.144,0.359c0.058-0.294-3.886-3.326-9.291-7.325l-29.743-21.345l23.412,94.121
		c0,0,5.578-26.311,10.095-45.561c1.599-7.002,2.788-11.999,2.97-12.155c1.229-4.722,2.151-7.728,2.513-7.708
		c0.022,0.001,0.035-0.005,0.042-0.016l-1.392,3.478L154.01,86.404z"/>
	<polygon fill="#7D4B5B" points="77.487,181.438 81.855,159.403 102.479,167.612 	"/>
	<polygon fill="#A16467" points="65.448,151.182 82.869,158.245 67.68,229.959 44.991,179.154 	"/>
	<polygon fill="#A16467" points="31.148,149.133 41.144,164.34 55.115,138.364 	"/>
	<polygon fill="#A16467" points="32.495,133.551 62.298,119.694 78.641,125.851 81.078,130.083 	"/>
	<polygon fill="#7D4B5B" points="54.413,132.204 81.078,130.083 102.479,167.612 81.523,161.058 82.869,158.245 65.448,151.182 
		63.93,152.961 55.115,138.364 	"/>
	<polygon fill="#7D4B5B" points="151.891,92.366 164.447,98.718 167.658,89.867 161.024,74.54 157.083,65.814 157.083,65.428 
		154.01,86.404 	"/>
	<polygon fill="#7D4B5B" points="157.77,151.39 174.009,169.92 156.893,160.101 156.312,157.219 	"/>
	<polygon fill="#7D4B5B" points="42.793,78.745 65.563,100.064 44.415,96.985 	"/>
	<polygon fill="#6B3E5F" points="41.144,116.038 46.146,121.62 71.229,100.067 	"/>
	<polygon fill="#7D4B5B" points="114.833,58.092 137.532,151.182 62.298,119.694 32.495,133.551 	"/>
</g>
<g id="Layer_2">
</g>
</svg>
