<?xml version="1.0" encoding="utf-8"?>
<!-- Generator: Adobe Illustrator 19.1.0, SVG Export Plug-In . SVG Version: 6.00 Build 0)  -->
<svg version="1.1" id="Layer_1" xmlns="http://www.w3.org/2000/svg" xmlns:xlink="http://www.w3.org/1999/xlink" x="0px" y="0px"
	 viewBox="0 0 1000 1000" style="enable-background:new 0 0 1000 1000;" xml:space="preserve">
<style type="text/css">
	.st0{fill:#010101;}
</style>
<g>
	<path class="st0" d="M382.7,650.7c2.8,0.8,5.6,1.7,8.5,1.8c9.5,0.4,34.7-3.7,41.9-4.7c0.9-0.1,24.2-5.8,24.2-14.4
		c0-7.4-1.4-14.6-1.9-22c-0.4-6.2-1.1-12.3-7.3-15.8c-1-0.6-1.9-1.2-2.8-1.9c-11.6-9.7-22.2-21.8-31.9-26.1c-0.8-0.4-5-2.2-5.8-2.1
		c-8.9,1.3-11.7,3.5-19.6,7.8c-5,2.7-9.7,5.9-14.5,8.9c-7.9,4.9-15.8,9.9-23.9,15c9.7,16.8,19.6,34.1,29.7,51.4
		C379.8,649.6,381.4,650.3,382.7,650.7z M389.3,606.7c1-8.7,10.6-14.7,21.5-13.4c10.8,1.3,18.8,9.4,17.8,18
		c-1,8.7-10.6,14.7-21.5,13.4C396.3,623.5,388.3,615.4,389.3,606.7z"/>
	
		<ellipse transform="matrix(0.387 -0.9221 0.9221 0.387 -211.1148 754.9235)" class="st0" cx="462.2" cy="536.2" rx="8.7" ry="8.3"/>
	<path class="st0" d="M497.6,559.4c-0.1-6.8,0-13.7,0-20.5c-0.3-12,1.7-24.7-4.8-35.4c-7.2-11.9-29.3-13-37.3-15.6
		c-1.1-0.4-2.5-0.1-3.7,0.2c-6.9,1.7-11.1,6.8-14.2,12.6c-5.6,10.2-12.5,18.5-18.2,30.8c-2,4.4-4.4,13.1-4.7,16.5
		c-0.7,7.2,14.2,20.4,15.2,21.5c5.4,6.4,11.7,12.9,19.6,15.1c4.2,1.2,18.4,0.1,24.5-3.1C486.9,574.5,497.7,561.6,497.6,559.4z
		 M456.7,549.5c-7-3-10.2-11.3-7.2-18.6c3.1-7.3,11.3-10.8,18.3-7.9c7,3,10.2,11.3,7.2,18.6C471.9,548.9,463.7,552.4,456.7,549.5z"
		/>
	<path class="st0" d="M318,498.1c0.7-0.8,1.1-1.8,1.7-2.6c10.6-13.5,21.2-27.1,31.8-40.6c0.6-0.8,14.9-18.3,19.6-25.3
		c2.2-3.3,2.2-3.3,4.5-8c2.7-5.5,12.7-27,12.9-27.5c4.9-12.4,9.5-25,12.8-37.9c1.9-7.1,0.9-18.9,1.9-23c-0.4-0.2-0.9-0.4-1.3-0.6
		c-6.9,3.8-13.8,7.5-20.6,11.4c-0.7,0.4-1.3,1.3-1.7,2.1c-3.7,6.5-7.6,12.9-11,19.5c-5.6,10.9-13.9,20.4-15.8,33
		c-0.1,0.6-1.2,1.5-1.7,1.5c-2.4-0.3-3,1.4-3.8,2.9c-12.9,22.7-25.8,45.5-38.5,68.2c-1,1.7-1.4,3.9-1.5,5.9c-0.2,3,0.1,6,0.2,9
		c0.2,4.2-0.7,8.5,3.4,11.8C313,499.4,316.3,500.2,318,498.1z"/>
	<ellipse transform="matrix(-0.117 0.9931 -0.9931 -0.117 1061.6663 274.1633)" class="st0" cx="409" cy="609" rx="9.5" ry="11.9"/>
	<path class="st0" d="M577.2,307.5c-1.8-4.1-3.4-8-5.2-11.8c-0.3-0.7-1.4-1.2-2.3-1.4c-8.9-2.4-17.7-5-26.7-7
		c-7.1-1.6-14.4-2.3-21.1-3.4c-6.4-0.7-50,0.5-64.7,3.6c-0.9,0.2-2.1,1.3-2.2,2.1c-0.3,3-2.4,4.3-4.4,6c-4.1,3.5-8.1,7.3-12.1,10.9
		c0.2,0.3,0.4,0.6,0.6,0.8C485,307.5,531,307.5,577.2,307.5z M507.3,287c10.9-0.3,19.9,3.3,20,8.1c0.1,4.8-8.6,8.9-19.5,9.2
		c-10.9,0.3-19.9-3.3-20-8.1C487.6,291.4,496.4,287.3,507.3,287z"/>
	<path class="st0" d="M471.6,635.3c0.4,0.8,2,2.6,3.2,3.6c3.1,2.5,10.8-7.2,11.8-8.1c4-4.2,5-9.6,5.7-15.1c0.2-2.1,1-3.6,3.3-3.7
		c2.5-0.2,2.8-1.7,2.8-3.9c-0.2-9-0.3-18-0.4-27.1c0-2,0-4.1,0-7c-1.1,0.9-1.4,1.2-1.7,1.4c-6.6,5.6-13.3,11.2-19.9,16.8
		c-0.7,0.6-1.5,1.2-1.8,2c-1.5,4.3-3.3,8.5-4.1,12.9c-0.8,5.1-0.8,10.3-0.9,15.5c-0.1,2.4-0.3,4.7,0,7.2
		C469.7,631.8,470.7,633.7,471.6,635.3z"/>
	<path class="st0" d="M547.4,466.9c2.8-3.8-0.1-19.3-0.2-26.7c-0.1-4.8-0.8-9.7-2.2-14.3c-1.5-5.1-4.2-9.9-6.3-14.9
		c-3.8-20-73.2-80.5-81.6-91.6c-0.4-0.6-1.3-1.2-1.9-1.2c-5.5-0.1-11-0.1-16.5,0c-0.7,0-1.5,0.7-2.1,1.4c-1.2,1.4-2.2,3-3.4,4.5
		c-1.1,1.4-5.5,3.9-10.3,5.6c-10.7,27-22.8,56.6-28.4,80.3c-1.3,11.6,11.1,27.3,15.8,31c26.5,21.2,59.3,32.9,88.9,49.4
		c2.6,1.4,4.6,1.2,6.9-0.1C516.1,484.7,539.4,477.7,547.4,466.9z"/>
	<path class="st0" d="M484.3,677.9c1,2.2,2.1,3.1,4.6,3c17.2-0.4,34.4-0.7,51.6-1c1.1,0,2.2-0.1,2.6-0.2c0.7-9.5,6.6-16.6,9-25.2
		c-12.9-1.7-25.6-3.3-38.3-5.3c-6.3-0.9-12.4-3.4-18.9-1.1c-2.5,0.9-5.3,0.9-8,1.3c-5.3,0.9-10.5,1.8-15.7,2.6
		c1.7,2.7,3.4,4.9,4.6,7.4C478.9,665.5,481.7,671.7,484.3,677.9z"/>
	
		<ellipse transform="matrix(2.819873e-02 0.9996 -0.9996 2.819873e-02 788.7233 -220.0451)" class="st0" cx="507.5" cy="295.6" rx="5.2" ry="11.9"/>
	<path class="st0" d="M678.5,416.2c5.2-5.2,9.9-10.2,17.8-11.3c-5.6-9.6-10.8-18.6-16-27.5c-1.9,2.2-3.1,3.9-4.7,5.3
		c-3.1,2.8-6.4,5.3-9.5,8c-0.6,0.6-1.3,2.1-1,2.6C669.4,401,673.9,408.4,678.5,416.2z"/>
	<path class="st0" d="M594.1,315.5c4.7,2.5,9.3,5.1,14.2,7c10.1,3.9,20.7,6.6,30.2,12.2c1,0.6,2.2,0.9,3.4,1.3
		c-16.1-14.6-34-26-54.4-34.8c1.7,4.4,3,8.1,4.6,11.7C592.4,313.9,593.2,315,594.1,315.5z"/>
	<path class="st0" d="M683,423.8c7.9,13.3,15.8,26.5,23.9,40.1c1.6-2,2.7-3.7,4.1-5.1c2-1.9,2.2-4,1.5-6.5
		c-2.8-9.2-5.3-18.5-8.2-27.6C702.6,419.6,687.2,420.1,683,423.8z"/>
	<path class="st0" d="M609.4,407.1c2.1-0.9,1.8-2.3,1.1-3.8c-1.9-4.6-3.7-9.2-5.6-13.9c-2-5-6-4.5-11-2.2
		c-8.3,3.8-16.7,6.7-19.6,15.9c-3.2,12.4,4.6,32.3,4.9,45.9c4.1-2.7,17.6-12.3,21.2-15.4c3-2.7,7.1-8.2,6.7-12.2
		c-0.3-3.9,0.1-8,0.5-12C607.8,408.6,608.6,407.4,609.4,407.1z"/>
	
		<ellipse transform="matrix(0.6228 -0.7824 0.7824 0.6228 -69.112 538.7888)" class="st0" cx="524.2" cy="341.1" rx="7.4" ry="9.2"/>
	<path class="st0" d="M573.2,318.1c-33.7,0-67.4,0-101.1,0c-1,0-2,0.1-3,0.2c0,0.5-0.1,0.7,0,0.8c5.9,7,11.6,14.1,17.6,20.9
		c2.4,2.8,5.2,5.3,8.1,7.5c14.8,11.4,57.4,42.9,60.7,43.4c1.2,0.2,2.6-0.4,3.7-1.1c4.2-2.7,8.2-5.6,12.4-8.3
		c4.3-2.7,20.4-10.9,23.6-14.4c2.4-2.3-12-31.6-18.1-47.1C576.3,318,574.8,318.1,573.2,318.1z M577.1,364.1
		c-4.2,5.3-13,5.3-19.6,0.1c-2.9-2.3-4.9-5.3-5.9-8.3c-3.1-1.3-9.7-4-16-4.6c-4.4,4.6-12.7,4.4-19-0.6c-6.6-5.3-8.5-13.8-4.3-19.1
		c4.2-5.3,13-5.3,19.6-0.1c5,4,7.3,9.8,6.3,14.7c4.4,4.4,10.5,4.3,13.3,2c0.4-1.1,0.9-2.2,1.7-3.1c4.2-5.3,13-5.3,19.6-0.1
		C579.4,350.3,581.3,358.8,577.1,364.1z"/>
	<path class="st0" d="M355.2,580.8c8.8-1.9,16.9-7.1,24.1-13.1c5.6-4.6,10.4-9.1,14.7-15.1c4.6-6.3,21.5-36.9,26-45.7
		c1.1-2.2,4.4-13,4.7-14.4c1.9-8.8,0.9-11.7-0.1-17.6c-0.2-1.5-1.1-3.1-2-4.4c-5.3-7.1-13.1-11-20.1-15.9c-5.9-4.1-12.4-6.1-20-5.5
		c-8.7-0.7-15.5,2.7-21.1,10c-13.8,18.4-28,36.5-42.3,54.5c-3.1,3.9-3.3,7.4-2.5,11.9c0.5,3-0.9,6.3-1.4,9.5
		c-0.1,0.9-0.5,1.9-0.1,2.6C321.4,548.4,336.4,584.9,355.2,580.8z M351.3,503c5.5-13.2,18.6-20.3,29.2-15.9
		c10.6,4.4,14.7,18.7,9.1,31.9c-5.5,13.2-18.6,20.3-29.2,15.9C349.9,530.5,345.8,516.2,351.3,503z"/>
	
		<ellipse transform="matrix(-0.387 0.9221 -0.9221 -0.387 985.0759 367.177)" class="st0" cx="370.5" cy="511" rx="15.6" ry="12.5"/>
	
		<ellipse transform="matrix(0.6228 -0.7824 0.7824 0.6228 -64.2456 575.8906)" class="st0" cx="565.1" cy="354.6" rx="7.4" ry="9.2"/>
	<path class="st0" d="M346,384.3c8-14.2,16-28.3,23.9-42.2c-5.6,0.4-11,1.1-16.5,1.2c-2.3,0-4,0.6-5.5,2.2c-4.5,5-9.1,9.9-13.5,14.9
		c-2.7,3.1-5.2,6.5-7.6,9.6C335.6,371.8,339.3,379.8,346,384.3z"/>
	<path class="st0" d="M685,606.6c-0.3-0.2-0.6-0.6-0.9-0.8c-3.8-3-5.7-7-6.3-11.7c-0.4-2.8-1.3-5.6-2-8.4c-0.3,0-0.6,0.1-0.9,0.1
		c-3.3,6-6.6,12.1-9.9,18.1c2.4,2.8,4.2,9.3,4.3,12.2c0,0.7,0.4,1.4,0.6,2.1c0.9,2.5,1.8,5.1,2.9,7.5c0.5,1.2,1.5,2.2,2.7,3.9
		c4-6,7.5-11.5,11.1-16.9c0.8-1.2,2-2.6,1.8-3.8C688.1,608,686.1,607.4,685,606.6z"/>
	<path class="st0" d="M437.1,293c-13.5,0.6-68.2,30-73.9,40c7.8-2.3,34.3-13.7,37-14.9C404.3,316.2,430.6,301.9,437.1,293z"/>
	<path class="st0" d="M662.9,628.5c-1.2-2.5-2.1-5.2-2.9-7.8c-0.2-0.7-1-2.4-1.9-4.2c-0.3,0.3-0.5,0.6-0.7,0.9
		c-6.7,12.2-13.4,24.3-20.1,36.5c-0.4,0.8-0.7,1.6-1.1,2.5c3.4,0.9,6.5,2,9.8,2.6c1.2,0.2,3,0,3.8-0.8c6.7-6.8,13.3-13.9,20.6-21.6
		c-1.5-1-2.7-1.4-3.4-2.3C665.4,632.5,663.9,630.6,662.9,628.5z"/>
	<path class="st0" d="M518.1,703.6c0.4,4.1-0.2,7,2.1,12.7c1.7,0,0,0,1-0.1c6.5-0.9,13.1-1.2,19.4-2.8c13.5-3.3,24.8-10,30.9-23.7
		c-17.7,0.3-35.4,0.7-53.5,1C518,695.2,517.7,699.4,518.1,703.6z"/>
	<path class="st0" d="M600.1,663.2c-0.3-1.5-0.5-2.4-2.2-2.6c-3.7-0.4-7.4-1.1-11.1-1.4c-0.8-0.1-1.9,1-2.6,1.7
		c-3.6,4.1-5.7,8.4-7.9,12.8c-1.5,3-2.8,4.5-0.6,5.2c5.1,0,0,0,4.5-0.1c0.9,0,1.8-0.5,2.6-0.9c4.3-2.3,8.4-4.8,12.8-7
		C599,669.3,601.1,667.4,600.1,663.2z"/>
	<path class="st0" d="M508,702c0.2-3.6,0-7.2,0-10.8c-3.6,0-6.8,0-10.5,0c1.4,8.7,4.5,16.9,0.3,25.5c3.6,0,8.8-0.2,12.3-0.4
		C508.1,712,507.8,705.9,508,702z"/>
	<path class="st0" d="M708.2,504.4c-0.5,7.6-1.2,15.2-1.7,22.8c-0.1,0.8-0.2,1.7,0.1,2.5c1.9,4.5,4,9,5.9,13.5
		c0.3-0.1,0.6-0.1,0.9-0.2c4.2-21.2,5.3-42.7,2.7-64.3C712.2,487,708.9,495.3,708.2,504.4z"/>
	<path class="st0" d="M644.6,457.4c-6.4-7.5-16.4-18.7-18.2-20.6c-7.1-7.7-46.3,21.8-47.7,22.5c-16.4,9.3-32.4,20.2-48.8,29.5
		c-3.6,2-6.8,4.3-9.4,7.8c-5.9,7.8-13.1,40.7-13,45.4c0.6,26.7,0.9,53.3,1.1,80c0.1,5.5,3.3,8.8,7.1,11.6c2,1.5,3.9,2.4,2.4,5.5
		c1.4,0.2,2.5,0.5,3.6,0.6c24.8,3.3,49.7,6.5,74.5,9.9c2.1,0.3,21.4,3.1,31.6-4.3c2.8-1.5,4.4-3.8,5.9-6.5
		c6.5-11.9,13.1-23.8,19.6-35.7c10.2-18.5,20.4-37.1,30.6-55.6c0.6-1,1.1-2.9,0.6-3.6c-2.7-3.6-2-7.1-0.6-10.9c1.5-3.8,3-7.5,4-11.4
		c1.8-6.6,0.9-12.4-4.1-18C670.5,488.5,657.7,472.8,644.6,457.4z"/>
	<path class="st0" d="M696.3,465.7c-22.9-37.9-45.4-76-67.9-114.2c-3.4-5.8-7.2-10.6-13.7-13.1c-3.3-1.2-6.2-3.4-9.3-5
		c-1.8-1-3.8-1.8-5.7-2.4c-0.7-0.2-1.9-0.1-2.5,0.3c-1.1,0.7-2.1,1.8-3.2,2.9c1.3,3.4,2.7,7,4.2,10.7c9.9,24.7,19.8,49.5,29.8,74.2
		c1,2.5,1.8,5.2,3.4,7.2c14.8,17.7,29.7,35.2,44.6,52.7c5.4,6.4,10.9,12.8,16.9,19.9c2-4.4,5.9-7.1,5.6-12c-0.2-2.3,0.2-4.6,0.1-6.8
		C698.5,475.2,699.2,470.5,696.3,465.7z"/>
	<path class="st0" d="M622,668.7c-7.1,4.3-13.5,9.6-20.4,14.1c-6.2,3.9-9.5,10.2-13.9,15.8c18.2-7.4,34.7-17.5,50.5-30.3
		C632.3,666.5,626.8,665.9,622,668.7z"/>
	<path class="st0" d="M285.4,473.4c-2.7,21.5-2.1,42.5,1.3,62.9c2.5-4.8,5.4-9.8,7.8-15.1C295.4,519.3,306,504.9,285.4,473.4z"/>
	<path class="st0" d="M363.6,648c-0.5-0.8-0.9-2.3-0.5-2.8c1.5-1.9,0.4-3.2-0.5-4.8c-20.4-35.4-40.7-70.9-61.1-106.3
		c-0.4-0.7-0.9-1.3-2-2.8c-1.1,3.8-2.7,6.7-2.7,9.6c0.2,9.3,0.3,18.7,1.7,27.9c1.2,7.5,4,14.7,6.4,22c1.6,4.8,3.5,9.6,5.7,14.2
		c1.8,3.8,4.2,7.4,6.4,11c8.5,13.7,18.6,26.1,29.8,37.6c0.7,0.7,1.9,1.6,2.8,1.5c5.8-0.7,11.6-1.6,17.5-2.4
		C366,651.1,364.7,649.6,363.6,648z"/>
	<path class="st0" d="M327.2,403.7c5.8,3.4,5.9,3.3,9.2-2.4c4.6-7.9,4.6-8-1.9-14.3c-3.8-3.7-7.9-7.2-12.1-11
		c-3.7,5.9-7.1,11.4-10.3,16.5c1.6,1.1,5.8,4.5,7.1,5.4C321.7,399.7,324.4,402,327.2,403.7z"/>
	<path class="st0" d="M419.1,691.5c-6.9-5.4-15.6-10.2-18.9-12.4c-1.4-0.9-2.7-2-4.2-2.7c-3.5-1.6-7.1-3.4-10.8-4.4
		c-4.7-1.2-9.6-1.5-14.4-2.3c-1.9-0.3-3.9-0.6-6.3-0.9c10.3,11.5,52.4,34.1,70.3,37.8C431.9,702.8,422.6,694.2,419.1,691.5z"/>
	<path class="st0" d="M487.3,692.9c-1.4-0.6-7.6-1.4-9-1.4c-5.9,0-11.8,0.1-17.7,0.4c-1.6,0.1-17,0.8-21.7,0.3
		c0.8,1,1.1,1.5,1.4,1.8c7,6.2,13.9,12.5,20.9,18.5c1.2,1,3,1.6,4.6,1.7c8.8,1,15.1,1.8,23.9,2.6c0,0,2.3-6,1.8-11.3
		C491.2,701.9,488.9,693.6,487.3,692.9z"/>
	<path class="st0" d="M444.5,680.9c-3.6-4.4-7.2-8.7-10.7-13.2c-1.6-2.1-3.2-4.3-4.3-6.7c-0.8-1.6-1.6-2.1-3.3-1.7
		c-5.6,1-11.2,1.8-16.8,2.7c-3.5,0.6-7.1,1.2-11.5,1.9c1.6,0.9,2.4,1.5,3.3,1.9c4.7,2.5,9.6,4.9,14.2,7.6c3,1.8,13.9,8,15.9,8.2
		c4.2,0.4,8.6,0.1,12.8,0.1C444.2,681.5,444.3,681.2,444.5,680.9z"/>
	<path class="st0" d="M296.5,471.7c3.2-5.6,6.2-10.9,9.2-16.3c3-5.3,5.9-10.6,8.8-15.6c-6.3-4.1-12.1-7.9-18.3-12
		c-0.4,0.9-0.8,1.5-1,2.2c-2.2,7.8-4.3,15.6-6.5,23.3c-1.1,3.7-1.2,6.7,2.1,9.7C293.2,465.2,294.6,468.6,296.5,471.7z"/>
</g>
<g>
	<path d="M345,706.6c-24.8-43.6-49.6-87.3-74.5-130.9c-0.4,0.2-0.8,0.5-1.2,0.7c24.8,43.7,49.6,87.3,74.5,131
		C344.1,707.1,344.6,706.9,345,706.6z"/>
	<path d="M269.8,574.1c-3.2-5.3-6.5-10.5-9.7-15.8c2.6,5.6,5.2,11.2,7.8,16.8C268.5,574.8,269.2,574.4,269.8,574.1z"/>
	<path d="M487.2,779.9c0-9.6,0-19.7,0-30.9c-32.6,0-64.4,0-99.8,0c-0.9,1.9-4.4,6.8-5.2,12.1c-0.8,5.6,1,11.5,1.9,18.9
		C418.6,779.9,453.3,779.9,487.2,779.9z"/>
	<path d="M669.7,220.5c1.6,1.1,3.9,1.2,5.9,1.8c-1.1-0.9-2.2-1.8-3-2.5c6.2-19.5,8.3-38.3,1.3-54.8c-8.7,12.9-17.7,26.1-26.7,39.5
		C652.6,208.5,661.1,214.6,669.7,220.5z"/>
	<path d="M186.7,644.2c-24.5,0.1-44.6,20.5-44.6,45.2c0,26.1,19.4,46,44.9,46c24.9,0,44.8-20.1,44.7-45.4
		C231.7,664.8,211.4,644.1,186.7,644.2z"/>
	<path d="M707.8,126.4c0-14.7-11.9-26.8-26.4-26.8c-14.9,0.1-26.8,12-26.8,26.9c0,14.8,12.1,26.9,26.9,26.9
		C695.7,153.5,707.8,141.1,707.8,126.4z"/>
	<path d="M406.4,912.2c-0.1,0.6-0.2,1.2-0.3,1.8c0.3,0,0.7,0,1,0c0-0.6,0-1.2,0-1.8C406.9,912.3,406.6,912.2,406.4,912.2z"/>
	<path d="M319.6,838.5c-14.7,0.1-26.6,12.3-26.5,27.2c0.1,14.8,11.9,26.6,26.5,26.6c14.5,0,26.5-12.1,26.7-26.7
		C346.5,851,334.1,838.4,319.6,838.5z"/>
	<path d="M284.1,987c17.4-3.5,34.7-6.9,52.1-10.4c-4.6-7.3-8.5-13.3-12.3-19.3c-12.7,2.5-24.6,4.9-36.8,7.3
		C286,972.2,285.1,979.6,284.1,987z"/>
	<path d="M258.8,556c-2.2-4.4-4.4-8.9-6.6-13.3c-0.5-0.8-0.9-1.6-1.4-2.4c-1.1-1.9-1.9-4.1-2.5-6.4c0.1,0.8,0.3,1.6,0.4,2.4
		c-0.7-0.3-1.4-0.5-3.8-1.4C250,542.7,254.4,549.4,258.8,556z"/>
	<path d="M276,613.2c0,0,0,0.1,0,0.1c0.1,0,0.1,0,0.2,0C276.1,613.3,276,613.2,276,613.2z"/>
	<path d="M360.7,714.7c-1.5-0.3-2.9-0.8-4.2-1.3c2,1.3,4.1,2.5,6.1,3.7C362.1,716.2,361.5,714.9,360.7,714.7z"/>
	<path d="M586.2,248.7c0.3-0.5,0.5-0.9,0.8-1.4c0.9,1,1.7,2,2.6,3c0.5-1,0.9-2.1,1.4-3.1c13.2,5.2,26.5,10.4,42,16.5
		c1.8-10.4,4.7-20.9,4.7-31.5c0-2.4-9.6-4.8-14.7-7.2c-0.4,0.7-0.9,1.4-1.3,2.1c-1.3-2.2-2.5-4.4-4.2-7.5c-10.1-0.5-20.9-1-30-1.4
		c-6,7.6-11,14-16.9,21.6C576.3,243.1,581.2,245.9,586.2,248.7z"/>
	<path d="M396.5,735.1c6.4,3,13.2,5.2,21.3,5.1c0.3,0,0.6,0,0.9,0C411,739.5,403.6,737.8,396.5,735.1z"/>
	<path d="M569.1,250c0-0.5,0-0.9,0-1.4c-1.2,0-2.4,0-3.6,0c0.1,0.5,0.1,1.1,0.2,1.6C566.8,250.2,567.9,250.1,569.1,250z"/>
	<path d="M640.3,281.8c-12.1-4.3-23.2-11.2-34.8-16.9c-0.4,0.8-0.9,1.6-1.3,2.4c-1.2-2-2.4-4-4.3-7.2c-65.4,0-131.4,0-197.8,0
		c-0.1,0.8-0.4,2.5-0.4,2.7c-14.4,7.5-27.8,14.3-41.2,21.5c-6.8,3.6-15.6,6.2-19.4,12c-12.9,19.5-24.1,40.1-35.8,60.3
		c-14.1,24.6-27.2,49.8-42.3,73.8c-13.3,21.1-22.4,42.5-18.5,67.9c0.6,4-0.3,8.1,0.2,12.1c0.7,5.8,1.7,11.5,2.6,17.2
		c0-0.2-0.1-0.4-0.1-0.6c-1-13.4-0.7-27-2.2-40.4c-1.6-14.3,3.3-26.1,10.1-38c28.2-48.6,56-97.6,84.7-145.9
		c3.4-5.8,11.6-9.1,18-12.6c14-7.7,28.4-14.8,43.7-22.7c0-0.1,0.7-1.6,0.9-2.1c65.5,0,130.4,0,195.3,0c-0.2,1.1-0.4,2.2-0.5,3.3
		c4,1.3,8.2,2.1,12,3.9c12.3,6.2,24.9,12,36.5,19.4c6.5,4.2,12.5,10.5,16.4,17.2c31.6,54.6,63.1,109.2,93.3,164.5
		c4,7.4,1,18.7,1.1,28.2c0,2.4-0.2,4.8-0.4,7.4c2,0.5,3.1,0.8,4.6,1.2c0-13.2,0-25.8,0-38.6c-1.6-2.6-3.5-5.3-5.1-8.2
		c-27.2-47.8-54.3-95.6-81.5-143.4C665.5,305.2,659.1,288.5,640.3,281.8z"/>
	<path d="M675.5,222.3C675.5,222.3,675.5,222.3,675.5,222.3C675.5,222.3,675.5,222.3,675.5,222.3
		C675.5,222.3,675.5,222.3,675.5,222.3z"/>
	<path d="M393.6,253.5c-2-9.6-4.1-19.8-6.6-31.4c-11.4,4.8-19.7,8.3-29,12.2c7.3,9.8,13.9,18.7,20.4,27.5
		C383.3,259.1,387.2,257,393.6,253.5z"/>
	<path d="M596.1,779c2.1-0.1,6-3.4,5.8-4.7c-1.4-8.8-3.7-17.5-5.4-24.9c-14.1,0-24.1,0-35.7,0c-2.7,7.9-5.3,15.4-8.1,23.3
		c1,2,2.1,4.3,3.2,6.6C569.6,779.2,582.9,779.4,596.1,779z"/>
	<path d="M559.3,218.7c-48.8-0.3-97.6-0.3-146.4-0.4c-1.7,0-3.5,0.3-6.6,0.5c2.6,11.2-7.7,26.7,23.9,30.4c32.7,0,76.2,0,120.2,0
		c-0.8-2-1.6-3.9-3-7.3c6.2-5.8,12.8-12,20.6-19.3C564.8,221.2,562.1,218.8,559.3,218.7z"/>
	<path d="M644.5,716.1c0.1-1.8,0.3-3.2,0.5-5.7c5.1-2.2,10.5-4.6,16-6.9c2.2,1,3.4-0.2,4.2-1.6c11.6-20.3,23.2-40.7,34.7-61.1
		c17.4-31.1,34.8-62.2,51.8-93.6c3.3-6.2,5.9-13.3,6.6-20.2c0.5-5-1.6-10.3-3.1-16.2c-1.1-0.5-2-1-3.2-1.6c0,5.7,0,11.1,0,16.9
		c8.4,10.8-2.6,17.7-6.5,25.3c-11.8,22.9-24.8,45.2-37.4,67.7c-15.4,27.7-30.9,55.4-46.4,83.1c-0.6,1-1.5,1.9-3.3,1.1
		c-6.5,3.3-13,6.5-19.4,9.8c0.4,0.6,0.9,1.2,1.3,1.7c-1.1,1.3-2,3.2-3.5,4c-11.6,6.3-23.3,12.5-35,18.7c-0.9,0.5-2,0.9-3.1,1.1
		c0.5,0,1.1,0,1.6,0c1.6,0,3.3-0.4,4.7-1.1C618.3,730.2,631.5,723.1,644.5,716.1z"/>
	<path d="M253,442.7c0.1,0.1,0.2,0.1,0.3,0.2c0,0,0,0,0,0C253.2,442.8,253.1,442.7,253,442.7z"/>
	<path d="M277.1,598.6c-0.4,5.1-0.8,9.8-1.1,14.5c2.6-0.7,5.2-1.4,8.2-2.3C281.6,606.4,279.3,602.5,277.1,598.6z"/>
	<path d="M760.4,460.8c-4.7-8.3-9.5-16.6-14.5-24.7c-3.5-5.6-7.4-11.1-11.1-16.6c8.6,15,17.2,30,26.7,46.6
		C760.9,463.1,760.9,461.7,760.4,460.8z"/>
	<path d="M689.8,340.4c-0.4,0.2-0.8,0.5-1.2,0.7c1,1.3,2,2.5,3,3.8C690.9,343.4,690.4,341.9,689.8,340.4z"/>
	<path d="M545.1,749.7c-0.6,0.1-1.3,0.3-1.9,0.4c0.1,0.2,0.1,0.5,0.2,0.7c0.6-0.1,1.2-0.2,1.8-0.2
		C545.2,750.3,545.2,750,545.1,749.7z"/>
	<path d="M516.3,749.9c0,10.4,0,20.4,0,31.2c8.6-0.7,17.6-1.5,27.5-2.3c-5.4-10.3-10.5-20.1-15.1-28.9
		C523.6,749.9,520.3,749.9,516.3,749.9z"/>
	<path d="M505.4,780.7c0-10.4,0-20.5,0-30.8c-2.2,0-4.2,0-7.2,0c0,10.5,0,20.6,0,30.8C500.3,780.7,502.9,780.7,505.4,780.7z"/>
	<path d="M321.7,756.9C321.7,756.9,321.7,756.9,321.7,756.9c0.1,0,0.3,0,0.4,0C322,756.9,321.8,756.9,321.7,756.9z"/>
	<path d="M726.4,406.3c0.6-0.4,1.2-0.7,1.8-1.1c-7-11.2-14-22.3-21-33.5C713.6,383.3,720,394.8,726.4,406.3z"/>
	<path d="M683.9,332.7c1.3,2.1,2.6,4.2,3.8,6.4c0.3-0.2,0.6-0.4,0.9-0.6c-1.3-2.1-2.6-4.2-3.9-6.3
		C684.4,332.4,684.1,332.5,683.9,332.7z"/>
	<path d="M729.1,406.9c-0.6,0.3-1.2,0.6-1.7,0.9c2.3,3.6,4.6,7.1,6.9,10.7C732.6,414.7,730.8,410.8,729.1,406.9z"/>
	<path d="M694.2,350.7c0.4-0.3,0.9-0.6,1.3-0.8c-1.2-1.4-2.4-2.9-3.6-4.3C692.7,347.3,693.4,349,694.2,350.7z"/>
	<path d="M696.5,352c-0.4,0.2-0.8,0.3-1.1,0.5c0.9,1.5,1.8,2.9,2.8,4.4C697.5,355.2,697,353.6,696.5,352z"/>
	<path d="M668.6,304.7c-0.2,0.1-0.3,0.2-0.5,0.4c0.6,1,1.2,1.9,1.8,2.9c0.3-0.2,0.5-0.4,0.8-0.5
		C669.9,306.5,669.2,305.6,668.6,304.7z"/>
	<path d="M681.4,326.2c0,0.1,0,0.1,0,0.2C681.5,326.4,681.4,326.3,681.4,326.2c-0.3-0.6-0.6-1.3-0.9-1.9c-0.2-0.5-0.4-1-0.6-1.5
		c-0.2,0.4-0.5,0.8-0.8,1.3c0.7,0.1,1,0.1,1.4,0.2C680.8,325,681.1,325.6,681.4,326.2z"/>
	<path d="M682.6,329.4C682.6,329.4,682.6,329.4,682.6,329.4C683,329.9,682.8,329.7,682.6,329.4z"/>
	<path d="M465.6,933.4c0.8-0.2,1.6-0.4,2.4-0.8c2.7-4.2,7.2-8.5,6.7-12.3c-0.5-4.1-6.6-7.4-10.2-11.1c-3.7,3.8-9.7,7.3-10.2,11.5
		c-0.5,3.8,4.9,8.3,7.8,12.5c0.1,0,0.2,0.1,0.4,0.1C463.5,933.4,464.6,933.4,465.6,933.4z"/>
	<path d="M666.8,301.5C666.8,301.5,666.8,301.5,666.8,301.5C666.8,301.5,666.8,301.5,666.8,301.5L666.8,301.5z"/>
	<path d="M663.1,294.5c-0.3,0.2-0.7,0.4-1,0.6c0.9,1.4,1.7,2.9,2.6,4.3c0.3-0.2,0.6-0.4,0.9-0.6C664.8,297.4,664,295.9,663.1,294.5z
		"/>
	<path d="M423.7,861.1c-3.3-1.9-5.9-4.9-8.7-7.4c-1.3,9.4-2.9,20.1-4.4,31c5.7,2.6,10.1,4.5,15.4,6.9c-0.4,1.8-1,4.4-1.7,7.3
		c-5.3-2.4-10-4.6-14.7-6.7c-1.2,0.7-2.4,1.5-3.5,2.2c3.6,6.4,7.3,12.9,10.9,19.3c0.8-0.4,1.6-0.8,2.4-1.2c-0.4,1.9-0.8,3.8-1.1,5.3
		c-4.8,2.6-9.4,5-14.5,7.7c-0.3,2.7-0.7,6.3-0.9,8.3c13.2,18.4,33.3,14.1,50.3,18.7c1.6,0.4,3.4,0.3,4.9,1
		c26.7,11.5,35.1-12.6,49.8-25.2c-2.9-7.1-5.6-14-7.5-18.7c-6.5,4.7-12.9,9.5-18.8,13.8c-4.9,3.1-9.2,7.4-13.5,9.3
		c-0.2,0.3-0.4,0.5-0.5,0.8c-0.6,0-1.3,0-1.9,0c-0.5,0.1-0.9,0.2-1.4,0.3c-0.5,0-1.1,0-1.7-0.2c-0.1,0-0.2,0-0.3,0
		c0,0-0.1-0.1-0.1-0.1c-4.1-1.3-9.2-6.4-10.4-10.3c-1.2-3.9,2.9-12.7,6.5-13.9c5.6-2,12.8,0.6,19.4,1.2c0.1,1.6,0.3,3.2,0.4,4.8
		c6.3-4.1,12.6-8.1,19.6-12.6c-1.3-3.2-2.8-7-4.5-11.2c-19.8-2.7-39.5-5.5-60.7-8.4c-0.8-0.9-2.6-3.2-4.4-5.4c0.4-1.3,0.8-2.7,1.1-4
		c21.2,3,42.4,5.9,63.8,8.9c2.3-7.3,4.6-14.4,6.9-21.5c2.3-0.7,4.6-1.3,7.5-2.1c-0.2-0.4-0.5-0.9-0.7-1.3
		c-24.4,4.8-48.7,9.6-73.6,14.6c2.1-17.4,4.2-34.5,6.2-51.5c-11.3,3.1-25.1,4.7-21.3,22.4c3.9-1.1,8.4-2.4,15.7-4.6
		c-1.7,7.6-2.6,13.6-4.4,19.2C428.6,859.2,424.6,861.6,423.7,861.1z M421.5,915.4C421,913.4,421,913.6,421.5,915.4
		C420.7,913.5,420.8,913.7,421.5,915.4z"/>
	<path d="M338.6,754.7c8.1,4.1,14.8,7.5,21.5,10.9c12.4-5.1,17.7-16.8,13.4-30.4c-9.5-5-19.4-10.2-31.2-16.5
		c0.4,0.6-0.6-0.9-1.5-2.4c0.8-1.4,1.5-2.6,2.3-3.9c-19-32.7-37.9-65.3-57.9-99.9c1.6,7.5,2.7,12.9,3.6,16.9
		c-6.8,0.8-13.9-0.5-16.4,2.3c-13.8,16-24.2,33.5-23.8,56.1c0.6,38.5-29.2,66-67.6,63.4c-34.4-2.3-60.4-35.5-55.3-70.7
		c5-34.4,39-58.6,72.3-51.8c17.3,3.5,30.5,12.7,40.5,26.5c15.1-3.7,28.9-36.2,26.9-62.5c2.1-0.7,4.3-1.5,6.9-2.4
		c-8.5-14.6-16.7-28.9-24.8-42.8c-58.8,20.7-117,41.2-175.3,61.7c-4.5,52.3-9,104.2-13.5,156.3c46.9,20.3,93.7,40.5,140.6,60.8
		c1.6-1.3,3-2.5,4.4-3.6c41.4-36.7,82.8-73.5,124.3-110.1c2.8-2.4,6.6-3.6,9.9-5.4c0.8,1.2,1.7,2.4,2.5,3.6
		c-18,24.5-44.1,40.6-66.2,60.8c-22.5,20.6-45.5,40.7-68.5,61.2c1.7,7.4,3.4,14.5,5,21.6c2.1-0.1,3.7-0.2,4-0.3
		c24.6,34.3,48.6,67.7,72.7,101.3c14.7-2.8,29.1-5.6,42.1-8.1c-3.9-10.1-6.8-20.2-11.6-29.4c-3.9-7.6-8.9-15.6-15.5-20.6
		c-11.5-8.7-19-18.7-18.5-33.1c0.4-14.5,7.7-25.4,21.1-31.6c13.5-6.3,26-3.1,41.2,6.9c2.1-17.4,4-32.5,6-48.8c-0.4,0.1-0.4,0.1,0,0
		c0.5-0.2,1.7-0.6,3.4-1.2c-18.1-11.9-35.3-23.1-52.6-34.4c6.9-5.9,11.7-10.1,15.8-13.5c6.3,3.5,11.7,6.4,17.6,9.7
		C337.1,752.6,338.3,754.4,338.6,754.7z"/>
	<path d="M354.2,854.4c2,27.6-2.9,36.3-31.6,48.1c5.5,14.3,11,28.6,16.6,43.2c19.8-3.8,37.3-7.2,54.6-10.5
		c5.8-36.9,11.5-73.2,17.2-109.7c-13.2-8.6-26.1-16.9-39.1-25.3c-1,2.2-1.4,4.2-2.6,5.4C356.1,819.3,352.9,836.4,354.2,854.4z"/>
	<path d="M682.6,329.5c0,0.1,0,0.2,0,0.2C682.6,329.6,682.6,329.6,682.6,329.5z"/>
	<path d="M359.3,800.4c0.4,0.4,0.7,0.8,3.3,3.8c-2-3.4-2.3-3.9-2.5-4.4C359.8,800,359.5,800.2,359.3,800.4z"/>
	<path d="M608.6,791.4c-42.6,0.5-85.1,0.6-127.7,1.2c-24.5,0.3-49,2.5-73.4,1.5c-9.2-0.4-18.3-6.8-27.3-10.9
		c-18.2-8.3-36.3-16.9-54.4-25.5c-0.4-0.2-0.7-0.6-1-1c0.9,1.2,1.6,2.6,2.8,3.3c28.5,18.8,56.8,37.9,85.7,56c3.3,2,10-0.8,14.9-2.1
		c3.2-0.8,6.3-2.3,10-3.9c-7.9-3.7-15.9-7.3-24.5-11.3c4.2-1,7.3-1.8,10.8-2.6c1,0.5,2.2,1.1,1.6,0.8c4.4,0,6.9,0,9.5,0
		c0-0.3,0-0.5,0-0.8c33.5,0,67,0,100.5,0c0-0.6,0-1.2,0-1.7c1.5,0.6,3.1,1.2,5.8,2.3c0.2-0.5,0.5-1.3,0.6-1.5
		c6.5,0.3,12.2,0.6,17.9,0.9c0-0.4,0.1-0.9,0.1-1.3c13.5,0,27,0,40.6,0c6.1-0.9,12.1-2.2,17.9-3.7
		C615.5,791.5,612,791.4,608.6,791.4z"/>
	<path d="M671,311.6c0-0.1,0.1-0.2,0.1-0.3C671,311.3,671,311.4,671,311.6L671,311.6z"/>
	<path d="M631.7,787.5c21.4-7.2,40.8-18.1,58.9-31.8c-3.3,2.1-6.9,4-10.5,5.8C663.9,769.8,648.1,779.4,631.7,787.5z"/>
	<path d="M536.1,930.1c0.3-0.2,0.5-0.3,0.6-0.4C536.6,929.8,536.4,929.9,536.1,930.1z"/>
	<path d="M787.2,792.3c-35.5-30.4-72.2-61.9-108.8-93.3c1.1-1.3,2.2-2.6,3.3-3.9c6.7,5.5,13.4,10.9,20,16.5
		c7.1,6,14.1,12.2,21.2,18.3c7,6,13.9,12,20.9,18c7.1,6.1,14.2,12.1,21.3,18.2c7.1,6,14.3,12.1,20.1,17c4,1.3,6.4,2,9.7,3.1
		c38.9-16.2,78.8-32.8,118.6-49.4c-5.4-41.9-10.8-83.6-16.3-125.9c-47-16.1-94.1-32.3-141.2-48.4c0.4-1.7,0.8-3.5,1.2-5.2
		c3.8-0.2,7.9-1.5,11.2-0.4c24.8,8.4,49.4,17.3,74.1,26c7.6,2.7,15.3,5.2,23.4,8c1.6-3.7,3.2-7.1,5-11.1c2.3-0.5,4.9-1.1,9.2-2.2
		c-24.7-4.9-48.7-9.6-71.2-14c0.6-4.5,1.2-8.9,1.8-13.3c-1.2,3.5-2.6,7-4.4,10.4c-4.9-1-9-1.9-12.7-2.7c3.9-9.5,7.5-18.3,11.1-27.2
		c-0.9-0.4-1.8-0.7-2.6-1.1c0.6-2.9,1.2-5.9,2.1-10.3c-10.3-1.5-19.9-2.9-29.5-4.3c-0.1,0.6-0.2,1.3-0.3,1.9c-1.1-0.5-2.2-1-2.7-1.2
		c-2.3,11.3-4.5,22.8-6.8,34.3c-2.8,0.7-4.8,1.2-7.1,1.7c-28.7,51.5-57.5,103.3-86.4,155.1c0.8,0.5,1.6,0.9,2.5,1.4
		c-1.1,0.8-2.1,1.7-3.2,2.5c0.4,0.7,0.8,1.4,1.2,2.1c-21.9,12-43.7,24-63.8,35c1.8,8.8,3.7,17.8,6.2,30.1
		c32.7-10.6,62.5-26.4,87.3-52.1c0.6,0.6,2.3,2.2,3.9,3.9c1.2,1.3,2.3,2.8,3.4,4c-1.8,5.3-4.4,9.5-7.7,13.1c3-2.6,6.1-5.2,9-7.9
		c24.2,26.1,50.3,54.3,76.7,82.8c2.5-1.2,5.1-2.4,7.6-3.5C780.9,812,790.9,801.3,787.2,792.3z M761.1,790.3c-3.8-4.2-6-6.7-8.4-9.3
		c2.8-1.6,4.8-2.7,6.8-3.9c1.7,0,3.6,0,7.2,0C764.9,781.5,763.3,785.2,761.1,790.3z"/>
	<path d="M967.2,337.2c-5.8-2-10.6-3.7-15.5-5.4c-0.4,3.9-0.8,8.5-1.3,13.9c2.3-0.5,4.1-0.9,5.9-1.2c0.1,0.6,0.2,1.2,0.4,1.8
		c3.6-0.5,7.3-1.1,11.4-1.7c0.5-4.6,0.9-9.3,1.4-13.9C968.8,332.6,968.1,334.7,967.2,337.2z"/>
	<path d="M276.5,974.5c3.3-10.6,1.4-18.6-5.4-27.5c-21-27.8-41.1-56.3-64.1-83.1c-2.1-4-6-8-6.1-12c-0.3-13.1-5-19.2-21-23.8
		c-1.3,3.9-2.5,7.8-4,12.4c-2.1-1.7-3.6-3-5.1-4.2c0.6-4.2,1.2-8.2,1.8-12.2c-0.8-0.1-1.6-0.3-2.4-0.4c-1.7,6.2-3.4,12.5-5.4,20
		c-3-2.6-5.2-4.5-6.5-5.6c2.3-6.9,3.9-11.8,5.7-17.3c-4.9-2.2-9.1-4.1-14.6-6.5c-1,5.8-1.8,10.8-2.6,15.8c0.7,0.1,1.3,0.3,2,0.4
		c-0.6,2-1.2,4.1-2.2,7.3c18.7,8.3,37.4,16.6,56.1,25c2.4,1.1,4.8,3.3,6.1,5.6c22.6,39.9,45.1,79.9,67.8,120.3
		c0.7-0.1,1.5-0.3,2.2-0.4C277.5,983.5,275.3,978.5,276.5,974.5z M174.5,841.6l-0.1-0.2l0.2,0L174.5,841.6z"/>
	<path d="M801.2,490.4c-12.1,5-20.9,8.6-30.3,12.5c0,0.5,0,3,0,3.5c11.6,1.3,22.5,2.5,35.9,4C804.8,503.2,802.9,496.4,801.2,490.4z"
		/>
	<path d="M960.5,239c-2.6,27.6-5.4,56.3-8.2,85.2c1.8,0,3.1,0,4.5,0c0,0.8-0.1,1.5-0.1,2.3c4.2,0.4,8.3,0.7,13.1,1.2
		c3.3-33,6.6-66,9.9-99C974.5,233.7,964.9,232.7,960.5,239z"/>
	<path d="M535.6,929.8C536.3,928.5,536.2,928.6,535.6,929.8L535.6,929.8z"/>
	<path d="M503.4,891.8c1.4,11.5,8.2,22.3,12.9,34.1c7.2-0.3,14.2-0.7,22.4-1c-0.4,2.7-0.9,5.7-1.4,9.2c-7.6,0-15,0-22.3,0
		c0.9,0.7,1.7,1.4,2.6,2.1c-9.5,8.2-19.9,15.6-28.1,25c-2.6,3,0.7,11.2,1.3,17c0.2,2,0,4-3.1,7.4c-3.3-6.2-6.7-12.4-11.3-21.1
		c-14.8-1.3-31.7-2.8-48.7-4.5c20.8,9.7,41.5,19.5,62.3,29.3c0.3,0,0.6,0,0.8,0c18.4-20,36.8-39.9,55.5-60.2
		c-12.6-22.8-25.2-45.5-37.9-68.6C506.1,871.2,502.2,881.8,503.4,891.8z"/>
	<path d="M415.2,956.1c-10.4-13.6-23.4-13.4-38-9.2c-8.2,2.4-16.9,3.4-25.1,5c2.2,6.3,4.3,12.3,6.4,18.4c-1.3,0.6-2.7,1.2-4,1.8
		c-3.6-6-7.3-12-11.1-18.4c-3.7,0.6-7.3,1.3-10.9,1.9c2.8,5.2,5.4,9.8,8.3,15.2c-0.3,0.9-0.6,2.3-1.4,5.2c3.8-0.8,7.5-1.5,11.3-2.3
		c24-4.8,48-9.7,72-14.5C419.7,958.8,416.6,957.9,415.2,956.1z"/>
	<path d="M817.8,498.4c-0.2,0-0.4,0-0.5-0.1c0,1.4,0,2.8,0,4.2C817.4,501.2,817.6,499.8,817.8,498.4z"/>
	<path d="M823.3,349.5c24.8,0,45-19.5,45-43.6c0-26.9-19.1-47.3-44.4-47.4c-24.2-0.1-45,20-45,43.4
		C779,329.9,797.3,349.5,823.3,349.5z"/>
	<path d="M938.8,750.4c-1.3,0-2.2,0.3-2.7,0c-14.3-11.6-26.8-2.3-39.7,3.1c-11.3,4.7-22.6,9.2-31.1,12.6c-2.2,8.3-3.9,14.3-5.5,20.4
		c-6.4-2.7-12.8-5.5-21.3-9.1c0.7-0.3-1.2,0.4-3.4,1.3c-0.4,3.3-0.7,6.5-1.1,9.6c1.8,1,3.3,1.9,4.8,2.7c1.3,1.4,2.6,2.8,3.9,4.3
		c-2.9,0.9-7.4,3.4-8.3,2.4c-3.8-3.9-6.4-8.9-9.7-13.8c0.5-0.5-1.4,0.6-1.5,1.9c-0.3,5.4-0.1,10.8-0.1,16.2c1.2,0.4,2.4,0.7,3.6,1.1
		c-0.5,0.5-1,1-1.5,1.4c37.9-17.6,75.9-35.1,114.1-52.8c-0.1-0.7-0.2-1.4-0.3-2.1C939,749.7,938.9,750.1,938.8,750.4z"/>
	<path d="M566.8,128.2c-2.3,22.1-4.6,43.7-6.9,65.7c9.2,4.1,18.3,8.2,29.7,13.4c3.5,0.1,7.1,0.1,10.6,0.2
		c9.2,0.2,18.1,7.4,27.3,10.9c5.4,2.1,11.1,3.4,13.1,4c17.9,9,32.7,16.4,47.5,23.8c0,0,0-0.1,0-0.1c0,0-0.1,0-0.1,0
		c-0.7-1-1.2-2.2-2.1-2.8c-30.1-21.5-60.2-42.9-91.1-64.9c-7.1,4.3-14.2,8.6-21.6,13.1c-2.2-1.8-4.5-3.7-8.2-6.8
		c10-5.4,18.3-9.8,27.1-14.6c1-6.9,2.2-14.4,3.8-24.9c-8,3.6-14.4,6.4-20.9,9.2c0.1,1.2,0.2,2.4,0.3,3.6c-2.1-1.4-4.2-2.8-7.5-5.1
		c4.3-5,7.9-9.2,12.2-14.1c0.7-0.2,2.4-0.7,2.4-0.7c5.5,1,9.3,1.7,13.8,2.5c0.7-3.9,1.3-6.9,1.5-8.1c-7.1-3.3-13.3-6.3-19.6-9.2
		c0.5-1.1,0.9-2.3,1.4-3.4c0.6-0.2,1.2-0.4,1.7-0.6h0c0.2-0.1,0.4-0.1,0.5-0.2c0.3-0.1,0.4-0.1,0,0c-0.1,0-0.3,0.1-0.5,0.2
		c8.1,1.9,12.8,3.1,17.9,4.3c3.1-20.4,5.9-39.2,8.9-58.7c-7.4-5.2-14.9-10.5-22.7-16c-0.8,2.1-1.3,3.8-2.2,6.2
		c-20-7.3-40-14.6-59.6-21.8c-8.4,10.1-15.5,18.6-22.7,27.3c4.5,12.7,8.9,25.2,13.7,38.5c10.3,1.6,21,3.2,33.1,5
		c-2.4-3-3.9-4.8-5.1-6.3c0.7-4,1.4-7.7,2-11.3c-16-3.5-22.4-13.9-13.7-22.8c3.3-3.4,11.4-5.8,15.1-4c2.9,1.4,5.8,5.2,7.3,9
		c1.4,1.1,2.9,2.3,4.6,3.4c-1.3,0.8-2.4,1.7-3.5,2.5c-0.2,9.7-3,19.5-4.8,29.9c8.4,1,17.5,2.1,27,3.2c-0.8,3.3-1.5,5.9-2.4,9.6
		c-19.9-3.1-39.7-6.2-59.9-9.3c-3.3,8.5-6.4,16.7-9.9,26c-2.9-3.1-5.2-5.6-7.6-8.1c3.9-7.3,7.3-13.9,11-21
		c-4.6-12.3-9.8-26.1-15.5-41.3c-0.6,2.8-0.9,4-1.6,7.2c-8.7-2.3-17.2-4.6-25.7-7c0.3-1.3,0.6-2.6,0.9-4c1.7-0.5,3.4-1,3.7-1.1
		c0.1,0,0.1,0,0,0c-0.1,0-0.2,0-0.3,0.1c9.5,0.6,15.4,1,21.6,1.4c7.4-16.5,32.9-25.2,20-48.8c-19.8,17.6-39.5,35.1-58.2,51.7
		c15.9,29.9,28.7,53.9,41.5,78.1C518.1,137,542.1,132.6,566.8,128.2z"/>
	<path d="M964.4,366.6c-5.5-2.3-10.3-4.3-15.4-6.4c-0.6,6.4-1.3,13.2-2,20.7c2.5-0.5,4.3-0.8,6-1.1c0,0.6,0,1.2,0,1.7
		c3.6,0.3,7.2,0.5,11.4,0.8c0.8-8,1.6-15.9,2.4-23.9C966,361.1,965.2,363.8,964.4,366.6z"/>
	<path d="M959.3,419.8c-6.4-3.9-12-7.4-18.9-11.6C884.9,425,828,442.1,770.7,459.4c-2.2-2.5-4.3-4.8-7.1-7.9
		c58.3-17.2,115.4-34.1,172.9-51.1c5.2-54.5,10.4-108.5,15.5-162.9c-48.7-20.3-97.1-40.5-146.7-61.1
		c-43.7,37.4-87.7,75.2-132.3,113.4c-1.5-1.9-2.2-2.9-3.4-4.5c7-7.5,13.9-14.9,20.9-22.4c9.4-7.9,18.9-15.7,28.2-23.7
		c24.3-20.9,48.5-41.9,72.9-62.8c4.8-4.1,7.2-24.2,3.3-29.2c-14.3-18.1-28.7-36.2-43-54.3c-13-16.5-26-33.1-38.9-49.6
		c-32.2,6.6-64,13.1-96.1,19.7c-5.5,36.5-11,72.8-16.4,109.1c10.6,7.4,20.7,14.6,30.9,21.5c1.3,0.9,3.5,1.1,5.1,0.8
		c13.8-2.8,27.4-20.9,26.2-35c-0.1-1.6-1.9-3.2-3.2-4.4c-11.6-10-16.4-22.5-12.7-37.4c3.5-14.3,13-23.3,27.4-26.2
		c14.6-3,26.5,2,35.8,13.6c12.4,15.6,10.3,44.9-15.9,55.3c-4.3,22.9-8.5,44.8-12.9,68.3c4.2,2.9,11.2,7.7,18.8,13
		c-1.2,3-2.5,6.4-4.3,10.9c0.1,0.2,0.2,0.8,0.3,0.9c-2.1,3.7-3.7,6.6-5.3,9.6c-12.9-9-25.7-17.9-38.8-27c-9.6,19.5-9,27.4,0.4,38.1
		c2.4,2,4.7,4.2,7.3,6c2.9,2.1,6.1,3.8,9.4,5.9c-1.5,2.2-2.5,3.6-3.7,5.4c33.4,57.3,66.9,114.7,100.4,172.2c1.8-0.1,3.3-0.2,5.7-0.3
		c0,9.7,0,19.2,0,32.3c12.1-7.8,22.8-14.7,34.2-22.1c0-5.2,0-11.3,0-18.1c4-0.9,8.1-1.8,14.4-3.2c-0.1,0.7-0.2,1.4-0.3,2.1
		c46.8-10.2,93.7-20.4,140.9-30.7c0.4-3.8,0.8-7.6,1.1-11.5C960.7,414.6,960.1,417,959.3,419.8z M758,360.6
		c-6.6,15.4-9.7,32.3-14.3,48.6c-0.4,1.4-0.9,2.8-2.6,8.1c-5.1-10.5-8.6-17.9-11.9-24.6c-3.1-3.7-5.8-6.9-10-11.9
		c6.4,0,9.9,0,16.6,0c9.1-17.8,18.9-37.2,29.1-57.2c-11.9-44.2,18.6-84.1,63.2-81.4c26.5,1.6,50.6,22.3,56,48
		c5.9,28.1-7,56.4-31.9,68.7c-23.8,11.8-46.5,9.4-67.6-6.9C774.2,343.7,764.5,345.4,758,360.6z M898.6,422.9
		c3.7-1.1,5.8-1.6,9.2-2.6c0.2,3.8,0.4,6.7,0.8,13.4C903.9,428.6,901.6,426.2,898.6,422.9z"/>
	<path d="M797.4,794.5c-0.7,7.9-1.4,15.6-2.1,23.8c7.7-3.6,15.4-7.1,23.1-10.7c-1.4-1.6-2.4-2.7-3.1-3.4c0-6.1,0-11.2,0-17
		C809.2,789.6,803.4,792,797.4,794.5z"/>
	<path d="M921.9,733.8c5.2,2.1,10.5,4.3,16.1,6.6c-1-8.4-2-16.8-3.1-25.3c-0.5,2.4-1.1,4.7-1.6,7.3c-3.9,0.5-8.1,1-12.7,1.5
		C920.9,726.5,921.4,730,921.9,733.8z"/>
	<path d="M917.7,597.9c-8,4.4-12.5,9.3-11,19.3c3.8,26.6,7,53.3,10.4,80c0.2,1.2,0.5,2.4,0.7,3.8c4.2-1.5,8.1-2.9,11.3-4.1
		c1.3,0.7,2.6,1.4,3.8,2.1c-4.2-34.5-8.4-69-12.5-103.6C919.6,596.4,918.8,597.3,917.7,597.9z"/>
	<path d="M880.5,577.7c-3.1,6-5.3,10.4-7.8,15.2c2,0.8,3.5,1.4,4.9,2c-1.1-1.3-2.3-2.6-3.4-3.9c4-3.2,8-6.3,12-9.5
		c1,0.9,2,1.9,2.9,2.8c-1.3,4.1-2.6,8.3-4,13c4.7,1.6,9.2,3.2,12.5,4.3c7.7-5.8,14.7-11.1,21.6-16.3c0,0,0,0,0-0.1
		C906.2,582.7,893.3,580.2,880.5,577.7z"/>
	<path d="M138.3,830.1c-0.5,0-1.7,0.2-3.3,0.3c-1.5-1.8-3.1-3.6-3.8-4.5c3.7-5.2,6.8-9.6,10.9-15.3c-32.4-11.4-60.8-29-92.8-36.7
		c-0.4,1.2-0.9,2.4-1.3,3.6c-0.4,0.5-0.9,1-1.1,1.3l0,0c-0.3,0.4-0.3,0.3,0,0c-6.9,1.4-11.9,2.6-16.9,3.2c-2.5,0.3-5.7,0.3-7.5-1
		c-0.3-0.2-0.5-0.6-0.7-0.9c-0.1,0.7-0.2,1.4-0.2,2.2c38.1,16.9,75.9,33.7,113.8,50.5c3.5,1.6,7.1,3.1,10.6,4.7
		C143.1,834.7,140.8,832.6,138.3,830.1z"/>
	<path d="M961.8,408.3c0.6-6.1,1.2-12.2,1.8-18.3c-5.8-0.9-11.4-2.6-17.1-4.1C942.7,397.3,945.8,406.8,961.8,408.3z"/>
	<path d="M702.7,36.3c3-0.5,5.6-1,7.5-1.4c3.9-5.3,3-13.5,6-19.3c-4.7,0.9-9.7,1.9-14.8,2.9c-1.1,0.2-2.1,0.4-3.2,0.7
		C699.8,25.3,701.2,30.5,702.7,36.3z"/>
	<path d="M685.4,21.9c4.9,17.7,4.9,17.7,10.3,15.3c-0.7-2.5-1.3-5-2.2-7.4c-0.8-2.3-1.9-4.6-3.3-8.1c1.8-0.7,3.7-1.3,5.5-2
		C692.2,20.5,688.8,21.2,685.4,21.9z"/>
	<path d="M728.3,25.5c-1.1-1.9-1.9-4-2.9-6.3c-2.3,5.9-4.6,11.7-7,17.8c18.9,23.5,37.6,47,56.5,70.5
		C760.9,79.4,743.9,52.8,728.3,25.5z"/>
	<path d="M808.2,168.1c22.7,9.4,45.2,18.7,69.2,28.7c-1.8-2.6-2.5-3.7-2.6-3.8c1.4-5.4,2.5-10.1,4-16.1c-7.2-3.2-14.4-6.3-21.6-9.5
		c-10-4.4-19.7-10-30.1-12.9c-8-2.3-14.9-5.6-21.1-9.6C806.8,152.8,807.5,160.5,808.2,168.1z"/>
	<path d="M977.3,220.2c-16.6-7.3-33.2-14.6-49.6-21.8c-2.2,6.1-4.1,11.3-6.2,16.9c11.2,4.7,23.1,9.6,34.6,14.4
		C963.3,226.4,970.1,223.3,977.3,220.2z"/>
	<path d="M680.7,22.9c-31,6.6-62,13.2-93,19.7c3.2,1.3,6.3,2.7,9.2,4.5c7.2,4.5,13.4,9.7,23.4,6.5c12-3.8,24.7-5.3,36.3-7.7
		c-0.5-5.1-1-9.9-1.5-14.6c2.4-0.7,4.1-1.2,6.4-1.8c-0.3,10.7,2.5,17.8,14.1,12.1C679.2,36,673.2,26.4,680.7,22.9z"/>
	<path d="M553,68.8c-5.3-4.2-8.9-7.7-11.9-7.3c-4.1,0.6-9.8,6.7-10.2,10.8c-0.3,3.3,6.1,9.7,10,10.2c3.3,0.3,7.1-3.4,13.1-7.8
		c0-0.3,0-0.6,0-1C554.1,72.2,553.7,70.5,553,68.8z"/>
	<path d="M522.7,24.2c20.1,6.8,39.1,13.3,58.1,19.7c0.1-0.2,0.2-0.4,0.3-0.6c-0.5-0.1-1-0.2-1.5-0.4c-21-10-41.8-20.2-62.7-30.3
		C518.3,14.8,520,18.4,522.7,24.2z"/>
	<path d="M224.7,488.9c-5.8-0.2-14.6,2-16.9,6c-4.6,8.1-4.7,17.6,9.7,17c0.4,1.1,0.8,2.2,1.6,4.4c5.1-1.1,10.2-2.1,15.4-3.2
		C236.2,500.7,232.1,489.1,224.7,488.9z"/>
	<path d="M50.1,767c2.4-27.9,4.9-56,7.3-84c2-23.1,3.2-46.2,6-69.1c1.6-12.7-9.3-14.3-14.9-20.7c-1.5-1.7-3.2-3.4-5.9-6.2
		c4.5-0.8,7.1-1.3,10.1-1.8c5.8,4.8,11.8,9.8,18.3,15.2c4.1-1.3,8.6-2.8,12.7-4.1c-0.9-5.4-1.7-10.4-2.5-15.7
		c2.7-0.8,4.7-1.4,6.8-2.1c0.8,5,1.6,9.7,2.5,15c2.4-0.7,4-1.2,6.4-1.9c-1.4-6.4-2.7-12.6-4.3-19.7c1.4-0.4,4.1-1.2,8.1-2.4
		c0.9,6.9,1.7,13,2.6,20c14.2-5.1,28.3-10.1,42.5-15.2c-7.6-3.9-12.6-6.5-17.6-9.1c0.3-1.1,0.6-2.2,1-3.3
		c-28.8,6.2-57.6,12.3-86.4,18.5C36,644.8,29.2,708.9,22.5,773.3C32.6,771,41.6,769,50.1,767z"/>
	<path d="M191.2,440.2c-3,10.8-5.8,21.3-8.7,31.8c0.9,0.3,1.7,0.7,2.6,1c0,22.9,0,45.7,0,69.6c0.7,1.2,2.2,3.5,4,6.5
		c-19.6,4.2-39.1,8.4-58.5,12.5c4.3,0.6,8.8,0.8,12.6,2.5c1.6,0.7,1.8,5,3.2,10c32.1-11.5,64.1-23,96.3-34.5c-0.6-1.2-1-2.1-1.5-3.1
		c-2.2,0.3-4.3,0.5-7.9,1c0.7-4.6,1.2-8.5,2-13.8c-3.2,1.3-5.3,2.2-7.4,3.1c-0.4-1.1-0.7-2.1-1.1-3.2c-7.2,2.5-14.3,5-21.5,7.4
		c0.4,1.2,0.7,2.5,1.1,3.7c-1.1-0.3-2.2-0.5-3.3-0.8c-0.3,3.3-0.6,6.6-1,10.4c-4,0.8-8.1,1.7-13,2.8c0-13.2,0.3-25.6-0.1-38
		c-0.4-15.4-2.1-30.9-1.6-46.3c0.3-7.5,3.5-15.4,7.1-22.1c1.1-2,8.2-0.7,12-0.9c-2.8,8.9-5.2,16.8-7.3,23.5c2.7,3.8,4.2,5.9,5.8,8.1
		c1.5-0.1,3-0.2,4.7-0.3c0.4,1.7,0.7,3.1,1.2,5.5c7.2,1.2,14.8,2.5,22,3.7c1-9.8,2.1-20.4,3.1-31c2-0.4,3.5-0.7,6.6-1.2
		c-43.7-16.9-86-33.3-128.4-49.7c-7.3,4.8-14.3,9.5-21.7,14.5c-2.3-2.5-4.4-4.7-6.9-7.5c7-4.1,13.4-7.8,20.2-11.7
		c-1-8.3-2-16.5-2.6-21.9c-8-2-14.6-3.7-21.3-5.3c0.2-1.5,0.3-2.9,0.5-4.4c6.2-2.5,18.8,7.5,18.8-6.9c-5-0.6-9.4-1.2-13.7-1.7
		c0.1-0.9,0.3-1.8,0.4-2.7c4-2.2,8-4.3,11.9-6.5c-0.8-6.5-1.4-12-2.2-17.9c-2.1,3.1-3.9,5.7-8.5,12.3c-4.4-5.3-7.8-9.3-13.1-15.7
		c8-4,13.4-6.7,20-10c-1.8-15-3.8-32.2-5.8-48.9c-6.6-3.7-12.8-7.1-21.2-11.7c5.5-1.8,8-2.6,10.9-3.6c10,7.6,20,6.8,31.6,1.5
		c33-15,66.5-28.8,100.5-43.4c0.7-6.4,1.5-13.1,2.3-20.1c-48.5,21.2-96.9,42.3-145.6,63.6c5.5,55.5,11,110.9,16.6,166.7
		C121.2,424.8,157,432.7,191.2,440.2z"/>
	<path d="M202.8,518.3c0.3-0.2,0.5-0.4,0.8-0.7c-0.8-1-1.5-2.1-2.3-3.1c-0.4,0.2-0.8,0.5-1.2,0.7C201,516.2,201.9,517.3,202.8,518.3
		z"/>
	<path d="M331.6,234.6c6.5-3.2,13.1-6.2,19.3-9.9C344.3,227.9,337.9,231.2,331.6,234.6z"/>
	<path d="M921.9,195.8c-2.4-1.1-4.9-2.1-7.3-3.2c-1.9,6-3.7,11.5-5.6,17.2c0.9,0.4,2.6,1.1,5.3,2.3
		C916.6,207.1,918.8,202.3,921.9,195.8z"/>
	<path d="M220.3,207.1c37,31.5,73.5,62.7,110.2,94c-0.9,3.2-1.6,6.1-2.5,9.5c-2.8-1.2-4.8-2.1-6.9-2.9c0,0.3,0,0.5,0,0.7
		c0,0.2,0,0.3,0,0c0-0.2,0-0.4,0-0.7c0,0,0,0,0,0c-0.5,1.4-0.3,0.7,0,0l0,0c0,0,0,0,0,0l0,0c-0.4-1.1-0.5-2.6-1.3-3.3
		c-34.5-30-69-59.9-103.7-90c-38.9,16.6-77.7,33.2-116.9,50c4.8,41.8,9.6,83.3,14.5,125.3c35.7,13.6,71.4,27.4,107.3,40.8
		c8.6,3.2,17.7,5.2,26.5,8.1c2.2,0.7,3.9,2.8,5.8,4.2c16-27.5,31.9-54.9,47.9-82.4c10.9-18.7,21.8-37.3,32.8-56
		c-2.2-2.7-4.4-5.3-7.8-9.5c6.9-6,13.6-11.8,18.9-16.4c-4.9-8.2-10.1-16.8-16-26.6c5.7-1.6,8-2.3,10.3-3
		c11.7,25.7,12.6,26.2,30.8,17c-6.2-8.9-12.5-17.8-19.6-27.9c-14.1,11.7-36.3,12.4-44.4,34.7c-3.8-4.3-6.9-7.9-10.1-11.4
		c4.4-6.5,9.7-11.4,15.4-15.5c-0.3,0.2-0.7,0.4-1,0.6c-6.4,3.8-11.2,10.3-17.4,16.1c-22.1-24.9-45.5-51.3-69-77.8
		C222.8,192.8,221.6,200,220.3,207.1z M295.8,352.4l0.2-0.2l0.1,0.3L295.8,352.4z M302.5,340.7l0.2-0.2l0.1,0.3L302.5,340.7z
		 M306.8,332.3C306.8,332.3,306.8,332.2,306.8,332.3c0,0.4,0,0.9-0.1,1.4c0,0,0,0,0.1,0c0,0-0.1,0.1-0.1,0.1l0.1-0.1c0,0,0,0,0,0
		l0,0c-0.3,1.1-0.2,0.6,0,0c-0.2,0.2-0.2,0.3-0.3,0.4c-0.1,0.2-0.2,0.2,0,0c0.1-0.1,0.2-0.2,0.3-0.3c0,0,0-0.1,0-0.1
		c-0.3-0.3-0.7-0.6-1-0.8c0.3-0.2,0.7-0.5,1-0.7c0,0,0.1-0.1,0.1-0.1C306.8,332.1,306.8,332.2,306.8,332.3z M310.2,328.6
		C310.1,328.6,310.1,328.7,310.2,328.6C310.1,328.7,310.1,328.7,310.2,328.6C310.1,328.7,310.1,328.7,310.2,328.6
		C309.6,329.4,309.8,329.1,310.2,328.6c-0.2,0.1-0.3,0.2-0.3,0.3c-0.2,0.1-0.2,0.2,0,0C309.9,328.8,310,328.8,310.2,328.6
		C310.1,328.6,310.1,328.6,310.2,328.6c0-0.1-0.1-0.1-0.1-0.2l0,0c0,0,0,0,0,0c-0.2-0.1-0.1-0.1,0,0c-0.1-0.2-0.1-0.1,0,0
		c0.1,0,0.1,0,0.2,0.1C310.2,328.5,310.2,328.5,310.2,328.6c0.1-0.1,0.1-0.1,0.1-0.1L310.2,328.6z M313.6,321.8
		c-0.1-0.1-0.1-0.2-0.2-0.3c0.3-0.2,0.5-0.4,0.8-0.6c0.1,0.1,0.2,0.2,0.3,0.4C314.1,321.4,313.9,321.6,313.6,321.8z M315.2,318.1
		c0,0-0.2-0.2-0.2-0.2l0,0l0-0.1l0.2,0.1l-0.1,0L315.2,318.1z M317.6,316l-0.1,0l-0.2-0.1c0,0,0.1,0,0.2,0c0.2-0.2,0.4-0.5,0.7-0.7
		c0.1-0.1,0.2-0.3,0.3-0.4c0-0.1,0-0.1,0-0.2c-0.1-0.2,0,0,0.1,0.1c0,0-0.1,0-0.1,0l0.1,0c-0.1,0.2-0.3,0.3-0.4,0.5
		C318,315.5,317.8,315.7,317.6,316z"/>
	<path d="M909.1,190.2c-6.8-3-13.6-6-20.4-9c0.7,7.3,1.3,14.1,2,21.2c5.1,2.1,10,4.1,16.6,6.7c-1.9-2.8-2.8-4-3.2-4.7
		c1.3-4.8,2.4-9.2,3.7-13.9C908.1,190.4,908.6,190.3,909.1,190.2z"/>
	<path d="M885.8,200c-4-3-4.9-3.6-5.8-4.2c-0.2,0.6-0.5,1.1-0.7,1.7C880.2,197.8,881.2,198.2,885.8,200z"/>
</g>
</svg>
