<?xml version="1.0" encoding="utf-8"?>
<!-- Generator: Adobe Illustrator 19.1.0, SVG Export Plug-In . SVG Version: 6.00 Build 0)  -->
<svg version="1.1" id="Layer_1" xmlns="http://www.w3.org/2000/svg" xmlns:xlink="http://www.w3.org/1999/xlink" x="0px" y="0px"
	 viewBox="0 0 113.6 110.8" style="enable-background:new 0 0 113.6 110.8;" xml:space="preserve">
<g>
	<circle cx="58.4" cy="34.1" r="1.8"/>
	<path d="M85.6,84c0.2-0.2,0.3-0.3,0.3-0.5c1.9-3.4,3.1-7,3.2-11c0.1-2.2,0.1-4.5-1.1-6.5c-0.8,0.2-5,8.8-7.8,12.1
		C83.2,79.2,84.9,81.1,85.6,84z"/>
	<circle cx="66.5" cy="31.1" r="1.8"/>
	<path d="M90.7,42.3c-0.3-4.1-1.8-7.4-5.1-9.9c-3.9-2.9-8.2-4.8-12.9-5.9c-1.7-0.4-8-0.8-9.3-0.5c-0.9,0.2-1.9,0.3-2.8,0.5
		c-3.2,0.6-6.4,1.3-9.6,1.9c-0.3,0.1-0.5,0.3-0.8,0.5c-0.2,0.2-0.4,0.5-0.7,0.6c-2,1-3.6,2.4-4.7,4.3c-0.4,0.8-0.5,1.4-0.1,2.3
		c1.2,2.3,3.5,2.7,5.7,3.3c0.9,0.3,1.9,0.3,2.9,0.5c3.2,0.5,6.3,1.1,9.5,1.6c0.2,0,0.6-0.1,0.7-0.2c0.6-0.8,1-1.7,0.9-2.7
		c-0.1-1-3.2-1.7-4.4-1.9c-0.5,0.3-1,0.5-1.6,0.5c-1.7,0-3.1-1.4-3.1-3.1c0-1.7,1.4-3.1,3.1-3.1c1.7,0,3,1.3,3.1,2.9
		c0,0,0.1,0.1,0.1,0.2c0,0,0,0,0,0.1c3.9,0.3,6,3.5,3.7,8.2c0.8,0.3,1.7,0.6,2.5,0.9c0.1,0,0.3,0,0.3,0c0.7-0.6,1.6-1,2-1.7
		c0.8-1.7,1.2-3.5,0.6-5.4c-0.1-0.4-0.4-0.9-0.7-1.2c-0.5-0.5-1.1-1-1.7-1.5c-0.5,0.4-1.1,0.6-1.8,0.6c-1.7,0-3.1-1.4-3.1-3.1
		c0-1.7,1.4-3.1,3.1-3.1s3.1,1.4,3.1,3.1c0,0.2,0,0.5-0.1,0.7c0.1,0.1,0.3,0.2,0.5,0.3c2.4,1.2,2.8,4.4,2.8,4.8
		c0.3,3.1-0.3,5.8-3.1,7.9c4,1.5,8.8,5.5,10.9,6c2.1,0.6,5.8-0.1,7.2-1.1c1-0.7,1.9-1.2,2.3-2.7C90.5,45.1,90.8,43.3,90.7,42.3z"/>
	<path d="M89.6,84.6c1.1-0.4,2.1-0.9,2.8-1.9c0.8-1.2,1.1-2.5,1.2-3.9c0.1-0.7,0-1.4-0.1-2c-0.1-0.7-0.5-0.8-1.1-0.4
		c-0.4,0.3-0.7,0.7-1,1.1c-1.4,2.1-1.4,4.7-2.4,7C89.3,84.6,89.5,84.7,89.6,84.6z"/>
	<path d="M46.8,8.9c-0.3,0.8-1,1.1-1.6,1.6c-0.8,0.7-1.6,1.5-2.5,2.2c-4.6,3.4-8.6,7.4-12.2,11.8c-0.1,0.1-0.4,0.6-0.5,0.7
		c-0.8,1.2-0.7,1-1,1.7c-0.1,0.1-0.3,0.4-0.3,0.7c-0.1,0.2-0.1,0.3-0.2,0.6c-1.1,2.7-1.8,5.3-0.6,8c0.4,0.9,1.2,1.8,2.1,2.4
		c0.8,0.5,1.9,0.6,2.8,0.8c0-0.1,0.1-0.1,0.1-0.2c-0.3-0.2-0.6-0.4-0.8-0.7c-1-0.8-2.1-2.5-2.5-3.8c-0.9-2.3-0.4-3.8,0.5-6.2
		c0-0.1,1.5-2.3,2.3-3.1c2.2-2.6,11.1-8.7,13.3-10.1c2.3-1.2,4.7-2.6,7-3.7c2.1-1,4.2-1.9,6.2-2.9c0.1-0.1,0.3-0.2,0.5-0.3
		c-1.3-0.1-2.4,0.9-3.6,0.1c-2.6-0.1-5.2-0.1-7.8-0.1C47.6,8.4,46.9,8.6,46.8,8.9z"/>
	<path d="M38.1,11.1c2.7-1.6,5.4-3.2,8.2-4.8c0.7-0.4,1.4-0.9,1.8-1.8c-0.4,0-0.6,0.1-0.9,0.1c-7.3,1.1-14,3.6-20.3,7.5
		c-2.6,1.6-4.6,3.5-5.4,6.5c-0.1,0.2-0.1,0.4-0.2,0.6c-0.2,0.6-0.3,1.2-0.5,2c0.3-0.1,0.4-0.2,0.6-0.3
		C26.9,17.6,32.5,14.3,38.1,11.1z"/>
	<path d="M19.1,20.9c0-1,0.5-2.1,0.7-3.1c-0.1,0-0.1-0.1-0.2-0.1c-1.7,1.6-2.4,3.7-2.9,5.8C17.9,22.9,19.1,22.6,19.1,20.9z"/>
	<path d="M53.3,6c0.1,0,0.3-0.1,0.3-0.2c0.4-0.5,0.8-1,1.2-1.6c-2.4-0.5-4.2,0.1-5.3,1.8C50.9,6,52.1,6,53.3,6z"/>
	<path d="M85.5,23.3c0-0.1,0-0.2,0-0.2c-0.1-0.1-0.2-0.2-0.3-0.2c-5.5-3.2-10.9-6.3-16.4-9.5c-0.8-0.4-1.7-0.8-2.5-0.9
		c-1.4-0.2-2.9,0-4.4-0.1c-2.3-0.1-4.5-0.1-6.6,1.1c-0.5,0.3-1,0.3-1.4-0.1c-0.1-0.1-0.4-0.1-0.6-0.1c-0.4,0.1-0.9,0.3-1.3,0.5
		c-2,1-10.4,6.3-11.9,7.3c-1.7,1.2-1.4,0.9-2.9,2.3c-1.6,1.6-3.3,3.1-4.5,5c-1.2,1.8-1.7,3.1-0.9,5.6c0.4,1.4,3.3,3,4,2.9
		c0.3-0.6,0.5-1.2,0.8-1.7c2.1-3,4.7-5.6,8.3-6.8c2.7-0.9,5.3-1.8,8.1-2.4c7.3-1.7,14.7-2.4,22.2-2.6c1.8,0,6.6-0.1,6.7-0.1
		C82.9,23.3,84.2,23.3,85.5,23.3z"/>
	<path d="M28.3,72.1c0,7.2,6,13.1,13.3,13.1c7.3,0,13.1-5.7,13.1-12.9c0-7.3-6-13.2-13.4-13.2C34.1,59.1,28.3,64.9,28.3,72.1z"/>
	<path d="M78.8,87.8c0.3,1.1,0.4,2.2,0.7,3.4c0.8-0.7,2.9-3.1,3-3.1c0.8-0.4,1.4-1.4,1.2-2.2c-0.4-1.3-0.8-2.6-1.3-3.8
		c-0.4-0.9-1.3-1.4-2.2-1.8c-0.2-0.1-0.6,0.1-0.9,0.2c-0.7,0.4-1.3,0.8-1.9,1.2c-0.4,0.2-0.7,0.5-0.5,1c0.1,0.4,0.5,0.7,0.5,1
		c-0.2,0.7,0.4,1.1,0.6,1.7C78.3,86.2,78.6,87,78.8,87.8z"/>
	<path d="M58.5,82.4c0.5,0.8,1.1,1.3,2,1.5c1.9,0.6,3.7,0.5,5.5-0.1c0.7-0.2,1.4-0.4,2-0.7c0,0,6.3-3,6.8-3.3
		c0.7-0.4,2.9-2.3,3.6-2.8c1.1-0.9,1.8-2.3,2.9-4c0.5-0.8,0.9-1.7,1.2-2.6c1.2-4.1,1.7-8.2,1.1-12.4c-0.1-0.7-0.1-1.1-0.4-2
		c-0.3-0.9-1.2-1.6-1.9-2.3c-2-2-4.2-3.7-6.6-5c-7.6-4.3-15.8-5.8-24.4-5c-1.5,0.1-3,0.4-4.6,0.7c0.8,0.9,1.4,1.7,2.1,2.5
		c0.5,0.6,0.8,1.3,0.8,2.1c0,1.6-0.2,3.1-0.8,4.6c-0.1,0.3-0.2,0.7-0.4,1c0.2,0.1,0.4,0.2,0.5,0.2c10,4,14.5,14.5,10.5,24.4
		C57.9,80.4,57.7,81.3,58.5,82.4z"/>
	<path d="M60.7,4.5c-1.9-0.7-3.5-0.1-4.7,1.5C58.6,6.4,59.9,5.9,60.7,4.5z"/>
	<path d="M44.6,46.3c-0.5-0.4-0.9-0.9-1.4-1.4c-0.9,0.3-1.9,0.6-3.1,1c3.3,1.8,3.8,4.6,3.3,7.8c0.5,0.1,1,0.1,1.4,0.3
		c0.6,0.2,0.8-0.1,1-0.5c0.5-1.3,0.5-2.7,0.3-4C46,48.2,45.6,47.1,44.6,46.3z"/>
	<path d="M77.2,92.8c0.5-0.4,0.5-1,0.2-1.3c-0.9-0.8-1-1.9-1.2-2.9c-0.3-1.5-1.3-2.4-2.3-3.3c-0.1-0.1-0.3-0.1-0.5-0.2
		c1.8,2.6,2.5,5.4,2.4,8.6C76.3,93.3,76.7,93.1,77.2,92.8z"/>
	<circle cx="62.2" cy="93" r="1.7"/>
	<path d="M36.8,51.1c-0.1-0.7-0.5-1-1.3-1c-0.5,0.1-1-0.1-1.3-0.5c-0.1-0.1-0.4-0.2-0.6-0.1c-0.9,0.4-1.8,0.8-2.6,1.4
		c-2,1.6-3.9,3.2-5.5,5.2c-5.3,6.8-7,14.4-4.4,22.8c0.9,3,2.5,5.6,4.4,8c4,5.1,9.5,8.2,15.3,10.5c5.4,2.1,11.1,2.7,16.8,2.2
		c4.8-0.4,9.4-1.4,13.8-3.5c0.7-0.3,2-2.6,2.1-3.3c0.2-1.3-0.4-2.3-0.6-3.4c-0.4-1.7-1.9-2.6-3-3.8c-0.2-0.2-0.6-0.4-0.9-0.3
		c-1.2,0.2-2.4,0.4-3.6,0.6c-1.9,0.4-3.9,0.6-5.8,0.5c-0.5,0-1.1-0.2-1.6-0.4c-1-0.4-2.1-0.9-3-1.3c-1.1,0.9-2.3,1.8-3.5,2.7
		c-0.8,0.6-1.1,1.2-0.9,2.3c0.6,2.4,3,4.7,5.8,3.7c0.6-0.2,1.3-0.4,2-0.7c0.1,0,0.1-0.1,0.2-0.1c0.1-1.7,1.6-3.1,3.3-3.1
		c1.9,0,3.4,1.5,3.4,3.4s-1.5,3.4-3.4,3.4c-1,0-1.8-0.4-2.4-1.1c-0.7,0.7-1.4,1.1-2.3,1.3c-1,0.2-1.9,0.1-2.9-0.1
		c-1-0.2-5.3-2.6-6-3.6c-0.7-0.9-1.3-1.9-2-3c0,0,0,0,0,0c-0.2,0-0.4,0.1-0.6,0.1c-3.8,0.9-7.6,0.6-11.2-0.8
		c-7.3-2.9-11.8-9.9-11.6-17.9c0.2-7.5,5.3-14.3,12.6-16.8c1.4-0.5,1.6-0.8,1.5-2.3C37,51.9,36.8,51.5,36.8,51.1z"/>
	<path d="M104.9,44.1c0.1,0,0.1-0.1,0.2-0.1c-0.4-1.1-0.6-2.3-1.2-3.2c-0.8-1.1-2-1.8-3-2.7c-0.1,0.1-0.1,0.1-0.2,0.2
		c0,0.7,0,1.4,0,2C102.8,40.8,103.7,42.7,104.9,44.1z"/>
	<path d="M11.4,50.9c-0.1,2,0.8,3.4,2.6,4.2c0.5,0.2,1,0.5,1.5,0.7c2,0.8,4,0.6,5.8-0.7c2.3-1.7,4.7-3.3,7-4.9
		c0.9-0.6,1.9-1.2,2.8-1.7c0.8-0.4,1.7-0.7,2.6-1.1c4.6-2.5,9.5-4.1,14.7-4.7c2-0.2,4-0.4,6-0.5c0,0,0,0-0.1,0
		c-4.7-0.7-9.3-0.8-14-0.5c-2.9,0.2-5.8,0.7-8.8,0.8c-4.2,0.2-8.8-3.7-9.3-5.3c-0.1-0.2-0.4-0.9-0.5-1.3c-0.1-0.4-0.1-0.7-0.1-1.1
		c0.1-0.7,0.3-1.9,0.8-3.1c0.8-1.8,1.5-2.9,2.4-4.3c1.2-1.8,1.9-2.5,2.8-3.8c1.9-2.5,4.3-4.5,6.4-6.8c0.1-0.1,0.2-0.3,0.4-0.6
		c-0.3,0.2-0.5,0.2-0.6,0.3c-5.6,3.3-11.3,6.6-16.9,10c-0.3,0.2-0.6,0.5-0.8,0.8c-0.4,0.6-0.7,1.2-1,1.8c-1.2,2.3-2.4,4.6-3.8,6.8
		c-0.6,1-0.9,2-0.9,3.1c0,2.5,0,5.1,0,7.6c0,1.1,0,2.3,0,3.5C11.4,49.9,11.4,50.4,11.4,50.9z"/>
	<path d="M95.2,44.6c-0.2-0.6-0.6-1.2-0.9-1.7c-0.3,1.1-1.1,4.7-1.4,5.4c-0.4,0.8-0.9,1.6-1.3,2.5c-0.1,0.3-0.3,0.5-0.3,0.8
		c-0.2,1.4-0.5,2.9-0.6,4.3c-0.2,2.9,0.6,11.5,0.7,12.6c0,0.9,0.2,1.8,0.2,2.7c0,1.2,0,2.4,0,3.6c1-0.1,2.2-0.9,3,0.2
		c0.6,0.8,0.9,1.9,1.3,2.8c0.6-1,1.2-2.2,2-3.2c1-1.3,1-2.6,1-4.1c-0.1-4.3-1.1-18.3-1.7-19.9C96.3,48.7,95.9,46.6,95.2,44.6z"/>
	<path d="M101.8,43c-0.2-0.3-0.6-0.5-1-0.9c0,0.4,0,0.7,0,0.9c0.1,9.4,0.3,18.9,0.3,28.3c0,1.6,0.7,2.7,1.3,4.2
		c0.5-1.4,0.9-2.6,1.3-3.8c2.4-7.1,3.1-14.4,2.2-21.9c0-0.3-0.1-0.7-0.3-1c-0.5-0.8-1-1.6-1.5-2.4C103.4,45.4,102.6,44.2,101.8,43z"
		/>
	<path d="M95.1,83.6c-0.1,0.1,0,0.3,0,0.4c0.3,0.8,0.7,1.5,1.2,2.5c0.6-1.1,1.6-2,1.8-3.1c0.2-1.1,0.2-2.4-0.6-3.7
		C96.7,81,95.9,82.3,95.1,83.6z"/>
	<path d="M87.9,24.4c-0.2-0.1-6.1,0.7-6.8,0.7c-0.8,0.4-0.7,0.9-0.8,1.2c0,0.4,0,0.4,0.6,1.1c0.1,0.1,0.3,0.2,0.4,0.2
		c2.7,1.5,10.7,7.7,12,9.4c1.1,1.5,1.9,3.3,2.8,4.9c0.5,0.9,1,1.8,2.1,2.2c0-0.3,0.1-0.6,0.1-0.9c0-1.6,0-3.1,0-4.7
		C98.3,35.1,95.7,29.7,87.9,24.4z"/>
	<path d="M86,14.6c-6.2-4.7-13.2-7.8-20.8-9.5c-1.7-0.4-2.6,0.5-3.8,1.4c0.6,0.3,1.1,0.4,1.5,0.6c3.4,2,6.8,3.9,10.2,5.9
		c3.7,2.1,7.3,4.3,11,6.3c3.7,2,7.1,4.5,11.1,6c0.7,0.3,1.3,0.8,2.2,1.3C94.2,21.8,90.4,17.9,86,14.6z"/>
	<path d="M92.5,86.5c-8.8,5.4-17.7,10.7-26.5,16.1c-1.4,0.9-3,1.5-3.9,3c-0.3,0.5-0.8,0.8-1.3,1.3c0.2,0,0.2,0.1,0.3,0.1
		c0.2,0,0.3,0,0.5,0c6.9-0.9,13.4-3.1,19.4-6.7c4.8-2.8,9-6.3,12.6-10.4c0.9-1,1.1-3.2,0.3-4.3C93.4,85.8,92.9,86.2,92.5,86.5z"/>
	<path d="M100,80.5c1.2-1.4,1.3-3.6,0.2-5.1c-0.6,0.9-1.1,1.9-1.6,2.6C99.1,78.9,99.5,79.7,100,80.5z"/>
	<path d="M10.6,73.7c0.1,0,0.1,0,0.2,0c0.1-1.8,0.8-3.5,1.5-5c0.8-1.6,1.6-3.1,2.4-4.7c-1.2-1.2-2.8-0.7-4.2-1.4
		C10.6,66.4,10.6,70,10.6,73.7z"/>
	<path d="M8.1,73c0-8.7,0-17.4,0-26.1c0-4.4,0-8.7,0-13.1c-0.1,0-0.1,0-0.2-0.1c-0.1,0.2-0.2,0.5-0.3,0.7C4.9,40.4,3.5,46.6,3.1,53
		c-0.4,7.3,0.7,14.3,3.3,21.1c0.4,1,0.8,1.2,2,1C8.3,74.4,8.1,73.7,8.1,73z"/>
	<path d="M61.6,102.2c1-0.5,1.9-1.1,2.8-1.6c0-0.1,0-0.1-0.1-0.2c-5.9,1.3-11.9,1.3-17.9,0.3c1.4,1.1,2.3,1.4,3.9,1.6
		c3.4,0.2,6.8,0.1,10.3-0.1C60.9,102.2,61.3,102.4,61.6,102.2z"/>
	<path d="M15.9,62.2c0.6-0.8,1.2-1.6,1.6-2.4c0.1-0.2,0.2-0.7,0-0.9c-0.3-0.4-0.8-0.7-1.2-0.9c-1-0.4-2.1-0.8-3.2-1.1
		c-0.7-0.2-1.6,0.1-1.8,0.7c-0.3,0.9-0.5,1.9-0.7,2.8c0,0.2,0,0.4,0,0.7C12.7,60.1,14.2,61.4,15.9,62.2z"/>
	<path d="M11.7,80.4c-0.7-1.1-1.3-2.1-2-3.2c-0.1-0.1-0.3-0.3-0.5-0.3c-0.5,0-0.9,0.1-1.4,0.2C8.6,79.7,10,80.9,11.7,80.4z"/>
	<path d="M13,82.5c-0.1-0.1-0.2-0.2-0.4-0.2c-0.7,0-1.4,0-2.1,0c0.7,1.8,1.8,2.5,3.9,2.5C14,84,13.5,83.3,13,82.5z"/>
	<path d="M40,105.2c1.4,0.4,2.9,0.8,4.3,1.1c0.1,0,0.2,0,0.2,0c1-0.6,2-1.2,3.1-1.8c-0.9-0.5-1.6-0.9-2.3-1.3
		C43.7,104.2,41.9,104.7,40,105.2z"/>
	<path d="M42.7,101.7c-8.1-4.5-16.3-9-24.4-13.5c-1.5-0.9-3.2-1.1-4.9-1.5c0.1,0.2,0.1,0.4,0.2,0.5c2.2,2.7,4.4,5.3,7,7.5
		c2.8,2.4,5.7,4.6,9,6.2c2.1,1,4,2.5,6.5,2.4c2.4,0,4.8,0,7.2-1.2C43.1,101.9,42.9,101.8,42.7,101.7z"/>
</g>
</svg>
