<?xml version="1.0" encoding="utf-8"?>
<!-- Generator: Adobe Illustrator 19.1.0, SVG Export Plug-In . SVG Version: 6.00 Build 0)  -->
<svg version="1.1" id="Layer_1" xmlns="http://www.w3.org/2000/svg" xmlns:xlink="http://www.w3.org/1999/xlink" x="0px" y="0px"
	 viewBox="0 0 114.5 112.8" style="enable-background:new 0 0 114.5 112.8;" xml:space="preserve">
<g>
	<path d="M47.1,88c0,2.2,0,4.5,0,6.7c0,0.4,0.1,1,0.4,1.3c0.3,0.3,0.8,0.4,1.2,0.7c0.1-0.3,0.4-0.6,0.4-1c0.1-1.4,0-2.7,0.1-4.1
		c0-1.7-0.7-3.1-1.8-4.5C47.2,87.5,47.1,87.7,47.1,88z"/>
	<path d="M68.9,85.4c0.1-1.2-0.9-2.2-2.1-2.2l-6.7,0.1c-2.7,0-5.5,0-8.2,0c-0.5,0-1,0-1.2,0.6c-0.3,0.6-0.2,1,0.1,1.5
		c0.7,1,1.4,2,2,3c0.3,0.5,0.6,0.6,1.1,0.6c3.7,0,7.4-0.1,11.1,0c1.6,0.1,2.6-0.7,3.3-1.9C68.7,86.7,68.9,86,68.9,85.4z"/>
	<path d="M51.1,94.3c0,1.3,0,2.6,0.1,3.9c0,0.2,0.2,0.4,0.4,0.5c1,0.6,2.1,1.3,3.2,1.9c0,0,0.1,0,0.2-0.1c-1.2-2.1-2.4-4.3-3.6-6.5
		C51.2,94.2,51.1,94.2,51.1,94.3z"/>
	<path d="M41,92.2c0.7,0.8,1.3,1.5,2.6,2.1c0.2,0.1,0.4,0.2,0.6,0.2c0.2,0.1,0.4,0,0.7,0c0.1,0,0.2-0.4,0.2-0.6
		c-0.1-3.2-0.1-6.5-0.3-9.7c-0.1-1.3-0.5-2.7-1.2-3.8c-2.4-4.5-4.9-8.9-7.4-13.4c-1.1-2-2.2-4-3.4-6.1c-1.1,1.8-1.8,3.5-1.8,5.5
		c0,0.9-0.1,1.9,0.3,2.7c0.9,1.8,1.2,3.6,1,5.4c-0.1,1.1-0.5,2.3-1,3.3c-0.6,1.1-1.7,1.1-2.3,0c-0.5-0.9-0.9-1.9-1-3
		c-0.4-2.6,0.9-4.8,1.3-7.2c0.1-0.6,0.2-1.2,0.3-1.8c0.4-2.2,1-4.4,2.2-6.4c0.1-0.2,0.1-0.5,0-0.7c-1.4-2.6-2.9-5.2-4.3-7.7
		c-0.3-0.1-0.6-0.1-0.8-0.1c-0.2,0-0.5,0.1-0.5,0.2c-0.2,0.7-0.6,1.4-0.6,2.1c-0.2,7-0.3,14-0.5,20.9c0,0.6-0.1,1.3,0.1,1.8
		c0.6,2.1,1.3,4.2,2.1,6.2c0.3,0.8,0.9,1.6,1.3,2.4c0.5,1.1,1.3,1.7,2.3,2.1l7.2,4.2c-0.2-0.6-0.4-1.2-0.5-1.7
		c-0.3-1.1-0.4-2.2-1-3.2c-1.4-2.4-1.5-4.8-0.9-7.4c0.2-0.7,0.5-1.3,0.9-1.8c0.6-0.8,1.5-0.8,2,0c0.4,0.5,0.6,1.1,0.8,1.6
		c0.7,2.3,0.5,4.6-0.2,6.8c-0.2,0.5-0.2,1.2-0.2,1.7C39,88.9,39.8,90.7,41,92.2z"/>
	<path d="M65.1,100.7c0.1,0.1,0.1,0.1,0.2,0.2c0.3-0.2,0.6-0.3,0.9-0.5c0.4-0.2,0.7-0.5,1.1-0.7c0.6-0.3,1.1-0.8,1-1.3
		c-0.2-0.7-0.5-1.4-0.7-2.1C66.8,97.8,66,99.3,65.1,100.7z"/>
	<path d="M38.3,78.4c-0.5-1-1.4-1-2,0c-0.5,0.8-0.7,2-0.6,3c0.1,1.5,0.8,3.4,1.6,3.5c0.2,0,0.5-0.1,0.7-0.2c0.2-0.2,0.2-0.4,0.4-0.7
		C39.2,82.1,39.2,80.2,38.3,78.4z"/>
	<path d="M20.5,80.2c0-1.5,0-3-0.9-4.3C19.2,77.5,19.9,78.8,20.5,80.2z"/>
	<path d="M28,45.2c8.2,0,16.5,0,24.7,0c0.3,0,0.5,0,0.8,0c0.1-1.5-0.2-1.7-1.3-1.7c-7.2,0-14.4,0-21.5,0c-0.3,0-0.6,0-0.9,0
		c-0.1,0.3-0.1,0.5-0.2,0.9c-0.7-0.6-1.6-1-1.9-1.7c-1.6-2.9-3.1-5.9-4.6-8.9c-0.4,0-0.8,0-1.2,0c-0.2,0.9,0,1.7,0.4,2.4
		c1.6,2.7,3.1,5.5,4.6,8.3C27.1,45,27.4,45.2,28,45.2z"/>
	<path d="M23.1,45.1c-0.3-2.3-1.6-4-2.5-6c-0.9,0.8-1.2,1.7-1.2,2.8c0,9.6,0,19.2,0,28.8c0,0.2,0,0.5,0,0.7c0.6-0.2,1.1-0.4,1.6-0.5
		c0.4-0.1,0.7,0,0.8,0.5c0.2,1.4,0.4,2.8,0.5,4.2c0.1,1.2,0.2,2.5,0.2,3.7c0.1,0,0.2,0,0.4,0c0-2,0-4,0-6c0-3,0.2-5.9,0.2-8.9
		C23,58.1,23.9,51.6,23.1,45.1z"/>
	<path d="M69.6,29.2c-0.2-0.2-0.4-0.3-0.6-0.5c-3.6-2.8-7.1-5.6-10.7-8.4c-2.2-1.7-4.3-3.4-6.5-5.1c-0.4-0.3-0.9-0.5-1.4-0.7
		c-0.2-0.1-0.6,0.2-0.6,0.3c0,0.6,0,1.2,0.2,1.7c0.1,0.3,0.5,0.4,0.8,0.7c2.3,1.8,4.6,3.7,7,5.5c1.8,1.4,3.8,2.6,5.7,3.8
		c1.9,1.1,3.9,2,5.8,3C69.6,29.3,69.6,29.3,69.6,29.2z"/>
	<path d="M81.6,9.4c-0.7-0.3-1.4-0.6-2.2-0.9c0.3,0.7,0.5,1.2,0.6,1.6C80.5,9.8,81,9.6,81.6,9.4z"/>
	<path d="M57.8,10.1c-0.7,0.4-1.5,0.8-2,1.4c-0.8,1-0.8,2.1-0.2,3.3c0.1,0.2,0.2,0.4,0.3,0.7c0.1,0.3,0.2,0.6,0.4,0.8
		c6.1,4.8,12.2,9.6,18.3,14.4c0.3,0.2,0.7,0.4,1,0.3c0.5,0,1.3,0.4,1.6-0.3c0.3-0.7-0.4-1.1-0.8-1.5c-1.8-1.7-3.5-3.4-5.4-5.1
		c1-0.7,1.8-1.3,3-1.3c3,0,6,0,9,0c0.3,0,0.6,0,0.9,0c0-0.1,0.1-0.2,0.1-0.2c-0.3-0.3-0.6-0.6-0.9-0.8c-0.8-0.4-1.7-0.6-2.3-1.4
		c-0.1-0.1-0.3-0.2-0.4-0.2c-0.5-0.2-1.2-0.3-1.5-0.7c-0.6-1-1.8-0.7-2.6-1.4c-0.7-0.6-1.6-1-2.3-1.4c-0.6-0.4-1.2-0.8-1.8-1.2
		c-0.8-0.5-1.6-0.9-2.4-1.4c-0.5-0.3-1-0.5-1.5-0.7c-0.7-0.4-1.4-0.8-2-1.1c-0.3-0.1-0.5-0.3-0.8-0.5c-0.5-0.3-1.1-0.7-1.6-1
		c-0.3-0.2-0.7-0.4-1-0.6c-0.4-0.2-0.9-0.4-1.3-0.7c-0.7-0.5-1.6-0.5-2.3,0C58.7,9.7,58.2,9.8,57.8,10.1z"/>
	<path d="M71.1,7.6c0.4-1,0-1.8-1-2c-2.8-0.3-5.5-0.6-8.3-1c-0.3,0-0.5,0-0.8,0c0,0.1,0,0.1,0,0.2c3,1.7,6.1,3.5,9,5.1
		C70.4,9.1,70.8,8.4,71.1,7.6z"/>
	<path d="M65.9,33.8c-0.5,0-1,0.1-1.4,0.4c-2,1.6-4,3.2-6,4.9c-1.2,0.9-2.3,1.9-3.5,2.9c-0.6,0.5-0.6,1.7-0.1,2.2
		c0.5,0.5,1.1,0.4,1.8-0.1c3.5-3.2,7.1-6.4,10.6-9.6c0.2-0.2,0.4-0.3,0.6-0.4c0-0.1-0.1-0.1-0.1-0.2C67.2,33.8,66.5,33.7,65.9,33.8z
		"/>
	<path d="M99.5,65.8c1.3-0.4,1.7-0.9,1.7-2.2c0-2.9,0-5.9,0-8.8c0-4.6,0-9.2,0-13.8c0-0.9-0.4-1.1-1-0.6c-0.6,0.5-1.1,1.1-1.5,1.7
		c-2.5,4.2-4.9,8.5-7.4,12.7c-1.6,2.8-3.1,5.6-3.8,8.8c-1.3,5.7-1.5,11.5-1.2,17.3c0.1,2.2,1,3.8,2.4,5.3c0.7,0.8,1.3,0.7,2.1,0
		c0.2-0.2,0.4-0.4,0.7-0.6c1.1-0.6,2.2-1.1,3.2-1.7c0.8-0.5,1.7-1,2.5-1.4c0.8-0.4,1.6-0.7,2.3-1.3c1-0.8,1.6-2,1.7-3.2
		c0.1-3.1,0-6.2,0-9.3c0-0.2-0.1-0.5-0.2-0.5c-0.2,0-0.6,0-0.7,0.2c-0.3,0.5-0.7,1-0.8,1.6c-0.3,1.2-0.3,2.4-0.7,3.6
		c-0.4,1.4-0.9,2.8-1.7,4c-1.5,2.3-3.6,2.3-5.1,0c-0.5-0.7-0.9-1.4-1.2-2.2c-1.4-3.8-1.5-7.7-0.8-11.6c0.3-1.9,0.9-3.7,2.1-5.3
		c1.5-2,3.4-2,4.9,0c1,1.3,1.5,2.7,1.8,4.2C99.1,63.7,99.3,64.7,99.5,65.8z"/>
	<path d="M73.2,11.8c1.1,0.6,2.2,1.2,3.3,1.9c0.5,0.3,0.8,0.3,1.2-0.2c0.9-1,0.8-3.2-0.1-4.7c-0.4-0.6-0.9-0.9-1.6-1
		C75.8,8,75.8,8,75.8,8.1c-0.4,1.2-0.4,1.2-1.4,0.5c-0.5-0.3-0.7-0.2-0.9,0.4c-0.2,0.6-0.4,1.1-0.6,1.7
		C72.5,11.2,72.6,11.5,73.2,11.8z"/>
	<path d="M78.6,69.7c-0.4-1.4-0.7-2.7-1.8-3.7c-2.5-2.2-4.9-4.5-7.4-6.8c-0.7-0.7-1.4-0.7-2.2-0.5c-0.9,0.2-1.6,1.6-1.3,2.5
		c1,2.8,0.9,5.7-0.4,8.4c-0.7,1.4-1.7,2.6-2.6,4c0.4,0.4,1,0.8,1.8,0.9c0.7,0,0.9,0.2,0.6,0.9c-0.1,0.3-0.2,0.6-0.5,0.7
		c-0.7,0.5-1.2,1.2-2.1,1.5c-1.4,0.4-1.7,0.3-1.8-1.2c0-0.5-0.1-1.1-0.2-1.7c-0.5,0.2-0.9,0.4-1.3,0.5c-2.5,1-5,1.1-7.5,0.3
		c-4.5-1.5-7.5-5.5-7.6-10.2c-0.1-4.6,2.6-8.8,6.9-10.6c4.3-1.7,9.2-0.6,12.4,2.9c0.6,0.7,1.1,0.7,1.6-0.1c0.1-0.2,0.3-0.5,0.4-0.7
		c0.3-0.4,0.2-0.7-0.1-1c-2-1.8-3.9-3.6-5.9-5.3c-0.6-0.5-0.5-0.8-0.1-1.3c2.4-2.8,4.7-5.6,7.1-8.5c1.8-2.2,3.7-4.4,5.6-6.7
		c-0.8-0.2-1.4-0.1-2,0.5c-3.8,3.5-7.7,6.9-11.5,10.4c-0.8,0.8-1.6,1.7-2.4,2.5c-0.1,0.1-0.3,0.1-0.5,0.1c-0.3,0-0.7,0-1,0l-24.1,0
		c-0.6,0-1.1,0.3-1.2,0.9c0,0.7,0,1.5,0.3,2.1c5.6,10.2,11.3,20.3,17,30.4c0.2,0.4,0.5,0.5,0.9,0.5c8.2,0,16.4,0,24.6,0
		c0.5,0,0.6-0.2,0.8-0.6c1.6-2.7,3.1-5.5,4.7-8.1C78.6,71.6,78.9,70.7,78.6,69.7z M67.4,77.9c-0.3,0.6-0.8,1.1-1.3,1.5
		c-0.5,0.4-1,0.3-1.5-0.2c-0.5-0.5-0.2-0.9,0-1.3c0.5-0.7,1.2-1,1.9-1.1C67.5,76.8,67.8,77.2,67.4,77.9z"/>
	<path d="M82.3,70.9c-0.2,0.4-0.4,0.9-0.4,1.4c0.2,2.4,0.3,4.8,0.6,7.2c0.4,3.2,1,6.5,1.6,9.7c0,0.2,0.2,0.5,0.3,0.7
		c0.1,0,0.2,0,0.3-0.1c-0.2-7.2-0.5-14.4-0.8-21.6C83.3,69.1,82.7,69.9,82.3,70.9z"/>
	<path d="M72.1,97c1-0.6,2-1.1,2-2.4c0-2.6,0-5.2,0-7.8c0-0.3-0.1-0.5-0.2-0.8c-0.1,0-0.2,0-0.3,0c-0.5,1.1-1.4,1.9-1.4,3.3
		c0,2.3-0.1,4.6-0.1,6.9C72.1,96.4,72.1,96.6,72.1,97z"/>
	<path d="M85,33.8c-0.4,0-0.7,0.1-1.1,0.3c-1.2,0.5-2.2,1.3-3,2.4c-1.1,1.6-2.4,3.1-3.5,4.8c-0.3,0.5-0.4,1.1-0.5,1.7
		c0.1,0,0.2,0.1,0.3,0.1c0.2-0.1,0.4-0.3,0.7-0.4c0.5-0.1,1-0.2,1.5-0.3c-0.1,0.5-0.1,1.1-0.4,1.5c-0.6,0.9-1.4,1.7-2.1,2.6
		c-0.1,0.1-0.6,0.1-0.7,0c-0.2-0.3-0.3-0.7-0.4-1c-0.1-0.3,0-0.6,0-1.1c-0.6,0.3-1.2,0.4-1.5,0.7c-0.7,0.9-1.4,1.8-1.9,2.8
		c-0.3,0.6-0.3,1.4,0.2,2c1,1.3,2,2.6,3.1,3.8c2.1,2.3,4.3,4.5,6.5,6.8c0.6,0.6,1.2,1.1,1.8,1.7c5.4-9.4,10.8-18.8,16.2-28.2
		c-0.3,0-0.4-0.1-0.6-0.1C94.7,33.8,89.8,33.8,85,33.8z"/>
	<path d="M94.6,60.2c-1.3,0-1.9,1.1-2.4,2.1c-0.9,1.8-1.1,3.7-1.1,6c0.1,0.7,0.1,1.8,0.4,2.9c0.3,1.2,0.7,2.3,1.3,3.3
		c1.1,1.8,2.6,1.7,3.8,0c0.3-0.5,0.6-1,0.8-1.6c0.3-1.4,0.7-2.7,0.8-4.1c0.2-2.3-0.1-4.5-1.1-6.6C96.5,61.2,95.9,60.2,94.6,60.2z"/>
	<path d="M29,70.5c-0.3,1-0.5,1.3-0.6,2.9c-0.1,1.6,0.2,2,0.6,2.9c0.4,1,1.4,1,1.9,0.1c1-1.9,1-3.9,0-5.9
		C30.4,69.5,29.4,69.5,29,70.5z"/>
	<path d="M20.5,27.4c0.7-0.4,1.5-0.8,2.2-1.2c0.7-0.4,1.3-0.9,2-1.3c1.5-0.8,3-1.7,4.4-2.5c0.7-0.4,1.3-0.8,1.9-1.2
		c1.4-0.8,2.9-1.6,4.4-2.5c0.7-0.4,1.4-0.8,2.1-1.2c1-0.6,2-1.1,3-1.7c0.9-0.5,1.7-1,2.6-1.5c0.6-0.3,1.1-0.7,1.7-1
		c1.4-0.8,2.9-1.6,4.3-2.4c0.8-0.4,1.5-0.9,2.3-1.3c0.8-0.4,1.6-0.8,2.3-1.2c1-0.6,2-1.3,3-1.9c1-0.6,2.1-1.2,3.2-1.8
		c-6-0.2-11.8,0.8-17.4,2.9c-10.6,3.9-19.1,10.5-25.4,19.9c-0.5,0.7-1,1.5-1.4,2.3c0.7-0.3,1.5-0.5,2-0.8
		C18.4,28.6,19.5,28,20.5,27.4z"/>
	<path d="M81.8,65.7c-0.2-1.9-0.6-3.6-2.1-5c-3.8-3.5-7.5-7.1-11.2-10.6c-0.5-0.5-0.5-0.8-0.1-1.3c3.8-4.7,7.6-9.5,11.4-14.3
		c0.2-0.2,0.3-0.4,0.5-0.7c-0.3,0-0.4,0-0.6,0c-3.1-0.2-5.4,1.3-7.4,3.5c-2.5,2.7-4.7,5.7-7.1,8.4c-1.1,1.2-1.1,2.5-0.6,3.8
		c0.9,2.2,2.1,4.4,3.9,6.1c0.4,0.4,0.9,0.7,1.4,1c0.2,0.3,0.3,0.6,0.6,0.8c2.3,2.1,4.6,4.3,6.9,6.4c1.2,1.1,2.4,2.2,3.7,3.4
		C81.4,66.6,81.8,66.1,81.8,65.7z"/>
	<path d="M95.1,28.9c-0.6-0.5-1.3-0.9-1.9-1.4c-0.1-0.1-0.2-0.1-0.3-0.1c-0.7-0.4-1.4-0.7-2-1.1c-0.6-0.3-1.1-0.7-1.6-1
		c-0.4-0.2-0.8-0.4-1.2-0.4c-3.2,0-6.4-0.1-9.5,0c-0.4,0-0.9,0.5-1,0.8c-0.1,0.6-0.6,1.2,0.1,1.8c1.1,1,2.1,2,3.3,3
		c0.3,0.3,0.8,0.5,1.2,0.5c4.2,0,8.5,0,12.7,0c0.2,0,0.4,0,0.7,0c-0.2-0.2-0.3-0.4-0.4-0.6C95.8,29.6,95.8,29.4,95.1,28.9z"/>
	<path d="M55.9,105.4c-1.5-0.8-3-1.6-4.4-2.5c-0.6-0.4-1.2-0.8-1.9-1.2c-1.5-0.8-3-1.6-4.4-2.5c-1-0.6-1.9-1.2-2.9-1.7
		c-1.5-0.8-3-1.6-4.4-2.5c-0.6-0.4-1.2-0.8-1.9-1.2c-1.5-0.9-3-1.7-4.5-2.5c-1-0.6-1.9-1.1-2.9-1.7c-1.5-0.8-3-1.6-4.4-2.5
		c-0.7-0.4-1.3-0.8-2-1.2c-0.6-0.4-1.3-0.7-2-1.1L15.7,83c1.8,3,4,5.9,6.5,8.7c7.4,8,16.7,13,27.4,15.2c3.3,0.7,6.7,1.1,10.1,0.8
		c-0.7-0.4-1.5-0.8-2.2-1.3C57,106.1,56.4,105.7,55.9,105.4z"/>
	<path d="M14.8,81.4c0.1-0.9,0.4-2,0.4-2.8c0-0.5,0.2-1.1,0.2-1.6c0-8.3,0-16.7,0-25c0-6.9-0.7-13.8-0.7-20.7
		C6.4,46.2,5.8,65.3,14.8,81.4z"/>
	<path d="M97.2,20.5c-2.4-2.6-5.2-4.9-8.1-6.8c-1.6-1.1-3.3-2-4.9-3c-0.2-0.1-0.4-0.1-0.8-0.1c0.4,0.4,0.8,0.7,0.8,0.8
		c-0.1,0.5-0.3,1.1-0.7,1.4c-0.9,0.7-2,1.2-2.9,1.9C79.8,15.4,80,16,81,16.5c1.5,0.8,2.9,1.6,4.4,2.4c0.7,0.4,1.3,0.9,2,1.3
		c0.9,0.5,1.8,0.9,2.6,1.4c1,0.6,2,1.2,2.9,1.8c1.1,0.7,2.3,1.3,3.4,1.9c0.7,0.4,1.3,0.8,1.9,1.2c1.1,0.6,2.2,1.2,3.3,1.8
		c0.8,0.4,1.5,0.8,2.5,1.3c-0.1-0.3-0.2-0.4-0.2-0.5C102,25.9,99.7,23.1,97.2,20.5z"/>
	<path d="M105.3,32c0,16.2,0,32.3,0,48.5c0.1,0,0.1,0,0.2,0c3.4-6.3,5.3-13,5.9-20.1c0.8-10.1-1.2-19.6-5.9-28.5
		C105.4,32,105.4,32,105.3,32z"/>
	<path d="M100.6,84.6c-1.3,0.8-2.6,1.6-4,2.4c-1,0.6-2,1.2-2.9,1.7c-0.8,0.4-1.5,0.9-2.3,1.3c-0.8,0.4-1.5,0.8-2.3,1.3
		c-0.7,0.4-1.5,0.8-2.2,1.2c-0.7,0.4-1.3,0.9-2,1.3c-1.1,0.7-2.3,1.3-3.4,1.9c-0.8,0.4-1.5,0.9-2.3,1.3c-1,0.6-2,1.2-3,1.8
		c-0.6,0.4-1.3,0.6-1.9,1c-0.8,0.4-1.6,0.9-2.4,1.4l-5,2.8c-0.6,0.5-1.2,0.9-1.9,1.2c-1.4,0.8-2.8,1.6-4.4,2.4
		c7.1,0.3,20.8-2.2,32.3-11.8c3.6-3,10.8-11.3,10.8-13c-0.3,0.1-0.5,0.2-0.8,0.4C102.3,83.8,101.4,84.2,100.6,84.6z"/>
	<path d="M65.9,92.2c0-0.7-0.5-1.1-1.2-1.1c-2.6,0-5.2,0-7.8,0c-0.6,0-1.1,0.3-1.1,1c0.1,1.6,0.3,3.2,0.5,4.8c0,0.2,0.1,0.4,0.2,0.5
		c1.2,1.9,2,4.2,3.7,6c0.2-0.3,0.4-0.5,0.5-0.7c1.6-2.8,3.3-5.6,4.8-8.4C65.8,93.7,65.8,92.9,65.9,92.2z"/>
	<path d="M41.8,19.4c-0.1,0.1-0.2,0.1-0.3,0.1c-0.7,0.4-1.5,0.8-2.2,1.3c-0.2,0.1-0.3,0.2-0.5,0.3c-0.6,0.4-1.3,0.7-1.9,1.1
		c-0.7,0.4-1.4,0.7-2,1.1c-0.4,0.3-1.2,0.3-1.3,0.9l1.8,3.7c0.8,0.1,1.4,0.3,2.1,0.3c0.8,0,1.7,0.1,2.4-0.2c0.8-0.3,1.6-0.9,2.4-1.4
		c-0.3-0.4-0.7-0.7-1-1.1c-0.2-0.3-0.4-0.6,0.1-0.8c0.1-0.1,0.3-0.2,0.4-0.3c1-0.9,2.2-0.6,2.5,0.8c0.1,0.5,0.4,0.9,0.6,1.3
		c0.3,0.5,0.7,0.8,1,1.3c0.7,0.9,1.6,1.8,0.8,3.1c0.2,0,0.4,0.1,0.5,0.1c2.9,0,5.7,0,8.6,0c0.5,0,1-0.2,1.5-0.4
		c0.8-0.4,0.8-1.1,0.1-1.7c-4.5-3.2-9.1-6.3-13.6-9.5C42.9,18.6,42.9,18.6,41.8,19.4z"/>
	<path d="M46.1,17c-0.1,1.2,0.4,1.7,1.1,2.2C52.6,23,58,26.7,63.4,30.5c0.6,0.5,1.3,0.5,2.2,0.4c-1-0.7-1.8-1.3-2.6-1.9
		c-5.2-3.8-10.4-7.6-15.7-11.4C47,17.3,46.5,17.2,46.1,17z"/>
	<path d="M76.1,94.4c1.4-0.2,2.4-0.9,3.5-1.7c0.1-5.4,0.1-10.8,0.2-16.2c-0.1-0.1-0.2-0.1-0.3-0.2c-0.3,0.3-0.7,0.6-0.9,0.9
		c-1.7,2.7-2.5,5.7-2.6,8.8c-0.1,2.5,0,5.1,0,7.6C76.1,93.9,76.1,94.2,76.1,94.4z"/>
	<path d="M42.2,29c-0.7,0.3-1.3,0.8-1.9,1.2c-0.1,0.1-0.3,0.3-0.2,0.4c0.1,0.1,0.2,0.2,0.4,0.4c0,0,0,0,0.1,0c1.9,0,3.7,0,5.7,0
		c-0.8-0.9-1.5-1.6-2.1-2.3L42.2,29z"/>
	<path d="M55.4,57c-4.3,0-7.8,3.6-7.8,8c0,4.4,3.5,7.9,7.8,7.9c4.3,0,7.8-3.6,7.8-7.9C63.3,60.5,59.8,57,55.4,57z"/>
	<path d="M27.6,33.8c-0.5,0-0.7,0.3-0.7,0.8c0,0.6-0.1,1.2-0.1,1.7c0,0.2,0,0.3,0.1,0.5c0.8,1.5,1.6,3.1,2.4,4.6
		c0.5,0,0.9-0.1,1.3-0.1c7.1,0,14.1,0,21.2,0c0.4,0,1-0.2,1.3-0.5c2.7-2.1,5.4-4.3,8.1-6.5c0.2-0.1,0.3-0.3,0.6-0.6
		c-0.4,0-0.5,0-0.7,0c-10.8,0-21.7,0-32.5,0C28.2,33.8,27.9,33.8,27.6,33.8z M49.3,35.4c1.1,0,2.1,0.9,2.1,2.1
		c0,1.1-0.9,2.1-2.1,2.1s-2.1-0.9-2.1-2.1C47.2,36.3,48.2,35.4,49.3,35.4z M41.7,35.4c1.1,0,2.1,0.9,2.1,2.1c0,1.1-0.9,2.1-2.1,2.1
		s-2.1-0.9-2.1-2.1C39.6,36.3,40.6,35.4,41.7,35.4z M34.1,35.4c1.1,0,2.1,0.9,2.1,2.1c0,1.1-0.9,2.1-2.1,2.1c-1.1,0-2.1-0.9-2.1-2.1
		C32.1,36.3,33,35.4,34.1,35.4z"/>
</g>
</svg>
