<?xml version="1.0" encoding="utf-8"?>
<!-- Generator: Adobe Illustrator 19.1.0, SVG Export Plug-In . SVG Version: 6.00 Build 0)  -->
<svg version="1.1" id="Layer_1" xmlns="http://www.w3.org/2000/svg" xmlns:xlink="http://www.w3.org/1999/xlink" x="0px" y="0px"
	 viewBox="0 0 113.6 110.8" style="enable-background:new 0 0 113.6 110.8;" xml:space="preserve">
<g>
	<ellipse transform="matrix(-0.8587 0.5124 -0.5124 -0.8587 138.7343 139.4545)" cx="50.1" cy="88.9" rx="3.1" ry="2.4"/>
	<path d="M39.2,61.6c0.9-0.3,1.7-0.8,2.8-1.3c-0.5-0.4-0.8-0.8-1.2-1c-0.1-0.1-0.4-0.1-0.6-0.1c-0.9,0.5-1.7,1.1-2.5,1.7
		C38.3,61.8,38.3,61.9,39.2,61.6z"/>
	<path d="M48.3,77.6c-0.6-0.6-1.1-1.2-1.6-1.9l-9.1,4c0.5,0.6,1,1.2,1.3,1.6C42.1,80.1,45.2,78.9,48.3,77.6z"/>
	<path d="M55,71.2c0-0.2,0-0.4,0-0.6c-0.1-0.3-0.2-0.6-0.2-1c0-0.5,0.1-0.9,0-1.4c-0.1-0.7-0.1-1.5-0.6-2c-2.9-3.2-5.9-6.3-9-9.3
		c-2.7-2.6-5.5-5.2-8.1-7.8c-0.6-0.6-1.3-1-2.1-1.2c-0.5-0.1-1-0.1-1.7-0.2c0.8,1,1.6,1.8,2.3,2.7c1.6,1.7,3.1,3.3,4.7,5
		c0.1,0.1,1.3,1.5,1.5,1.6c1.5,1.7,3.1,3.3,4.7,5c1,1.1,2,2.3,3,3.4c1.8,2,3.5,3.9,5.3,5.9C54.9,71.3,54.9,71.2,55,71.2z"/>
	<path d="M11.9,36.5c0.1-0.3,0.2-0.5,0.3-0.6c0.1,0.3,0.1,0.7,0.2,0.9c0.6,0.5,1.4,0.8,2.1,1.2c0.1-0.4,0.1-0.8,0.2-1.1
		c0.2-0.5,0-0.9-0.5-1.2c-0.7-0.4-1.4-0.9-2-1.4c-0.9-0.7-1.8-1.4-2.8-2.2c-0.1,0.8-0.3,1.4-0.4,2.1c0,0.2,0,0.4,0.1,0.5
		C10.1,35.2,11,35.8,11.9,36.5z"/>
	<path d="M18.1,37.9c-0.5,1.1-0.7,2.2-1,3.4c-0.6,3.3-1.2,6.6-1.8,9.9c0,0.2-0.1,0.4,0,0.6c0.2,0.8,0.5,1.6,0.7,2.4
		c0.4,1.4,0.6,1.6,2,1.3c1-0.3,2.2-0.3,3-1.2c3-3.3,6.1-6.5,9.1-9.8c0.3-0.3,0.5-0.7,0.5-1.1c0.2-1.7,0.4-3.5,0.5-5.2
		c0-0.2,0.8-8.8,0.9-9.8c0.2-1.8,0.4-3.5,0.5-5.3c0.2-2.5,0.8-5,0.4-7.6c0-0.2,0-0.3,0.1-0.5c0.1-0.3,0.3-0.5,0.4-0.8
		c0.1-0.8,0.2-1.5,0.2-2.3c0.1-1.4,0.3-2.8,0.4-4.4c-0.3,0.1-0.4,0.1-0.4,0.1c-3.7,1.7-7.2,3.7-10.5,6.2c-0.5,0.4-1,0.7-1.1,1.5
		c-0.5,2.9-1,5.7-1.6,8.6c-0.8,4.1-1.5,8.1-2.3,12.2C18,36.7,18.4,37.2,18.1,37.9z"/>
	<path d="M32.5,55.1c1.2,1.4,2.3,2.8,3.4,4.2c1-0.7,1.9-1.3,3-2c-1.3-1.4-2.5-2.7-3.8-4C34.2,53.8,33.4,54.4,32.5,55.1z"/>
	<path d="M51.2,74.1c0.1,0.2,1.4,0.3,2-0.3c0.4-0.4,0.3-0.6-0.1-1.1c-2.1-2.2-4.1-4.5-6.2-6.7c-1.3-1.4-2.5-2.7-3.8-4.1
		c-0.1,0-0.2,0.1-0.3,0.1c0.1,0.3,0,0.7,0.2,0.9c1.9,2.7,3.9,5.3,5.9,7.9c0.6,0.8,1.3,1.7,1.9,2.5C51.1,73.7,51.1,73.9,51.2,74.1z"
		/>
	<path d="M12.7,31.4c0.8,0.6,1.7,1.2,2.7,1.9c0.4-1.7,0.8-3.2,1.1-4.7c0.4-1.8,0.5-3.7,0.9-5.5c0.2-0.9,0.6-1.8,0.9-2.8
		c0.2-0.7-0.1-0.9-0.8-0.8c-1,0.2-1.6,0.8-2.3,1.6c-2.1,2.3-3.5,4.9-4.8,7.7c-0.2,0.3-0.1,0.6,0.2,0.8C11.4,30.3,12,30.9,12.7,31.4z
		"/>
	<path d="M77.3,26.7C77.3,26.6,77.3,26.6,77.3,26.7C77.2,26.2,77.2,25.7,77.3,26.7z"/>
	<path d="M44.9,73.8c-0.1-0.2-0.3-0.3-0.4-0.5c-3.9-4.7-7.5-9.7-11.7-14.2c-0.7-0.7-1.2-1.6-1.9-2.4c-1.3-1.5-2.5-2.9-3.8-4.4
		c-0.3-0.3-0.7-0.6-1.1-1c-0.5,0.6-1.2,0.5-1.9,0.8c0.5,0.4,1,1.7,1.3,2.2c0.1,0.2,0.2,0.5,0.4,0.7c0.9,1.1,1.9,2.2,2.7,3.4
		c2.4,3.4,4.7,6.9,7.2,10.3c0.8,1.1,1.1,2.1,0.6,3.3c-0.2,0.5-0.5,1-0.8,1.4c-0.5,0.6-1.1,1.2-1.6,1.8c0.6,0.8,1.7,2.1,2.8,3.4
		C39.4,78,43.3,75.8,44.9,73.8z"/>
	<path d="M35.7,43.3c0.5,0.6,1,1.3,1.6,1.8c3.3,3.1,6.7,6.1,9.9,9.3c2.7,2.7,5.3,5.6,8.3,8c0.7,0.5,1.4,1.2,2.3,1.2
		c1-1.5,1-1.5,0.6-1.8c-0.3,1.1-0.5,1.1-1.3,0.3c-0.5-0.5-0.8-1.1-1.3-1.5c-2.3-1.7-3.9-4.1-5.6-6.3c-0.5-0.6-0.7-1.3-0.7-2.1
		c0.1-2.4,0.1-4.7,0.2-7.1c0.1-2.3,0.2-4.5,0.2-6.8c0-0.8,0.1-1.6,0-2.4c-0.2-2.1-0.1-1.8,1.6-2.3c0.7-0.2,0.9,0,0.9,0.7
		c0,0.8-0.1,1.7,0,2.5c0.3,2.6,0.6,5.3,1,7.9c0.4,3,1,5.9,1.5,8.9c0.1,0.4,0.2,0.8,0.5,1c1.5,0.9,3,1.8,4.6,2.5
		c0.6,0.3,1.1,0.5,1,1.4c0.6-0.7,1-1.4,1.5-2.1c0.3-0.4,0.2-0.6-0.1-0.9c-0.8-0.8-1.5-1.6-2.3-2.5c0.6-0.6,0.5-1,0-1.5
		c-0.8-0.7-1.2-1.6-1.3-2.6c0-0.4-0.1-0.8-0.3-1.2c-0.6-1.5-1.2-3.1-1.8-4.6c-1.1-2.9-1.6-6-1.4-9.1c0.1-0.9,0.3-1.7,0.4-2.5
		c0.5-4.1,1-8.3,1-12.4c-2.1-0.5-3.6-2.4-3.6-4.7c0-2.7,2.2-4.8,4.8-4.8c2.7,0,4.8,2.2,4.8,4.8c0,2.2-1.5,4.1-3.5,4.7
		c0.5,4.5,0.8,9,0.7,13.6c0,0.8,0,1.6,0.1,2.4c0.3,3.3,0.7,6.7,0.7,10c0,2.3,0.9,4.2,2,6c0.5,0.8,1.1,1.4,1.9,2.2
		c0.4-1.6,1.9-2,2.4-3.3c0.1-0.1,0.4-0.2,0.6-0.2c0.9-0.1,1.8-0.3,2.6-0.4c1.3-0.2,1.3-0.2,2,1c0,0.1,0.1,0.1,0.2,0.3
		c0.1-0.3,0.2-0.5,0.3-0.7c0.4-1.3,0.8-2.6,1.2-3.9c0.3-1.1,0.8-2.2,0.8-3.3c0.1-2.9,0-5.9,0-8.8c0.1-2.9-0.6-5.8-0.1-8.8
		c0.2-1.1,1.1-1,2.3-1.4c1-0.3,0.2,1.9,0.3,2.9c0,0.3,0,0.6,0,0.6c0.3,4.9,0.7,9.8,1,14.7c0.2,2.7,0.2,5.4,0.3,8.1
		c0,0.2,0,0.4,0.1,0.5c0.5,0.1,0.3,0.4,0.2,0.7c-0.4,1.2-0.7,2.5-1.3,3.7c-0.6,1.2-0.6,2.3-0.5,3.6c0.6-0.2,1.1-0.3,1.5-0.4
		c0.6-0.2,0.9,0.1,0.8,0.6c0,0.6-0.1,1.2-0.2,1.7c-0.4,2.3-0.1,4.5,0.6,6.7c0.1,0.2,0.3,0.4,0.5,0.6c0.2-0.2,0.5-0.3,0.6-0.6
		c1-1.9,2-3.9,2.9-5.9c0.2-0.4,0.3-1,0.2-1.5c-0.4-2-0.8-3.9-1.2-5.9c-0.6-3-1.3-6-1.3-9.1c0-0.9,0-1.7,0.3-2.5
		c1.5-3.4,3-6.8,4.6-10.2c0.3-0.6,0.3-1,0.1-1.6c-2.1-6-4.1-12-6.2-18c-0.2-0.7-0.5-1-1.2-1.2c-6-2.1-12-4.3-18-6.5
		c-1.8-0.6-3.5-1.4-5.5-1.4c-4.2,0-8.4,0.4-12.6,1.3c-0.6,0.1-0.8,0.4-0.9,1c-0.1,0.3-0.2,0.7-0.4,1c-0.3,0.4-0.7,0.7-0.9,1.1
		c-1.2,2.4-2.4,4.8-3.7,7.1c-0.1,0.2-0.2,0.4-0.3,0.5c-0.6,0.2-0.5,0.7-0.6,1.1c-0.1,1.1-0.2,2.2-0.3,3.2c0,0.2,0,0.4,0,0.7
		c1.2-1.1,2.4-2.1,3.4-3.1c0,0,1.5-2.1,2.3-3.4c0.9-1.3,1.4-1.6,1.4-1.6l-0.7,4.1c0,0.1,0,0.1,0,0.2c-0.2,0.7-0.2,1.5-0.8,2.1
		c-1.8,1.8-3.5,3.6-5.3,5.4c-0.9,1-1,2.2-1,3.6c0.4-0.3,0.6-0.5,0.8-0.7c1.1-1.1,2.4-1.9,4-2.2c0.4-0.1,0.8-0.1,0.9,0.4
		c0.1,0.4-0.6,1.8-0.9,2.1c-1.2,1-2.3,2.1-3.5,3.1c-0.2,0.2-0.4,0.4-0.7,0.5c-0.5,0.4-1.1,0.7-1.1,1.6c0,1.4-0.2,2.7-0.3,4.1
		c-0.2,2-0.3,4-0.5,6C34.8,42.2,35.2,42.8,35.7,43.3z"/>
	<path d="M77.3,27.2c0-0.2,0-0.4,0-0.6C77.3,27.1,77.3,27.2,77.3,27.2z"/>
	<path d="M29.4,72.2c-1.2,0.3-2.4,0.6-3.8,1c0.7,1,1.2,1.7,1.6,2.4c1.1,1.7,2.2,3.3,3.3,5c0.6,0.9,1.1,1.9,1.7,2.9
		c0.1,0.2,0.4,0.4,0.6,0.3c1.2-0.4,2.4-0.9,3.6-1.4c-0.6-0.8-1.2-1.6-1.8-2.4c-0.9-1.1-1.7-2.3-2.6-3.4c-0.4-0.5-0.8-1-1.1-1.5
		c-0.3-0.5-0.2-0.9,0.3-1.1c1.2-0.5,1.9-1.5,2.8-2.4c0.4-0.4,0.4-0.8,0-1.2c-0.6-0.8-1.2-1.7-1.8-2.6c-3-4.3-6.1-8.6-9.3-13
		c-0.5,0.8-0.8,1.3-1.2,1.9c-0.1,0.1-0.1,0.2-0.2,0.3c0.4,0.7,0.7,1.8,1.2,2.4c0.1,0.2,0.3,0.3,0.4,0.5c2.2,3.1,4.4,6.2,6.7,9.2
		c0.6,0.8,0.8,1.4,0.5,2.4C30.2,71.9,29.9,72.1,29.4,72.2z"/>
	<circle cx="58" cy="14.4" r="2.3"/>
	<path d="M89.5,36.3c-0.2,0.4-0.3,0.6-0.4,0.8c-1,2.2-1.9,4.3-2.9,6.5c-0.2,0.4-0.6,0.7-0.6,1c0.1,1.7,0.5,3.2,1.2,4.7
		c-0.2-0.9-0.4-1.9-0.6-2.8c0,0,0.1,0,0.1,0c1.7-0.7,1.5,4.8,2.3,7.2c0.1-0.1,0.2-0.2,0.2-0.3c1.2-2.5,2.4-4.9,3.6-7.4
		c0.1-0.2,0.1-0.4,0-0.6C91.7,42.4,90.6,39.5,89.5,36.3z"/>
	<path d="M84.3,72.5c-0.1,0.3-0.4,0.6-0.6,0.7c-0.7,0.3-0.5,0.5-0.1,0.9c0.4,0.4,0.9,0.8,1.3,1.2c0.3,0.3,0.6,0.4,1.1,0.2
		c1.7-0.9,3.4-1.8,5.1-2.6c1-0.5,1.5-1.3,1.9-2.2c2-3.7,3-7.8,4.2-11.8c0.1-0.2,0.1-0.4,0-0.6c-0.8-1.7-1.6-3.3-2.4-5.1
		c-0.2,0.3-0.3,0.5-0.4,0.6c-2.3,4-4.6,8-6.9,12.1C86.3,68.1,84.8,70.1,84.3,72.5z"/>
	<path d="M90.7,84.8c0.7,1.3,1.4,2.7,2.2,4.2c0.4-0.6,0.9-1.1,1.1-1.6c0.4-1.8,0.7-3.6,1-5.6c-1.2,0.3-2.2,0.4-3.2,0.7
		C91.3,82.6,90.4,84.3,90.7,84.8z"/>
	<path d="M102.8,64.5c-0.2,0.2-0.6,0.4-0.6,0.7c-0.6,3.3-1.1,6.6-1.7,9.9c-0.2,1.1-0.4,2.2-0.6,3.4c0,0,0.1,0,0.1,0
		c0.1-0.1,0.2-0.3,0.2-0.4c1.1-2.6,2.2-5.2,3.2-7.9c0.5-1.5,0.8-3.1,1.2-4.7c0.2-1-0.2-1.7-1.3-1.1
		C103.2,64.4,102.9,64.4,102.8,64.5z"/>
	<path d="M12.8,40.7c-0.7-0.4-1.4-0.8-2-1.2c-0.7-0.5-1.3-1-2-1.5c-0.3,0.4-0.5,0.7-0.8,1.1c1.8,1.3,3.6,2.5,5.4,3.7
		C13.9,41.4,13.9,41.3,12.8,40.7z"/>
	<path d="M84.3,89.8c-0.1-0.1-0.3-0.3-0.4-0.3c-0.3-0.1-0.7-0.1-1.1-0.1c-0.3,0.3-0.7,0.8-1.1,0.9c-0.7,0.1-0.7,0.4-0.4,0.8
		c0.9,1.5,1,3.2,1.2,4.8c0.1,0.6,0.1,1.1,0.1,1.7c0.2,0,0.2,0,0.3-0.1c1.4-1,2.8-2,4.2-3.1c0.4-0.3,0.3-0.6,0-0.9
		C86.1,92.4,85.2,91.1,84.3,89.8z"/>
	<path d="M97,68.2c-0.9,1.5-1.3,3.2-1.6,4.9c-0.1,0.5-0.3,0.8-0.8,1c-0.4,0.2-0.7,0.6-1.1,0.8c-0.2,0.2-0.5,0.2-0.8,0.3
		c-0.5,0.2-1.2,0.3-1.6,0.7c-0.4,0.4-0.6,1-0.9,1.6c-0.5,1.1-1,2.2-1.4,3.3c-0.9,2.2-1.9,4.3-2.8,6.5c-0.1,0.2-0.2,0.6,0,0.8
		c0.9,1.3,1.9,2.7,2.8,4c0.2,0.3,0.5,0.5,0.9,0.2c0.6-0.6,1.2-1.1,1.7-1.7c-0.4-0.6-0.8-1.1-1.1-1.6c-0.7-1.2-1.4-2.4-2-3.7
		c-0.1-0.2-0.2-0.5-0.1-0.7c0.5-1.2,1-2.4,1.6-3.5c0.2-0.3,0.6-0.6,0.9-0.7c1.3-0.4,2.6-0.6,3.9-0.9c0.6-0.1,0.8-0.3,0.9-0.9
		c0.4-2.9,1-5.7,1.4-8.6c0.1-0.7,0.2-1.4,0.3-2.1C97.1,68,97,68.1,97,68.2z"/>
	<path d="M86.8,14.6c-0.2-0.1-0.6-0.3-0.6-0.2c-0.2,0.2-0.4,0.5-0.3,0.8c0.1,0.5,0.3,1,0.5,1.5c1.4,3.2,2.8,6.4,4.2,9.6
		c0.4,0.9,0.9,1.9,1.5,2.7c0.4,0.6,1.1,1.1,0.7,1.8c0,0.8,0.3,1.4,1.2,2c0.2,0.2,0.6,0,1,0c0.1,0,0.1,0,0.2,0
		c0.8,0.3,1.1-0.2,1.2-0.8c0.2-0.8,0.3-1.6,0.5-2.4c0.1-0.3,0.2-0.8,0.4-0.9c0.8-0.5,1.1-1.2,0.6-2c-1.2-1.8-2.5-3.5-3.8-5.2
		C91.8,19,89.4,16.7,86.8,14.6z"/>
	<path d="M96.2,39.8C96.1,40,96,40.2,96,40.4c0,0.3,0.1,0.7,0.2,1c1.1,4,2.2,8,3.3,12c0.4,1.4,1.2,2.6,2.3,3.6
		c0.5,0.5,1,0.4,1.1-0.3c0.2-0.9,0.4-1.7,0.4-2.6c0.1-4.5,0-9,0.2-13.5c0.1-2.4-1.1-4.4-1.8-6.6c-1.2,0.1-1.9,0.7-2.4,1.6
		c-0.6,1.1-1.3,2.1-2,3.2C97,39.2,96.5,39.5,96.2,39.8z"/>
	<path d="M79.1,92.4c-0.4-1-0.6-1.8-0.2-2.7c0.2-0.5,0.4-0.9,0.6-1.4c1-2,2-4,3.1-6c0.3-0.7,0.6-1.3,0.9-2c-0.2,0.1-0.3,0.3-0.4,0.4
		c-2.3,3.8-4.6,7.7-7,11.5c-0.8,1.2-1,2.2-0.5,3.5c0.6,1.6,1.1,3.3,1.7,5c1-0.5,1.9-1,2.8-1.5c0.1-0.1,0.2-0.4,0.2-0.6
		c-0.1-0.8-0.1-1.7-0.2-2.5C79.8,94.9,79.6,93.6,79.1,92.4z"/>
	<path d="M12.5,45.9c-1.7-1-3.3-2-4.9-3.1c-0.9-0.6-1.7-1.4-2.6-2.2C5,40.6,5,40.7,4.9,40.8c-1.6,5.8-2.2,11.7-1.7,17.6
		c0,0.5,0.7,1,1.1,1.5c0.1,0.1,2.1-0.9,2.4-1.6C7.4,57,8,51.7,8.7,50.3c0.1,2.3,0.1,6.2,1.1,7.2c0.6,0.6,1,0.5,1.2-0.4
		c0.2-0.9,0.3-1.8,0.4-2.7c0.5-2.6,1-5.2,1.5-7.8C13,46.2,12.9,46.1,12.5,45.9z"/>
	<path d="M22.8,85c0.5,0.7,1.5,1.2,0.7,2.5c2.4-1,4.6-1.8,6.9-2.8c-1.8-2.8-3.5-5.4-5.2-8.1c-0.7-1.1-1.5-2.3-2.1-3.4
		c-0.5-1-0.2-1.6,0.9-1.9c1.3-0.4,2.5-0.8,3.8-1.2c-0.2-0.2-0.3-0.4-0.4-0.6c-1.3-1.7-2.5-3.4-3.8-5.1c-0.9-1.3-2.9-3.7-4.3-5.3
		c-2.2,2.4-4.3,4.8-6.5,7.3c-0.2,0.2-0.3,0.6-0.2,0.9c0.1,1.2,0.2,2.3,0.4,3.5c0.1,1,0.2,1.9,0.4,3c0.7-0.3,1,0,1.2,0.4
		c0.1,0.1,0.2,0.3,0.3,0.4c0.8,0.9,1.6,1.7,2.3,2.7C19.1,79.8,20.9,82.4,22.8,85z"/>
	<path d="M8.7,65.4c0.9-0.1,1.4-0.5,1.4-1.5c0-0.1,0.1-0.2,0.1-0.3c0.2-0.7-0.1-1-0.8-0.9C8.7,63,8,63.2,7.3,63.4
		c-1.6,0.5-3.1,2.5-2.5,4.6c1.1,3.9,2.6,7.6,4.4,11.1c0.4,0.8,1,1.7,1.5,2.5c0,0,0,0,0.1-0.1c-0.8-5.3-1.7-10.6-2.5-16
		C8.5,65.5,8.6,65.4,8.7,65.4z"/>
	<path d="M70.7,94.9c-0.2-0.7-0.6-1.1-1.3-0.7c-0.7,0.4-1.4,0.4-2.2,0.2c-0.8-0.2-1.6-0.5-2.4-0.5c-0.7,0-1.4,0.3-2,0.5
		c-0.3,0.1-0.6,0.5-0.9,0.7c-0.9,0.6-1.6,1.3-1.8,2.5c-0.1,0.6-0.4,1.2-0.5,1.8c-0.1,0.6-0.5,0.9-1,1.2c-2.5,1.4-5,2.9-7.5,4.4
		c-0.3,0.2-0.5,0.4-0.7,0.6c0,0.1,0.1,0.1,0.1,0.2c4,0.3,7.9,0.2,11.8-0.4c-0.2-0.8-0.4-1.5-0.6-2.1c-0.3-1-0.8-2-1.1-3
		c-0.2-0.5-0.1-0.9,0.5-1.1c1.6-0.9,3.4-1.4,5.2-1.7c0.6-0.1,1,0.1,1.2,0.6c0.2,0.6,0.5,1.2,0.7,1.8c0.2,0.5,0.5,0.7,1,0.5
		c0.2-0.1,0.7-0.1,0.8,0c0.1,0.2,0.1,0.6,0.1,0.9c-0.1,0.8-0.3,1.7-0.5,2.6c1.3-0.5,2.4-0.8,3.7-1.3c-0.4-0.9-0.7-1.6-1-2.4
		C71.8,98.4,71.2,96.7,70.7,94.9z"/>
	<path d="M79.1,73.7c-1.6-4.5-3.2-9-4.8-13.5C73.5,58.1,72.7,56,72,54c-0.1-0.3-0.9-2.6-1.1-3c-0.1-0.2-0.6-0.3-0.9-0.3
		c-0.1,0-0.4,0.2-0.5,0.4c-0.3,1.7-1.3,3-2.2,4.4c-0.9,1.5-2.1,2.8-3,4.4c-1.9,3.5-3.7,7.2-5.4,10.8c-0.5,1-0.9,2.1-1,3.1
		c-0.1,1.5,0,3,0.1,4.6c0,0.3,0.2,0.7,0.4,0.9c2.8,2.7,5.6,5.3,8.4,8c0.3,0.3,0.6,0.4,1.1,0.2c1.7-0.6,3.4-1.1,5.1-1.7
		c0.3-0.1,0.6-0.4,0.8-0.7c1.7-3.4,3.4-6.9,5.1-10.4C79.1,74.4,79.2,73.9,79.1,73.7z"/>
	<path d="M34.2,101.4c-1.4-1.3-2.9-2.5-4.3-3.8c-2-1.8-4-3.7-6.1-5.6c-0.5-0.4-1-0.8-1.6-1.1c-2.3-1.2-4.7-2.3-7-3.4
		c0,0-0.1,0-0.2,0c5.4,6.5,12.1,11.3,19.8,14.5C34.6,101.8,34.4,101.6,34.2,101.4z"/>
	<path d="M61.4,91.8c0.5-1.1,0.8-2.1,1.3-3.2c0.2-0.5,0.2-0.8-0.2-1.2c-1.5-1.7-3-3.5-4.5-5.3c-0.4-0.5-1-0.8-1.6-1
		c-1.7-0.5-3.5-0.3-5.1-1.1c0,0,0,0-0.1,0c-0.6,0-1.1,0-1.2,0.8c0,0.2-0.2,0.5-0.4,0.6c0,2.4,1,2.6,1,2.6c1.5-0.1,3.8,0.3,4.7,1.8
		c1.3,2.2,0,5.3-2.8,7c-2.8,1.7-6.2,1.3-7.5-0.8c-1.3-2.2,0-5.3,2.8-7l-0.5-3c0.1-0.3,0.2-0.5,0.3-0.9c-1,0.4-1.9,0.7-2.7,1
		c-0.5,0.2-1.1,0.3-1.2,1c0,0.1,0.2,0.8,0,0.9c-0.9,0.3-2.2,2.1-3.1,2.3c0-0.2-0.1-2.5-0.1-2.7c-0.9,0.6-1.9,1.4-2.7,2.1
		c-0.8,0.7-1.9,0.1-3,0.6c0-0.2,0.1-0.4,0.1-0.6c-2.5,0.9-4.9,1.8-7.4,2.6c-1.3,0.4-2.3,0.9-2.6,2.4c0,0.2-0.2,0.3-0.3,0.5
		c1.9,1.6,3.7,3.2,5.5,4.8l0,0c4.8-1,8.3-5,8.6-4.4c0.2,0.6,4.2,3,4.4,3.4c0.2,0.4-10.8,1.8-11.1,2.6c1.1,1,2.4,1.5,3.5,2.3
		c0.2,0.1,0.3,0.3,0.4,0.5c0.1,0.3,0.2,0.6,0.4,0.8c0.4,0.5,1,0.8,1.4,1.3c0.6,0.5,2.4,0.7,3.1,0.4c1.3-0.6,2.6-1.2,4-1.8
		c1.7-0.7,3.6-1.2,5.2-2c3.6-1.9,7.2-4.1,10.7-6.1C60.9,92.5,61.2,92.1,61.4,91.8z"/>
</g>
</svg>
