<?xml version="1.0" encoding="utf-8"?>
<!-- Generator: Adobe Illustrator 19.1.0, SVG Export Plug-In . SVG Version: 6.00 Build 0)  -->
<svg version="1.1" id="Layer_1" xmlns="http://www.w3.org/2000/svg" xmlns:xlink="http://www.w3.org/1999/xlink" x="0px" y="0px"
	 viewBox="0 0 113.6 110.8" style="enable-background:new 0 0 113.6 110.8;" xml:space="preserve">
<g>
	<path d="M31.4,90.4c0.7,0.2,1.3,0.4,2,0.4c2.3,0.1,8.3-0.9,10-1.1c0.2,0,5.8-1.4,5.8-3.4c0-1.8-0.3-3.5-0.4-5.2
		c-0.1-1.5-0.3-2.9-1.7-3.8c-0.2-0.1-0.5-0.3-0.7-0.5c-2.8-2.3-5.3-5.2-7.6-6.2c-0.2-0.1-1.2-0.5-1.4-0.5c-2.1,0.3-2.8,0.8-4.7,1.9
		c-1.2,0.6-2.3,1.4-3.5,2.1c-1.9,1.2-3.8,2.4-5.7,3.6c2.3,4,4.7,8.1,7.1,12.3C30.7,90.2,31.1,90.4,31.4,90.4z M33,80
		c0.2-2.1,2.5-3.5,5.1-3.2c2.6,0.3,4.5,2.2,4.2,4.3c-0.2,2.1-2.5,3.5-5.1,3.2C34.6,84,32.7,82,33,80z"/>
	<ellipse transform="matrix(0.387 -0.9221 0.9221 0.387 -27.3539 85.1628)" cx="50.4" cy="63.2" rx="2.1" ry="2"/>
	<path d="M58.8,68.7c0-1.6,0-3.3,0-4.9c-0.1-2.9,0.4-5.9-1.1-8.4c-1.7-2.9-7-3.1-8.9-3.7c-0.3-0.1-0.6,0-0.9,0
		c-1.6,0.4-2.6,1.6-3.4,3c-1.3,2.4-3,4.4-4.3,7.3c-0.5,1.1-1.1,3.1-1.1,3.9c-0.2,1.7,3.4,4.9,3.6,5.1c1.3,1.5,2.8,3.1,4.7,3.6
		c1,0.3,4.4,0,5.9-0.7C56.2,72.3,58.8,69.2,58.8,68.7z M49,66.3c-1.7-0.7-2.4-2.7-1.7-4.4c0.7-1.7,2.7-2.6,4.4-1.9
		c1.7,0.7,2.4,2.7,1.7,4.4C52.7,66.2,50.7,67,49,66.3z"/>
	<path d="M16,54.1c0.2-0.2,0.3-0.4,0.4-0.6c2.5-3.2,5.1-6.5,7.6-9.7c0.1-0.2,3.6-4.4,4.7-6c0.5-0.8,0.5-0.8,1.1-1.9
		c0.6-1.3,3-6.4,3.1-6.6c1.2-3,2.3-6,3.1-9c0.4-1.7,0.2-4.5,0.4-5.5c-0.1,0-0.2-0.1-0.3-0.1c-1.6,0.9-3.3,1.8-4.9,2.7
		c-0.2,0.1-0.3,0.3-0.4,0.5c-0.9,1.5-1.8,3.1-2.6,4.7c-1.3,2.6-3.3,4.9-3.8,7.9c0,0.1-0.3,0.4-0.4,0.4c-0.6-0.1-0.7,0.3-0.9,0.7
		c-3.1,5.4-6.1,10.8-9.2,16.3c-0.2,0.4-0.3,0.9-0.4,1.4c0,0.7,0,1.4,0.1,2.1c0.1,1-0.2,2,0.8,2.8C14.8,54.4,15.6,54.6,16,54.1z"/>
	<ellipse transform="matrix(-0.117 0.9931 -0.9931 -0.117 122.0429 52.5342)" cx="37.7" cy="80.5" rx="2.3" ry="2.8"/>
	<path d="M77.8,8.6c-0.4-1-0.8-1.9-1.3-2.8c-0.1-0.2-0.3-0.3-0.5-0.3c-2.1-0.6-4.2-1.2-6.4-1.7c-1.7-0.4-3.4-0.6-5-0.8
		C63,2.8,52.7,3.1,49.1,3.8c-0.2,0-0.5,0.3-0.5,0.5c-0.1,0.7-0.6,1-1.1,1.4c-1,0.8-1.9,1.7-2.9,2.6c0.1,0.1,0.1,0.1,0.2,0.2
		C55.8,8.6,66.8,8.6,77.8,8.6z M61.1,3.7c2.6-0.1,4.7,0.8,4.8,1.9c0,1.1-2.1,2.1-4.7,2.2c-2.6,0.1-4.7-0.8-4.8-1.9
		S58.5,3.8,61.1,3.7z"/>
	<path d="M52.6,86.8c0.1,0.2,0.5,0.6,0.8,0.8c0.7,0.6,2.6-1.7,2.8-1.9c1-1,1.2-2.3,1.3-3.6c0.1-0.5,0.2-0.9,0.8-0.9
		c0.6,0,0.7-0.4,0.7-0.9c0-2.2-0.1-4.3-0.1-6.5c0-0.5,0-1,0-1.7c-0.3,0.2-0.3,0.3-0.4,0.3c-1.6,1.3-3.2,2.7-4.8,4
		c-0.2,0.1-0.4,0.3-0.4,0.5c-0.4,1-0.8,2-1,3.1c-0.2,1.2-0.2,2.5-0.2,3.7c0,0.6-0.1,1.1,0,1.7C52.2,85.9,52.4,86.4,52.6,86.8z"/>
	<path d="M70.7,46.6c0.7-0.9,0-4.6-0.1-6.4c0-1.1-0.2-2.3-0.5-3.4c-0.4-1.2-1-2.4-1.5-3.5c-0.9-4.8-17.5-19.2-19.5-21.9
		c-0.1-0.1-0.3-0.3-0.5-0.3c-1.3,0-2.6,0-3.9,0c-0.2,0-0.4,0.2-0.5,0.3c-0.3,0.3-0.5,0.7-0.8,1.1c-0.3,0.3-1.3,0.9-2.5,1.3
		c-2.5,6.4-5.4,13.5-6.8,19.2c-0.3,2.8,2.7,6.5,3.8,7.4c6.3,5.1,14.1,7.8,21.2,11.8c0.6,0.3,1.1,0.3,1.6,0
		C63.2,50.9,68.8,49.2,70.7,46.6z"/>
	<path d="M55.6,96.9c0.2,0.5,0.5,0.7,1.1,0.7c4.1-0.1,8.2-0.2,12.3-0.2c0.3,0,0.5,0,0.6,0c0.2-2.3,1.6-4,2.1-6
		c-3.1-0.4-6.1-0.8-9.1-1.3c-1.5-0.2-2.9-0.8-4.5-0.3c-0.6,0.2-1.3,0.2-1.9,0.3c-1.3,0.2-2.5,0.4-3.8,0.6c0.4,0.7,0.8,1.2,1.1,1.8
		C54.3,94,55,95.5,55.6,96.9z"/>
	<ellipse transform="matrix(2.819873e-02 0.9996 -0.9996 2.819873e-02 65.2114 -55.5631)" cx="61.2" cy="5.8" rx="1.2" ry="2.8"/>
	<path d="M102,34.5c1.2-1.2,2.4-2.4,4.2-2.7c-1.3-2.3-2.6-4.4-3.8-6.6c-0.5,0.5-0.7,0.9-1.1,1.3c-0.7,0.7-1.5,1.3-2.3,1.9
		c-0.2,0.1-0.3,0.5-0.2,0.6C99.8,30.9,100.9,32.7,102,34.5z"/>
	<path d="M81.8,10.5c1.1,0.6,2.2,1.2,3.4,1.7c2.4,0.9,4.9,1.6,7.2,2.9c0.2,0.1,0.5,0.2,0.8,0.3c-3.8-3.5-8.1-6.2-13-8.3
		C80.6,8.1,81,9,81.3,9.9C81.4,10.1,81.6,10.4,81.8,10.5z"/>
	<path d="M103,36.3c1.9,3.2,3.8,6.3,5.7,9.6c0.4-0.5,0.6-0.9,1-1.2c0.5-0.5,0.5-0.9,0.4-1.5c-0.7-2.2-1.3-4.4-2-6.6
		C107.7,35.3,104,35.4,103,36.3z"/>
	<path d="M85.5,32.3c0.5-0.2,0.4-0.5,0.3-0.9c-0.4-1.1-0.9-2.2-1.3-3.3c-0.5-1.2-1.4-1.1-2.6-0.5c-2,0.9-4,1.6-4.7,3.8
		c-0.8,3,1.1,7.7,1.2,11c1-0.6,4.2-2.9,5.1-3.7c0.7-0.6,1.7-1.9,1.6-2.9c-0.1-0.9,0-1.9,0.1-2.9C85.1,32.7,85.3,32.4,85.5,32.3z"/>
	<ellipse transform="matrix(0.6228 -0.7824 0.7824 0.6228 11.5931 57.2449)" cx="65.2" cy="16.6" rx="1.8" ry="2.2"/>
	<path d="M76.8,11.1c-8,0-16.1,0-24.1,0c-0.2,0-0.5,0-0.7,0c0,0.1,0,0.2,0,0.2c1.4,1.7,2.8,3.4,4.2,5c0.6,0.7,1.2,1.3,1.9,1.8
		c3.5,2.7,13.7,10.2,14.5,10.3c0.3,0,0.6-0.1,0.9-0.3c1-0.6,2-1.3,3-2c1-0.6,4.9-2.6,5.6-3.4c0.6-0.5-2.9-7.5-4.3-11.2
		C77.6,11.1,77.2,11.1,76.8,11.1z M77.8,22.1c-1,1.3-3.1,1.3-4.7,0c-0.7-0.6-1.2-1.3-1.4-2c-0.7-0.3-2.3-0.9-3.8-1.1
		c-1,1.1-3,1.1-4.5-0.1c-1.6-1.3-2-3.3-1-4.6c1-1.3,3.1-1.3,4.7,0c1.2,0.9,1.7,2.3,1.5,3.5c1.1,1,2.5,1,3.2,0.5
		c0.1-0.3,0.2-0.5,0.4-0.7c1-1.3,3.1-1.3,4.7,0C78.3,18.8,78.8,20.8,77.8,22.1z"/>
	<path d="M24.8,73.8c2.1-0.5,4-1.7,5.8-3.1c1.3-1.1,2.5-2.2,3.5-3.6c1.1-1.5,5.1-8.8,6.2-10.9c0.3-0.5,1.1-3.1,1.1-3.4
		c0.5-2.1,0.2-2.8,0-4.2c-0.1-0.4-0.3-0.7-0.5-1.1c-1.3-1.7-3.1-2.6-4.8-3.8c-1.4-1-3-1.5-4.8-1.3c-2.1-0.2-3.7,0.6-5,2.4
		c-3.3,4.4-6.7,8.7-10.1,13c-0.7,0.9-0.8,1.8-0.6,2.8c0.1,0.7-0.2,1.5-0.3,2.3c0,0.2-0.1,0.5,0,0.6C16.8,66.1,20.4,74.8,24.8,73.8z
		 M23.9,55.2c1.3-3.1,4.4-4.8,7-3.8c2.5,1.1,3.5,4.5,2.2,7.6c-1.3,3.1-4.4,4.8-7,3.8S22.6,58.4,23.9,55.2z"/>
	<ellipse transform="matrix(-0.387 0.9221 -0.9221 -0.387 92.2059 52.9819)" cx="28.5" cy="57.1" rx="3.7" ry="3"/>
	<ellipse transform="matrix(0.6228 -0.7824 0.7824 0.6228 12.754 66.0951)" cx="74.9" cy="19.8" rx="1.8" ry="2.2"/>
	<path d="M22.6,26.9c1.9-3.4,3.8-6.8,5.7-10.1c-1.3,0.1-2.6,0.3-3.9,0.3c-0.5,0-0.9,0.1-1.3,0.5c-1.1,1.2-2.2,2.4-3.2,3.6
		c-0.6,0.7-1.2,1.5-1.8,2.3C20.2,23.9,21.1,25.8,22.6,26.9z"/>
	<path d="M103.5,79.9c-0.1-0.1-0.1-0.1-0.2-0.2c-0.9-0.7-1.3-1.7-1.5-2.8c-0.1-0.7-0.3-1.3-0.5-2c-0.1,0-0.1,0-0.2,0
		c-0.8,1.4-1.6,2.9-2.4,4.3c0.6,0.7,1,2.2,1,2.9c0,0.2,0.1,0.3,0.1,0.5c0.2,0.6,0.4,1.2,0.7,1.8c0.1,0.3,0.4,0.5,0.6,0.9
		c0.9-1.4,1.8-2.7,2.6-4c0.2-0.3,0.5-0.6,0.4-0.9C104.3,80.3,103.8,80.1,103.5,79.9z"/>
	<path d="M44.4,5.1c-3.2,0.2-16.3,7.2-17.6,9.5c1.9-0.5,8.2-3.3,8.8-3.5C36.6,10.7,42.8,7.3,44.4,5.1z"/>
	<path d="M98.2,85.2c-0.3-0.6-0.5-1.2-0.7-1.9c-0.1-0.2-0.2-0.6-0.4-1c-0.1,0.1-0.1,0.1-0.2,0.2c-1.6,2.9-3.2,5.8-4.8,8.7
		c-0.1,0.2-0.2,0.4-0.3,0.6c0.8,0.2,1.6,0.5,2.3,0.6c0.3,0.1,0.7,0,0.9-0.2c1.6-1.6,3.2-3.3,4.9-5.2c-0.4-0.2-0.6-0.3-0.8-0.5
		C98.8,86.1,98.5,85.7,98.2,85.2z"/>
	<path d="M63.7,103.1c0.1,1,0,1.7,0.5,3c0.4,0,0,0,0.2,0c1.5-0.2,3.1-0.3,4.6-0.7c3.2-0.8,5.9-2.4,7.4-5.7
		c-4.2,0.1-8.4,0.2-12.8,0.2C63.7,101.1,63.6,102.1,63.7,103.1z"/>
	<path d="M83.3,93.4c-0.1-0.4-0.1-0.6-0.5-0.6c-0.9-0.1-1.8-0.3-2.6-0.3c-0.2,0-0.5,0.2-0.6,0.4c-0.9,1-1.4,2-1.9,3.1
		c-0.4,0.7-0.7,1.1-0.1,1.2c1.2,0,0,0,1.1,0c0.2,0,0.4-0.1,0.6-0.2c1-0.6,2-1.2,3-1.7C83,94.9,83.5,94.4,83.3,93.4z"/>
	<path d="M61.3,102.7c0-0.9,0-1.7,0-2.6c-0.9,0-1.6,0-2.5,0c0.3,2.1,1.1,4,0.1,6.1c0.9,0,2.1-0.1,2.9-0.1
		C61.3,105.1,61.2,103.6,61.3,102.7z"/>
	<path d="M109.1,55.6c-0.1,1.8-0.3,3.6-0.4,5.4c0,0.2,0,0.4,0,0.6c0.5,1.1,0.9,2.2,1.4,3.2c0.1,0,0.1,0,0.2,0
		c1-5.1,1.3-10.2,0.6-15.3C110,51.4,109.2,53.4,109.1,55.6z"/>
	<path d="M93.9,44.3c-1.5-1.8-3.9-4.5-4.3-4.9c-1.7-1.8-11.1,5.2-11.4,5.4c-3.9,2.2-7.7,4.8-11.7,7c-0.9,0.5-1.6,1-2.2,1.8
		c-1.4,1.9-3.1,9.7-3.1,10.8c0.1,6.4,0.2,12.7,0.3,19.1c0,1.3,0.8,2.1,1.7,2.8c0.5,0.4,0.9,0.6,0.6,1.3c0.3,0.1,0.6,0.1,0.9,0.1
		c5.9,0.8,11.8,1.6,17.8,2.4c0.5,0.1,5.1,0.8,7.5-1c0.7-0.4,1.1-0.9,1.4-1.6c1.5-2.8,3.1-5.7,4.7-8.5c2.4-4.4,4.9-8.8,7.3-13.3
		c0.1-0.2,0.3-0.7,0.1-0.9c-0.6-0.9-0.5-1.7-0.1-2.6c0.3-0.9,0.7-1.8,1-2.7c0.4-1.6,0.2-2.9-1-4.3C100.1,51.8,97,48,93.9,44.3z"/>
	<path d="M106.2,46.3c-5.5-9-10.8-18.1-16.2-27.2c-0.8-1.4-1.7-2.5-3.3-3.1c-0.8-0.3-1.5-0.8-2.2-1.2c-0.4-0.2-0.9-0.4-1.4-0.6
		c-0.2-0.1-0.4,0-0.6,0.1c-0.3,0.2-0.5,0.4-0.8,0.7c0.3,0.8,0.7,1.7,1,2.5c2.4,5.9,4.7,11.8,7.1,17.7c0.2,0.6,0.4,1.2,0.8,1.7
		c3.5,4.2,7.1,8.4,10.6,12.6c1.3,1.5,2.6,3,4,4.7c0.5-1.1,1.4-1.7,1.3-2.9c0-0.5,0-1.1,0-1.6C106.7,48.6,106.9,47.5,106.2,46.3z"/>
	<path d="M88.5,94.8c-1.7,1-3.2,2.3-4.9,3.4c-1.5,0.9-2.3,2.4-3.3,3.8c4.3-1.8,8.3-4.2,12-7.2C90.9,94.2,89.6,94.1,88.5,94.8z"/>
	<path d="M8.2,48.2c-0.6,5.1-0.5,10.1,0.3,15c0.6-1.2,1.3-2.3,1.9-3.6C10.6,59.1,13.1,55.7,8.2,48.2z"/>
	<path d="M26.9,89.8c-0.1-0.2-0.2-0.5-0.1-0.7c0.4-0.5,0.1-0.8-0.1-1.1c-4.9-8.5-9.7-16.9-14.6-25.4c-0.1-0.2-0.2-0.3-0.5-0.7
		c-0.3,0.9-0.7,1.6-0.6,2.3c0,2.2,0.1,4.5,0.4,6.7c0.3,1.8,1,3.5,1.5,5.2c0.4,1.2,0.8,2.3,1.4,3.4c0.4,0.9,1,1.8,1.5,2.6
		c2,3.3,4.4,6.2,7.1,9c0.2,0.2,0.5,0.4,0.7,0.4c1.4-0.2,2.8-0.4,4.2-0.6C27.4,90.6,27.1,90.2,26.9,89.8z"/>
	<path d="M18.2,31.5c1.4,0.8,1.4,0.8,2.2-0.6c1.1-1.9,1.1-1.9-0.5-3.4C19,26.7,18,25.9,17,24.9c-0.9,1.4-1.7,2.7-2.5,3.9
		c0.4,0.3,1.4,1.1,1.7,1.3C16.9,30.6,17.5,31.1,18.2,31.5z"/>
	<path d="M40.1,100.2c-1.6-1.3-3.7-2.4-4.5-3c-0.3-0.2-0.6-0.5-1-0.6c-0.8-0.4-1.7-0.8-2.6-1c-1.1-0.3-2.3-0.4-3.4-0.5
		c-0.5-0.1-0.9-0.1-1.5-0.2c2.5,2.7,12.5,8.1,16.8,9C43.1,102.9,40.9,100.8,40.1,100.2z"/>
	<path d="M56.3,100.5c-0.3-0.1-1.8-0.3-2.2-0.3c-1.4,0-2.8,0-4.2,0.1c-0.4,0-4.1,0.2-5.2,0.1c0.2,0.2,0.3,0.4,0.3,0.4
		c1.7,1.5,3.3,3,5,4.4c0.3,0.2,0.7,0.4,1.1,0.4c2.1,0.2,3.6,0.4,5.7,0.6c0,0,0.6-1.4,0.4-2.7C57.3,102.7,56.7,100.7,56.3,100.5z"/>
	<path d="M46.1,97.7c-0.9-1-1.7-2.1-2.5-3.1c-0.4-0.5-0.8-1-1-1.6c-0.2-0.4-0.4-0.5-0.8-0.4c-1.3,0.2-2.7,0.4-4,0.6
		c-0.8,0.1-1.7,0.3-2.7,0.4c0.4,0.2,0.6,0.3,0.8,0.5c1.1,0.6,2.3,1.2,3.4,1.8c0.7,0.4,3.3,1.9,3.8,1.9c1,0.1,2,0,3.1,0
		C46.1,97.8,46.1,97.7,46.1,97.7z"/>
	<path d="M10.9,47.7c0.8-1.3,1.5-2.6,2.2-3.9c0.7-1.3,1.4-2.5,2.1-3.7c-1.5-1-2.9-1.9-4.4-2.9c-0.1,0.2-0.2,0.4-0.2,0.5
		c-0.5,1.9-1,3.7-1.6,5.6c-0.3,0.9-0.3,1.6,0.5,2.3C10.1,46.2,10.4,47,10.9,47.7z"/>
</g>
</svg>
