<?xml version="1.0" encoding="utf-8"?>
<!-- Generator: Adobe Illustrator 16.2.1, SVG Export Plug-In . SVG Version: 6.00 Build 0)  -->
<!DOCTYPE svg PUBLIC "-//W3C//DTD SVG 1.1//EN" "http://www.w3.org/Graphics/SVG/1.1/DTD/svg11.dtd">
<svg version="1.1" id="Layer_1" xmlns="http://www.w3.org/2000/svg" xmlns:xlink="http://www.w3.org/1999/xlink" x="0px" y="0px"
	 width="115.965px" height="103.018px" viewBox="0 0 115.965 103.018" enable-background="new 0 0 115.965 103.018"
	 xml:space="preserve">
<g>
	<path fill-rule="evenodd" clip-rule="evenodd" d="M115.965,0c-0.802,4.896-1.327,9.858-2.469,14.674
		c-1.764,7.438-4.031,14.755-5.907,22.168c-0.552,2.179-0.534,4.506-0.729,6.771c-0.312,3.631-0.796,7.265-0.831,10.901
		c-0.108,11.162-0.199,22.329,0.049,33.486c0.089,4.019-1.431,6.24-5.062,7.453c-8.221,2.743-16.606,4.456-25.211,5.774
		c-16.759,2.57-33.545,1.556-50.325,1.744c-5.295,0.06-10.596-0.686-15.899-0.979c-2.673-0.148-4.552-1.694-5.397-3.863
		c-1.373-3.519-2.831-7.224-3.064-10.926c-0.702-11.11-0.97-22.255-1.114-33.39c-0.062-4.778,0.601-9.565,0.962-14.74
		c1.071-0.361,2.259-0.965,3.509-1.154c9.018-1.369,18.038-2.742,27.08-3.941c9.375-1.243,18.773-2.306,28.165-3.412
		c2.305-0.271,4.626-0.388,6.938-0.6c7.435-0.684,14.876-1.311,22.295-2.136c1.198-0.134,2.491-0.966,3.408-1.828
		c5.83-5.473,11.379-11.207,15.878-17.874c1.854-2.747,3.815-5.421,5.727-8.129C114.632,0,115.299,0,115.965,0z M106.69,20.768
		c-2.289,1.525-4.972,2.779-6.951,4.741c-4.309,4.272-9.585,6.511-15.301,7.403c-7.667,1.197-15.568,0.637-23.121,2.932
		c-0.925,0.281-1.986,0.092-2.98,0.168c-4.958,0.375-9.931,0.633-14.872,1.18c-10.865,1.203-21.719,2.518-32.565,3.884
		c-1.897,0.239-3.733,0.959-5.478,1.425c-0.851,9.583-3.688,18.47-2.134,27.691c1.525,9.049-0.184,18.62,4.087,27.132
		c0.751,0.256,1.207,0.471,1.685,0.564c7.336,1.43,14.681,1.495,22.175,1.263c12.776-0.396,25.522-0.795,38.252-2.075
		c10.317-1.038,20.171-3.965,30.114-6.58c0.74-0.194,1.352-0.872,1.77-1.153c0.201-0.493,0.324-0.648,0.317-0.798
		c-0.394-8.923,1.878-17.805,0.388-26.753c-0.184-1.104,0.261-2.299,0.274-3.453c0.03-2.617-0.045-5.236-0.043-7.855
		c0.003-4.43-0.498-8.943,0.194-13.265c0.728-4.54,2.677-8.875,3.942-13.341C106.811,22.581,106.666,21.14,106.69,20.768z"/>
	<path fill-rule="evenodd" clip-rule="evenodd" fill="#FFFFFF" d="M106.69,20.768c-0.024,0.372,0.12,1.813-0.247,3.109
		c-1.266,4.467-3.215,8.801-3.942,13.341c-0.692,4.321-0.191,8.835-0.194,13.265c-0.002,2.619,0.073,5.238,0.043,7.855
		c-0.014,1.154-0.458,2.349-0.274,3.453c1.49,8.948-0.781,17.83-0.388,26.753c0.007,0.149-0.116,0.305-0.317,0.798
		c-0.418,0.281-1.029,0.959-1.77,1.153c-9.943,2.615-19.797,5.542-30.114,6.58c-12.73,1.28-25.476,1.679-38.252,2.075
		c-7.494,0.232-14.838,0.167-22.175-1.263c-0.478-0.094-0.933-0.309-1.685-0.564C3.104,88.812,4.812,79.24,3.288,70.191
		C1.733,60.97,4.571,52.083,5.421,42.5c1.745-0.466,3.581-1.186,5.478-1.425c10.846-1.366,21.7-2.681,32.565-3.884
		c4.941-0.547,9.914-0.805,14.872-1.18c0.994-0.076,2.056,0.113,2.98-0.168c7.553-2.295,15.454-1.734,23.121-2.932
		c5.716-0.893,10.992-3.131,15.301-7.403C101.719,23.546,104.401,22.292,106.69,20.768z"/>
</g>
</svg>
