<?xml version="1.0" standalone="no"?>
<!DOCTYPE svg PUBLIC "-//W3C//DTD SVG 1.1//EN" "http://www.w3.org/Graphics/SVG/1.1/DTD/svg11.dtd" >
<svg xmlns="http://www.w3.org/2000/svg">
<metadata>
This is a custom SVG webfont generated by Font Squirrel.
</metadata>
<defs>
<font id="NewCreatureSlabSerifBdIt" horiz-adv-x="681" >
<font-face units-per-em="2048" ascent="1638" descent="-410" />
<missing-glyph horiz-adv-x="512" />
<glyph unicode=" "  horiz-adv-x="512" />
<glyph unicode="&#x09;" horiz-adv-x="512" />
<glyph unicode="&#xa0;" horiz-adv-x="512" />
<glyph unicode="!" d="M104 0l72 313h313l-71 -313h-314zM301 485l47 525l88 381h289l-88 -381l-199 -525h-137z" />
<glyph unicode="&#x22;" horiz-adv-x="1130" d="M301 1055v336h221v-336l-28 -367h-164zM788 1055v336h222v-336l-29 -367h-164z" />
<glyph unicode="#" horiz-adv-x="1368" d="M162 340v223h194l56 266h-250v224h299l78 374h233l-78 -374h305l76 374h236l-78 -374h151v-224h-196l-58 -266h254v-223h-299l-79 -367h-234l80 367h-311l-78 -367h-234l78 367h-145zM590 563h309l55 266h-309z" />
<glyph unicode="$" horiz-adv-x="1024" d="M90 271.5q-12 66.5 0 138.5h229q-12 -98 20 -150.5t79 -71.5l92 408q-123 78 -183.5 177t-60.5 208q0 80 31 149.5t86 119.5t133 81t172 35l17 66h126l-18 -76q68 -14 127 -45t98 -81t49.5 -121t-16.5 -165h-217q27 88 4.5 139.5t-88.5 83.5l-88 -381q156 -98 221.5 -190 t65.5 -201q0 -68 -24.5 -142.5t-80 -137t-145.5 -102.5t-223 -33l-39 -170h-127l43 190q-80 18 -138.5 57t-95.5 93.5t-49 121zM498 1024q0 -41 17 -77t58 -77l74 314q-149 -35 -149 -160zM541 174q37 4 69.5 20.5t58 43t40 58.5t14.5 66q0 41 -25.5 82t-76.5 74z" />
<glyph unicode="%" horiz-adv-x="1898" d="M254 969q0 94 29.5 174t82 138t123 92t152.5 34q131 0 204 -73.5t73 -205.5q0 -94 -30 -175t-81 -141t-122 -94t-150 -34q-133 0 -207 75t-74 210zM279 0l1333 1391h180l-1333 -1391h-180zM479 905q0 -43 16.5 -67.5t45.5 -24.5q41 0 69.5 51t47 118t26.5 130.5t8 89.5 q0 76 -59 76q-41 0 -69.5 -51t-47 -117t-28 -126.5t-9.5 -78.5zM1141 258q0 94 29.5 174t82 138.5t123 92t152.5 33.5q131 0 203.5 -73.5t72.5 -204.5q0 -94 -29.5 -175t-81 -141.5t-122 -94.5t-150.5 -34q-133 0 -206.5 75t-73.5 210zM1366 195q0 -43 16.5 -68t44.5 -25 q41 0 70 51.5t47.5 118t26.5 130t8 90.5q0 76 -59 75q-41 0 -70 -51t-47.5 -116.5t-27.5 -126t-9 -78.5z" />
<glyph unicode="&#x26;" horiz-adv-x="1515" d="M111 397q0 88 34.5 164t93 139.5t136.5 112.5t164 86q-59 106 -60 197q0 68 30 125t82 100t123.5 67.5t153.5 24.5q70 0 130.5 -19.5t103.5 -55t67.5 -85t24.5 -106.5q0 -98 -66.5 -177t-222.5 -153l182 -280q45 74 77 151.5t61 153.5h348l-51 -217h-133 q-41 -102 -79 -171t-85 -126l73 -111h142l-51 -217h-267l-90 139q-102 -74 -217 -119t-244 -45q-115 0 -200.5 38t-143 98.5t-87 136t-29.5 149.5zM403 426q0 -47 16.5 -89t46.5 -73t68.5 -48t83.5 -17q61 0 130 27.5t155 95.5l-252 393q-129 -59 -188.5 -128t-59.5 -161z M750 1124q0 -33 10 -60.5t33 -68.5q98 35 141 72t43 84q0 41 -29.5 66.5t-77.5 25.5q-53 0 -86.5 -33t-33.5 -86z" />
<glyph unicode="'" horiz-adv-x="575" d="M268 1055v336h221v-336l-28 -367h-164z" />
<glyph unicode="(" horiz-adv-x="704" d="M135 250q0 106 21.5 226t65.5 240t109.5 234.5t152.5 208.5t195.5 162t238.5 96l-44 -190q-80 -35 -145 -112t-116.5 -178t-89.5 -219t-62.5 -234.5t-36.5 -221t-12 -180.5q0 -221 123 -330l-46 -192q-354 213 -354 690z" />
<glyph unicode=")" horiz-adv-x="704" d="M-162 -440l43 190q80 33 145.5 111t117 179t89 219t62 234.5t37 221t12.5 180.5q0 221 -123 330l45 192q354 -213 355 -690q0 -106 -21.5 -226t-66 -240t-110 -234.5t-152.5 -208.5t-195.5 -161.5t-237.5 -96.5z" />
<glyph unicode="*" horiz-adv-x="1153" d="M229 1040l133 211l150 -92q10 -25 22.5 -46t32 -42.5t47 -46.5t66.5 -55q10 86 11 148.5t-19 121.5l37 164l237 -57l-39 -162q-43 -41 -77.5 -105.5t-51.5 -132.5q92 20 151.5 39t96.5 55l170 17l21 -246l-164 -20q-68 39 -128.5 45t-138.5 6q41 -80 78 -124t94 -81 l68 -162l-225 -90l-70 162q12 53 0 117.5t-39 138.5q-111 -111 -135 -215l-127 -113l-164 180l129 113q76 10 127 39t111 70q-76 35 -135.5 54t-116.5 15z" />
<glyph unicode="+" horiz-adv-x="1368" d="M209 561v260h434v434h260v-434h434v-260h-434v-434h-260v434h-434z" />
<glyph unicode="," d="M43 -367l33 142q90 20 133 83.5t59 141.5h-145l72 313h313l-72 -313q-14 -66 -41.5 -129.5t-74 -115.5t-114 -85t-163.5 -37z" />
<glyph unicode="-" horiz-adv-x="704" d="M123 356l59 256h482l-60 -256h-481z" />
<glyph unicode="." d="M123 0l72 313h313l-72 -313h-313z" />
<glyph unicode="/" horiz-adv-x="1040" d="M98 -29l740 1420h284l-737 -1420h-287z" />
<glyph unicode="0" horiz-adv-x="1110" d="M164 467q0 68 15.5 165t46 201.5t78.5 209t115.5 186.5t153.5 133t195 51q82 0 148.5 -32.5t112.5 -94t71.5 -148.5t25.5 -194q0 -84 -15 -188.5t-48 -212t-82 -210t-116.5 -181t-153.5 -127t-191 -48.5q-166 0 -261 130.5t-95 359.5zM432 334q0 -80 30 -114t77 -34 q29 0 47 10.5t41 32.5q31 31 59.5 96.5t54 149.5t48 176t38 174t24.5 146.5t9 91.5q0 66 -28.5 103.5t-77.5 37.5q-27 0 -46.5 -10t-39.5 -31q-33 -33 -63 -101.5t-55.5 -155.5t-47 -181t-37.5 -176t-24.5 -140.5t-8.5 -74.5z" />
<glyph unicode="1" horiz-adv-x="1110" d="M176 0l47 207h160l225 977h-159l49 207h456l-274 -1184h149l-47 -207h-606z" />
<glyph unicode="2" horiz-adv-x="1110" d="M84 0l18 100q23 127 86.5 232.5t143.5 193.5t167 164t159.5 145.5t119.5 137t47 141.5q0 39 -28.5 64.5t-71.5 25.5q-78 0 -139.5 -82t-96.5 -235h-262q121 526 539 526q162 0 258 -86t96 -229q0 -82 -32.5 -158t-104.5 -147q-55 -55 -142 -119t-179.5 -137.5 t-175.5 -156.5t-128 -173h353l59 252h217l-106 -459h-797z" />
<glyph unicode="3" horiz-adv-x="1110" d="M119 453h258q-27 -123 10 -195t121 -72q55 0 92 32t60.5 77t34 91t10.5 77q0 82 -44.5 120t-146.5 38h-25l50 208q84 4 133 20.5t86 53.5q33 33 55.5 90.5t22.5 114.5q0 41 -30 68.5t-75 27.5q-66 0 -113 -50t-67 -144h-262q47 207 156.5 305t295.5 98q174 0 276.5 -90 t102.5 -244q0 -68 -21.5 -128t-62.5 -107t-101.5 -80t-139.5 -45v-4q102 -41 154 -120t52 -183q0 -90 -36.5 -170t-100 -138.5t-149.5 -92.5t-185 -34q-104 0 -189 31t-140.5 90.5t-77.5 148.5t-4 206z" />
<glyph unicode="4" horiz-adv-x="1110" d="M119 612l676 803h268l-197 -854h211l-43 -180h-211l-45 -195h131l-43 -186h-538l43 186h131l45 195h-410zM281 561h309l117 506l-5 4z" />
<glyph unicode="5" horiz-adv-x="1110" d="M139 434h262q-35 -121 -3 -184.5t104 -63.5q68 0 114 48.5t74.5 113t40.5 127t12 90.5q0 59 -33.5 96t-80.5 37q-43 0 -83 -21.5t-67 -60.5l-200 125l186 650h711l-76 -330h-199l12 123h-292l-82 -307q104 37 194 24.5t157.5 -63t106.5 -132t39 -184.5q0 -115 -41 -214 t-113.5 -173t-170 -116t-209.5 -42q-197 0 -296.5 119t-66.5 338z" />
<glyph unicode="6" horiz-adv-x="1110" d="M168 424q0 84 20.5 197.5t60.5 232.5t98.5 228.5t135.5 187.5q66 66 151 104.5t189 38.5q68 0 135.5 -22.5t119.5 -71.5t78 -129t9 -195h-241q27 104 -9 153.5t-104 49.5q-41 0 -77 -18.5t-70.5 -62.5t-68.5 -114.5t-67 -175.5q53 29 93.5 38t87.5 9q74 0 134 -27.5 t103 -77.5t66.5 -118.5t23.5 -150.5q0 -106 -39 -200.5t-105.5 -166.5t-154.5 -114t-186 -42q-178 0 -280.5 119t-102.5 328zM430 354q0 -74 35 -116.5t94 -42.5q39 0 77 25.5t65.5 67.5t45 96t17.5 114q0 74 -39 120t-100 46q-51 0 -87 -21.5t-71 -69.5 q-10 -41 -17.5 -70.5t-11.5 -54t-6 -47t-2 -47.5z" />
<glyph unicode="7" horiz-adv-x="1110" d="M143 0l47 207h148q78 272 225.5 515t345.5 462h-413l-41 -170h-217l88 377h891l-48 -209q-84 -98 -164.5 -224.5t-148.5 -260.5t-119 -262t-78 -228h138l-47 -207h-607z" />
<glyph unicode="8" horiz-adv-x="1110" d="M137 332q0 150 82 258t236 162q-129 104 -129 249q0 70 27.5 143t84 132t140.5 98t194 39q82 0 150.5 -24.5t116.5 -70.5t75 -109.5t27 -141.5q0 -55 -15.5 -112.5t-49.5 -106.5t-85 -88t-121 -58q150 -111 150 -272q0 -92 -39 -175t-104.5 -144.5t-153.5 -97.5t-188 -36 q-74 0 -145 20.5t-127 63.5t-91 110t-35 161zM426 305q0 -55 29.5 -87t83.5 -32q53 0 92 33t63.5 81t36.5 104.5t12 105.5q0 53 -29.5 87t-82.5 34q-61 0 -100 -40t-63 -94.5t-33 -108.5t-9 -83zM584 907q0 -47 25.5 -69.5t68.5 -22.5q53 0 90 32t58.5 78t30.5 98t9 91 q0 43 -28.5 66.5t-71.5 23.5q-55 0 -91 -39t-56.5 -89t-27.5 -99.5t-7 -69.5z" />
<glyph unicode="9" horiz-adv-x="1110" d="M121 395h241q-27 -104 9.5 -153t103.5 -49q39 0 76 18t71.5 62t68.5 115t67 175q-53 -29 -93 -38t-87 -9q-74 0 -134.5 27.5t-103.5 78t-66.5 119t-23.5 150.5q0 106 39 200.5t105.5 166t154.5 113.5t186 42q178 0 280.5 -118.5t102.5 -327.5q0 -84 -20.5 -199 t-60.5 -232.5t-99 -228t-135 -186.5q-66 -66 -151 -105t-189 -39q-68 0 -135.5 23t-119.5 72t-77.5 128.5t-9.5 194.5zM522 893q0 -74 39 -120t101 -46q51 0 86.5 21.5t70.5 68.5q10 39 17.5 70t11.5 55.5t6 47t2 46.5q0 74 -35 117t-94 43q-41 0 -78 -25.5t-64.5 -67.5 t-45 -96.5t-17.5 -113.5z" />
<glyph unicode=":" d="M123 0l72 313h313l-72 -313h-313zM276 655l72 314h314l-72 -314h-314z" />
<glyph unicode=";" d="M43 -367l33 142q90 20 133 83.5t59 141.5h-145l72 313h313l-72 -313q-14 -66 -41.5 -129.5t-74 -115.5t-114 -85t-163.5 -37zM276 655l72 314h314l-72 -314h-314z" />
<glyph unicode="&#x3c;" horiz-adv-x="1366" d="M209 565v238l1126 467v-283l-768 -303l768 -303v-283z" />
<glyph unicode="=" horiz-adv-x="1366" d="M209 313v260h1128v-260h-1128zM209 795v260h1128v-260h-1128z" />
<glyph unicode="&#x3e;" horiz-adv-x="1366" d="M211 98v283l768 303l-768 303v283l1126 -467v-238z" />
<glyph unicode="?" horiz-adv-x="1110" d="M195 1059q27 74 71.5 138.5t111 111.5t153.5 73.5t200 26.5q104 0 184 -26.5t133.5 -74.5t81 -113t27.5 -140q0 -80 -31.5 -155t-93 -133t-151.5 -96t-207 -44l-66 -152h-133l33 356q78 -4 142.5 11.5t111.5 46.5t72.5 74t25.5 92q0 72 -48 115.5t-126 43.5 q-72 0 -126 -42t-75 -113h-290zM281 0l71 313h314l-72 -313h-313z" />
<glyph unicode="@" horiz-adv-x="2004" d="M152 483q0 102 21.5 218t71.5 227.5t129 214t192.5 179.5t266 123t347.5 46q190 0 345.5 -57.5t267.5 -158.5t173.5 -240.5t61.5 -305.5q0 -145 -49.5 -276t-137.5 -232.5t-210 -161t-265 -59.5q-70 0 -118 24.5t-64 92.5q-111 -117 -269 -117q-96 0 -167.5 34t-120.5 92 t-74 139t-25 177q0 55 14.5 124t43 140.5t72.5 139t104.5 121t136.5 85t168 31.5q86 0 152.5 -31.5t113.5 -103.5l25 111h264l-164 -772q-8 -39 3.5 -60.5t35.5 -21.5q29 0 87 34.5t116.5 102.5t102.5 167t44 228q0 92 -34.5 193.5t-114.5 185.5t-210 139.5t-321 55.5 q-209 0 -362.5 -70t-256 -185.5t-152.5 -264t-50 -308.5q0 -172 55.5 -308t163 -229t266 -142.5t363.5 -49.5q98 0 192.5 12.5t180.5 43t162.5 81t138.5 127.5h213q-119 -231 -344.5 -337.5t-562.5 -106.5q-272 0 -466 73.5t-318 197.5t-181 289t-57 349zM786 426 q0 -123 51.5 -183.5t133.5 -60.5q78 0 135 51.5t96 126t57.5 159.5t18.5 151q0 111 -51 172t-129 61q-57 0 -103.5 -24.5t-81 -64.5t-58.5 -91t-39 -104.5t-22.5 -103.5t-7.5 -89z" />
<glyph unicode="A" horiz-adv-x="1323" d="M-76 0l51 217h134l526 957h-135l49 217h805l-49 -217h-119l41 -957h143l-51 -217h-580l52 217h129v234h-422l-117 -234h129l-51 -217h-535zM602 649h309l-16 537h-14z" />
<glyph unicode="B" horiz-adv-x="1366" d="M12 0l51 217h138l221 957h-137l49 217h631q127 0 209.5 -32t131 -81t68 -109.5t19.5 -117.5q0 -131 -81 -217t-235 -117q111 -66 162 -141.5t51 -178.5q0 -106 -47 -182t-118.5 -123t-154.5 -69.5t-153 -22.5h-805zM553 207h166q68 0 113 26.5t70.5 65.5t36.5 84t11 80 q0 72 -45 119t-135 47h-119zM696 825h129q66 0 109 19.5t68.5 50.5t36 70t10.5 79q0 76 -41 106t-107 30h-123z" />
<glyph unicode="C" horiz-adv-x="1579" d="M168 596q0 166 74.5 314.5t202.5 260t297 177t360 65.5q133 0 221 -36t162 -120l31 134h223l-105 -453h-223q-16 111 -98 170t-215 59q-113 0 -214.5 -48t-178 -128t-122.5 -186.5t-46 -222.5q0 -76 24.5 -138.5t67.5 -107.5t102.5 -70.5t130.5 -25.5q119 0 232.5 62.5 t212.5 178.5l223 -164q-129 -162 -307.5 -248.5t-376.5 -86.5q-147 0 -271 46t-215.5 128t-141.5 194.5t-50 245.5z" />
<glyph unicode="D" horiz-adv-x="1556" d="M-16 0l51 217h168l219 957h-168l51 217h574q193 0 321.5 -54.5t206.5 -142.5t109.5 -196.5t31.5 -219.5q0 -166 -53 -308t-153.5 -246.5t-242 -164t-317.5 -59.5h-798zM555 217h211q84 0 148.5 34t110.5 89t77 123.5t50 138.5t26.5 133.5t7.5 108.5q0 72 -22.5 132 t-64.5 104t-102.5 69t-138.5 25h-84z" />
<glyph unicode="E" horiz-adv-x="1300" d="M18 0l52 217h131l221 957h-131l49 217h1137l-103 -443h-260l51 226h-393l-80 -357h326l-51 -217h-326l-88 -383h401l52 219h251l-102 -436h-1137z" />
<glyph unicode="F" horiz-adv-x="1193" d="M-35 0l51 217h187l219 957h-205l51 217h1194l-104 -451h-258l53 234h-379l-80 -357h289l-51 -217h-289l-88 -383h190l-51 -217h-729z" />
<glyph unicode="G" horiz-adv-x="1665" d="M166 606q0 164 73.5 310.5t199.5 257t293 175t353 64.5q127 0 216.5 -31.5t175.5 -107.5l26 117h223l-102 -447h-223q0 51 -23.5 93t-63.5 73t-95.5 48.5t-118.5 17.5q-115 0 -217.5 -49.5t-180 -132.5t-122.5 -194.5t-45 -234.5q0 -72 23.5 -132t66.5 -104t102 -68.5 t131 -24.5q145 0 229 55t107 141h-219l49 217h643q-20 -143 -89 -266t-178.5 -212t-255 -139t-319.5 -50q-170 0 -294.5 56t-205.5 145t-120 200.5t-39 222.5z" />
<glyph unicode="H" horiz-adv-x="1515" d="M18 0l52 217h129l221 957h-131l51 217h604l-51 -217h-141l-78 -338h401l78 338h-129l51 217h567l-51 -217h-106l-219 -957h141l-51 -217h-604l49 217h133l90 401h-401l-91 -401h142l-51 -217h-605z" />
<glyph unicode="I" horiz-adv-x="811" d="M-18 0l49 217h176l221 957h-197l50 217h702l-49 -217h-152l-221 -957h201l-51 -217h-729z" />
<glyph unicode="J" horiz-adv-x="768" d="M-244 -397l66 231q52 -9 95 -9q35 0 66 6q67 13 114.5 64.5t81.5 140.5t65 222l211 916h-183l52 217h688l-51 -217h-154l-238 -1029q-29 -129 -72.5 -233.5t-134.5 -194.5q-100 -100 -260 -135q-62 -13 -127 -13q-105 0 -219 34z" />
<glyph unicode="K" horiz-adv-x="1449" d="M14 0l52 217h137l219 957h-137l51 217h620l-49 -217h-131l-221 -957h131l-51 -217h-621zM686 729l537 440v5h-144l51 217h609l-51 -217h-121l-539 -445l307 -512h131l-49 -217h-612l51 217h131z" />
<glyph unicode="L" horiz-adv-x="1236" d="M20 0l50 217h131l221 957h-166l51 217h649l-51 -217h-131l-219 -957h389l98 428h267l-150 -645h-1139z" />
<glyph unicode="M" horiz-adv-x="2091" d="M12 0l51 217h138l221 957h-139l51 217h616l115 -836h4l512 836h639l-51 -217h-107l-219 -957h144l-52 -217h-606l49 217h131l222 957h-27l-717 -1174h-149l-160 1174h-35l-221 -957h131l-49 -217h-492z" />
<glyph unicode="N" horiz-adv-x="1622" d="M20 0l52 217h131l219 957h-131l51 217h518l314 -963h4l170 746h-131l51 217h501l-51 -217h-131l-272 -1186h-305l-359 1120h-4l-203 -891h146l-51 -217h-519z" />
<glyph unicode="O" horiz-adv-x="1685" d="M172 559q0 162 65.5 316.5t182.5 274.5t279.5 193.5t359.5 73.5q158 0 275.5 -50t196.5 -131t118 -185.5t39 -212.5q0 -178 -70 -335t-192.5 -272.5t-287.5 -182t-356 -66.5q-133 0 -244.5 43t-192.5 119.5t-127 183t-46 231.5zM541 535q0 -145 77.5 -226.5t217.5 -81.5 q92 0 163.5 35t125 91.5t91 127t60 142t33 138t10.5 113.5q0 66 -21.5 120.5t-60.5 94t-93 61t-120 21.5q-123 0 -214 -65.5t-151.5 -162.5t-89 -207.5t-28.5 -200.5z" />
<glyph unicode="P" horiz-adv-x="1323" d="M23 0l49 217h131l221 957h-156l51 217h596q139 0 236.5 -33t158 -88.5t87 -130t26.5 -160.5q0 -90 -30.5 -174t-102.5 -156q-66 -66 -179.5 -103.5t-285.5 -37.5h-202l-68 -291h168l-49 -217h-651zM672 725h119q76 0 129 25.5t84.5 65.5t46 89t14.5 96q0 172 -195 173 h-94z" />
<glyph unicode="Q" horiz-adv-x="1685" d="M172 555q0 176 70.5 332.5t191.5 274.5t283 186.5t344 68.5q166 0 284.5 -53t194.5 -137t112 -186.5t36 -202.5q0 -145 -54.5 -295t-165 -273t-275.5 -201.5t-386 -82.5v-4q72 -33 129 -59.5t107.5 -45t100.5 -25.5q27 -4 57 -4q25 0 52 2l-67 -202q-23 -2 -45 -2 q-77 0 -140 22q-80 29 -145 66t-121.5 69.5t-113.5 32.5q-109 0 -215 -86l-37 156q53 45 100 65.5t119 26.5v4q-195 57 -305.5 203.5t-110.5 349.5zM541 535q0 -145 77.5 -226.5t217.5 -81.5q92 0 163.5 35t125 91.5t91 127t60 142t33 138t10.5 113.5q0 66 -21.5 120.5 t-60.5 94t-93 61t-120 21.5q-123 0 -214 -65.5t-151.5 -162.5t-89 -207.5t-28.5 -200.5z" />
<glyph unicode="R" horiz-adv-x="1429" d="M16 0l52 217h137l221 957h-137l49 217h723q111 0 187.5 -35t124.5 -90.5t69.5 -122t21.5 -129.5q0 -55 -17 -117.5t-56 -116t-99.5 -92.5t-146.5 -49l119 -422h139l-51 -217h-355l-153 618h-195l-92 -401h133l-53 -217h-621zM690 797h150q53 0 101 11t84 36.5t57.5 67.5 t21.5 104q0 78 -47 118t-119 40h-160z" />
<glyph unicode="S" horiz-adv-x="1044" d="M23 0l100 432h231q-9 -31 -9 -59q0 -16 3 -30q8 -40 30.5 -66.5t55.5 -41t68 -14.5q78 0 129 50.5t51 125.5q0 57 -30.5 105.5t-76 93.5t-98.5 90t-98 97.5t-76 112.5t-31 136q0 51 18.5 114.5t62.5 120t119 95.5t187 39q92 0 155 -24.5t118 -84.5l22 99h222l-86 -367 h-222q3 16 4 30q0 45 -34 78q-45 42 -123 42q-66 0 -99.5 -29t-33.5 -70q0 -45 30.5 -85t76.5 -82t100.5 -88t100.5 -103.5t76.5 -129t30.5 -161.5q0 -100 -33.5 -183t-93 -142.5t-141.5 -92.5t-178 -33q-86 0 -147.5 29t-124.5 100l-25 -104h-231z" />
<glyph unicode="T" horiz-adv-x="1409" d="M211 848l125 543h1237l-125 -543h-223l75 326h-219l-219 -957h160l-51 -217h-674l51 217h160l219 957h-219l-74 -326h-223z" />
<glyph unicode="U" horiz-adv-x="1449" d="M249 275q-8 38 -8 84q0 78 23 180l146 635h-107l49 217h604l-49 -217h-143l-162 -693q-12 -50 -12 -88q0 -21 4 -40q10 -50 36.5 -78.5t67.5 -41t84 -12.5q109 0 176.5 78t106.5 248l145 627h-131l49 217h478l-50 -217h-106l-162 -701q-35 -145 -92 -241.5t-132 -152.5 t-166 -79t-189 -23q-117 0 -215.5 35t-169.5 107q-53 53 -75 156z" />
<glyph unicode="V" horiz-adv-x="1323" d="M147 1174l52 217h592l-52 -217h-123l68 -754h4l432 754h-123l52 217h532l-49 -217h-131l-692 -1184h-289l-131 1184h-142z" />
<glyph unicode="W" horiz-adv-x="1835" d="M129 1174l49 217h572l-50 -217h-125l39 -689h4l379 689h-139l49 217h502l-51 -217h-125l41 -689h4l379 689h-139l49 217h544l-49 -217h-127l-659 -1184h-279l-36 618h-5l-340 -618h-276l-74 1184h-137z" />
<glyph unicode="X" horiz-adv-x="1386" d="M-74 0l49 217h119l490 535l-234 422h-135l51 217h602l-47 -209h-119l158 -293l252 293h-115l50 209h561l-49 -217h-129l-449 -506l248 -451h139l-49 -217h-610l49 209h131l-187 323l-290 -323h125l-48 -209h-563z" />
<glyph unicode="Y" horiz-adv-x="1280" d="M156 1174l51 217h577l-51 -217h-112l141 -386l328 386h-115l51 217h559l-49 -217h-131l-520 -574l-90 -383h143l-53 -217h-627l51 217h131l88 383l-235 574h-137z" />
<glyph unicode="Z" horiz-adv-x="1236" d="M8 0l51 217l875 967h-387l-51 -219h-213l98 426h1028l-43 -187l-893 -997h445l55 231h217l-103 -438h-1079z" />
<glyph unicode="[" horiz-adv-x="788" d="M61 -414l418 1805h533l-43 -189h-236l-330 -1427h236l-45 -189h-533z" />
<glyph unicode="\" horiz-adv-x="1040" d="M98 1391h285l739 -1420h-286z" />
<glyph unicode="]" horiz-adv-x="788" d="M-150 -414l44 189h235l330 1427h-236l45 189h533l-418 -1805h-533z" />
<glyph unicode="^" horiz-adv-x="1193" d="M205 592l377 799h221l366 -799h-284l-197 489l-196 -489h-287z" />
<glyph unicode="_" horiz-adv-x="1024" d="M-12 -154h1048v-102h-1048v102z" />
<glyph unicode="`" d="M156 1432h356l184 -361h-161z" />
<glyph unicode="a" horiz-adv-x="1173" d="M94 256q0 74 30 138.5t91 112.5t153.5 76.5t217.5 28.5q20 0 75.5 -9t102.5 -19l16 80q6 33 -5 59.5t-34.5 43.5t-56.5 26.5t-70 9.5q-51 0 -103 -15.5t-124 -50.5l-147 146q109 57 208 83.5t211 26.5q231 0 340 -104q79 -76 79 -190q0 -43 -11 -91l-94 -401h162 l-60 -207h-446l18 78q-78 -49 -137 -69.5t-125 -20.5q-63 0 -116.5 20.5t-92.5 55t-60.5 84t-21.5 108.5zM369 283q0 -47 33.5 -78t80.5 -31q96 0 205 84l37 160q-47 12 -74.5 16t-72.5 4q-94 0 -151.5 -43.5t-57.5 -111.5z" />
<glyph unicode="b" horiz-adv-x="1236" d="M-14 0l49 207h106l226 977h-131l47 207h428l-123 -527l4 -4q59 66 129 99.5t147 33.5q74 0 136.5 -27.5t107.5 -77.5t70.5 -120t25.5 -152q0 -129 -41 -242.5t-110.5 -199.5t-161.5 -136t-195 -50q-86 0 -151.5 37.5t-124.5 124.5l-35 -150h-403zM492 393 q0 -78 41.5 -127t113.5 -49q51 0 97.5 29.5t81 80t55 116t20.5 139.5q0 84 -40 134t-105 50q-66 0 -115 -36t-82 -91t-50 -121t-17 -125z" />
<glyph unicode="c" horiz-adv-x="1087" d="M113 401q0 119 44 224.5t120.5 183.5t180 124t220.5 46q70 0 122 -16.5t111 -57.5l15 64h217l-84 -363h-217q-4 66 -47 103q-41 37 -113 36q-55 0 -103.5 -26.5t-83 -73.5t-55 -111.5t-20.5 -138.5q0 -84 47 -135t119 -51q66 0 124 38t99 107l213 -104 q-168 -279 -465 -279q-100 0 -182 31t-140.5 87t-90 135t-31.5 177z" />
<glyph unicode="d" horiz-adv-x="1236" d="M109 383q0 125 40.5 235.5t109.5 193.5t161 132t196 49q86 0 158 -43t121 -121l82 355h-148l50 207h442l-272 -1184h131l-47 -207h-428l28 119l-4 4q-129 -137 -287 -137q-76 0 -137 28.5t-105 80.5t-67.5 125t-23.5 163zM412 391q0 -76 41 -123t118 -47q61 0 109.5 38 t82.5 93.5t51 114.5t17 102q0 92 -49 142.5t-120 50.5q-51 0 -96.5 -30t-79 -81t-54 -118.5t-20.5 -141.5z" />
<glyph unicode="e" horiz-adv-x="1130" d="M123 391q0 117 41 226.5t114.5 192.5t177 133t226.5 50q94 0 182 -35.5t149.5 -106.5t87.5 -177q12 -50 12 -109q0 -65 -15 -141h-688q-5 -33 -5.5 -61.5t5.5 -53.5q10 -49 34.5 -81.5t60.5 -48t79 -15.5q125 0 198 125l219 -99q-145 -219 -436 -219q-102 0 -183 30 t-139.5 84t-89 132t-30.5 174zM446 582h383q4 24 4 44q0 26 -6 49q-10 40 -32.5 67.5t-55 42t-67.5 14.5q-154 0 -226 -217z" />
<glyph unicode="f" d="M16 0l47 207h99l129 555h-148l47 207h148q20 98 56 179t89.5 138t126 89t170.5 32q66 0 119 -16.5t121 -59.5l-80 -198q-35 33 -63.5 45t-63.5 12q-80 0 -115.5 -56.5t-62.5 -164.5h125l-47 -207h-125l-129 -555h131l-47 -207h-527z" />
<glyph unicode="g" horiz-adv-x="1236" d="M-37 -360l90 215q53 -25 95 -40.5t79 -25.5t72 -14t72 -4q135 0 219 58t110 171l27 106l-4 5q-72 -66 -129 -92.5t-131 -26.5q-80 0 -144.5 28.5t-110.5 81t-70.5 127t-24.5 164.5q0 117 41 223.5t110.5 186.5t160.5 128t193 48q172 0 269 -170l37 160h409l-47 -207h-106 l-170 -731q-55 -240 -206 -363t-398 -123q-123 0 -237 24t-206 71zM414 395q0 -72 39 -124t122 -52q66 0 113 35t77 87t44 114.5t14 115.5q0 33 -9 65t-28.5 56.5t-49 40t-68.5 15.5q-63 0 -110.5 -37t-79.5 -90.5t-48 -115t-16 -110.5z" />
<glyph unicode="h" horiz-adv-x="1236" d="M10 0l47 207h107l225 977h-131l49 207h428l-127 -547q61 39 107.5 65.5t84.5 43t71.5 22.5t68.5 6q63 0 110.5 -25.5t74 -70.5t31.5 -107q1 -15 1 -30q0 -49 -12 -105l-103 -436h132l-48 -207h-428l144 621q6 25 6 45q0 28 -11 47q-19 33 -57 32q-82 0 -221 -110 l-98 -428h129l-47 -207h-533z" />
<glyph unicode="i" d="M27 0l47 207h106l129 555h-131l47 207h428l-176 -762h131l-47 -207h-534zM401 1255q0 68 47.5 115t114.5 47q68 0 116 -47t48 -115t-48 -115.5t-116 -47.5t-115 47.5t-47 115.5z" />
<glyph unicode="j" horiz-adv-x="661" d="M-115 -403l49 217q25 -2 46 -3q36 0 63 7q43 10 70.5 37.5t44 72.5t30.5 107l168 727h-131l47 207h428l-221 -959q-27 -115 -65.5 -196.5t-94 -134t-129 -77t-170.5 -24.5q-41 0 -69.5 4.5t-65.5 14.5zM449 1255q0 68 47 115t114 47q68 0 116 -47t48 -115t-48 -115.5 t-116 -47.5t-114.5 47.5t-46.5 115.5z" />
<glyph unicode="k" horiz-adv-x="1173" d="M8 0l47 207h107l225 977h-135l49 207h432l-205 -883l4 -4l340 305h-161l37 160h499l-30 -187h-89l-292 -260l170 -315h122l-49 -207h-282l-269 504l-71 -307h106l-45 -197h-510z" />
<glyph unicode="l" d="M20 0l48 207h106l225 977h-137l47 207h434l-272 -1184h131l-47 -207h-535z" />
<glyph unicode="m" horiz-adv-x="1984" d="M-18 0l47 207h139l129 555h-174l47 207h471l-31 -135q66 41 118 69.5t96 46t83 24.5t78 7q193 0 250 -174q115 72 220.5 123t201.5 51q57 0 111.5 -20.5t91 -61.5t52.5 -100q7 -27 7 -58q0 -36 -10 -77l-105 -457h152l-47 -207h-449l135 575q8 33 8 61q0 36 -14 62 q-25 45 -84 45q-53 0 -120.5 -32.5t-151.5 -92.5l-98 -411h151l-47 -207h-448l133 575q9 37 8 67q0 34 -11 57q-22 44 -87 44q-61 0 -125 -29.5t-148 -95.5l-96 -411h151l-47 -207h-587z" />
<glyph unicode="n" horiz-adv-x="1236" d="M6 0l47 207h107l129 555h-146l47 207h443l-29 -121q53 33 95 57.5t80 41t76 25.5t83 9q55 0 101 -21.5t77 -61.5t41 -98q4 -22 4 -47q0 -40 -10 -85l-107 -461h132l-48 -207h-428l142 612q7 32 7 56q0 30 -11 48q-20 32 -60 32q-47 0 -99 -29t-122 -78l-100 -434h123 l-48 -207h-526z" />
<glyph unicode="o" horiz-adv-x="1173" d="M117 375q0 131 46 243.5t126 195.5t188.5 131t235.5 48q113 0 192.5 -39t130.5 -100t75 -137t24 -148q0 -123 -44 -231.5t-124 -189t-189.5 -129t-240.5 -48.5q-94 0 -171 30t-132.5 83t-86 127t-30.5 164zM418 365q0 -80 38 -128.5t103 -48.5q70 0 122 42t86 104.5 t50.5 133.5t16.5 130q0 80 -39 129t-109 49q-74 0 -125 -45t-83 -109.5t-46 -135t-14 -121.5z" />
<glyph unicode="p" horiz-adv-x="1236" d="M-104 -440l49 207h137l229 995h-137l47 207h434l-30 -127l4 -4q74 76 143.5 109.5t149.5 33.5q74 0 134 -28.5t104 -81t67.5 -125t23.5 -160.5q0 -129 -40 -241t-108.5 -194.5t-160.5 -131t-197 -48.5q-94 0 -161.5 38t-120.5 122l-84 -364h160l-50 -207h-593zM532 383 q0 -78 46.5 -130t115.5 -52q53 0 99.5 28.5t81 79.5t54 118t19.5 144q0 82 -41 129.5t-110 47.5q-51 0 -98.5 -31t-84 -82t-59.5 -116.5t-23 -135.5z" />
<glyph unicode="q" horiz-adv-x="1236" d="M111 350q0 125 37.5 238.5t105.5 201t162 138.5t209 51q82 0 147.5 -37t124.5 -121l35 148h403l-49 -207h-106l-230 -995h123l-47 -207h-571l47 207h151l80 337l-4 5q-59 -68 -133 -103t-152 -35q-72 0 -133 29t-106 79t-69.5 119.5t-24.5 151.5zM412 387 q0 -86 38.5 -135t112.5 -49q63 0 113.5 34.5t84.5 88t51 118t17 123.5q0 90 -45 137.5t-110 47.5q-68 0 -117 -37t-82 -92.5t-48 -119t-15 -116.5z" />
<glyph unicode="r" horiz-adv-x="854" d="M10 0l47 207h117l129 555h-131l47 207h393l-65 -281l4 -4q61 86 105 147.5t88 96.5t98 45q22 4 49 4q38 0 86 -8l-59 -258q-49 11 -93 10q-97 0 -167 -53q-99 -78 -140 -254l-47 -207h152l-48 -207h-565z" />
<glyph unicode="s" horiz-adv-x="1003" d="M16 0l78 334h191q16 -82 73 -121q55 -43 154 -43q88 0 138 27.5t50 76.5q0 53 -47 75t-114.5 37t-142 37.5t-130.5 78.5q-35 35 -55.5 80t-20.5 94q0 66 30 122t82 96t126 62.5t160 22.5q72 0 121 -13.5t104 -47.5l12 51h209l-65 -283h-199q-10 29 -23.5 50.5t-35.5 33.5 q-45 29 -119 29q-68 0 -109 -25.5t-41 -68.5t46.5 -60.5t113 -33t138 -39t124.5 -74.5q43 -43 60.5 -87t17.5 -100q0 -70 -31.5 -129t-89 -102t-136.5 -66.5t-173 -23.5q-88 0 -152.5 15t-119.5 50l-13 -55h-211z" />
<glyph unicode="t" d="M145 168q0 66 17 135l106 459h-114l47 207h114l33 141l354 246l-90 -387h131l-47 -207h-131l-104 -449q-7 -32 -7 -53q0 -16 4 -28q9 -26 56 -25q57 0 143 47l-53 -223q-59 -29 -125.5 -44.5t-124.5 -15.5q-94 0 -151.5 53.5t-57.5 143.5z" />
<glyph unicode="u" horiz-adv-x="1236" d="M150 762l49 207h428l-146 -625q-7 -27 -6 -48q0 -24 8 -41q16 -32 54 -32q18 0 46.5 9.5t60.5 24.5t63.5 35.5t58.5 43.5l98 426h-131l49 207h428l-176 -762h131l-49 -207h-428l31 127q-31 -23 -73 -46.5t-88 -44t-94 -33.5t-95 -13q-41 0 -79 16.5t-65.5 43t-44 62 t-16.5 76.5q0 29 7 76t17 101l93 397h-131z" />
<glyph unicode="v" horiz-adv-x="1044" d="M78 762l47 207h508l-49 -207h-117l51 -459h4l264 459h-116l47 207h512l-47 -207h-131l-467 -774h-267l-133 774h-106z" />
<glyph unicode="w" horiz-adv-x="1556" d="M49 762l47 207h490l-45 -199h-117l76 -448h4l305 647h207l108 -647h4l209 448h-123l46 199h458l-47 -207h-106l-371 -774h-262l-98 551h-5l-260 -551h-270l-133 774h-117z" />
<glyph unicode="x" horiz-adv-x="1024" d="M-35 0l49 207h117l281 291l-154 264h-117l49 207h306l122 -254l213 254h287l-47 -207h-102l-244 -256l176 -299h117l-47 -207h-314l-137 287l-248 -287h-307z" />
<glyph unicode="y" horiz-adv-x="1153" d="M31 -440l47 207h162l114 202l-147 793h-107l50 207h507l-49 -207h-116l51 -463h4l266 463h-117l47 207h506l-47 -207h-131l-696 -1202h-344z" />
<glyph unicode="z" horiz-adv-x="980" d="M-25 0l43 188l631 592h-239l-29 -125h-197l72 314h784l13 -6l-41 -183l-631 -592h293l37 164h200l-80 -352h-856z" />
<glyph unicode="{" horiz-adv-x="788" d="M150 362v230q127 0 173 75.5t46 215.5v125q0 80 11 149.5t50 121.5t113.5 82t201.5 30h89v-236q-78 0 -121 -6t-62.5 -32.5t-22.5 -84t-3 -158.5q0 -86 -10.5 -146t-32 -105t-56 -80t-84.5 -66q49 -31 84 -65.5t56.5 -79.5t32 -105.5t10.5 -146.5q0 -102 3 -158.5 t22.5 -83t62.5 -33t121 -6.5v-235h-89q-127 0 -201.5 29.5t-113.5 82t-50 122t-11 149.5v125q0 139 -46 214.5t-173 75.5z" />
<glyph unicode="|" horiz-adv-x="1251" d="M584 -440v1831h264v-1831h-264z" />
<glyph unicode="}" horiz-adv-x="788" d="M135 -201q78 0 121 6.5t62.5 33t22.5 82.5t3 159q0 86 10.5 146.5t32 105.5t56 79.5t83.5 65.5q-49 31 -83.5 66t-56 80t-32 105t-10.5 146q0 100 -3 158t-22.5 84.5t-62.5 32.5t-121 6v236h88q127 0 202 -30t114 -82t50 -122t11 -149v-125q0 -139 46 -215t173 -76v-230 q-127 0 -173 -75.5t-46 -214.5v-125q0 -80 -11 -149.5t-50 -122t-114 -82t-202 -29.5h-88v235z" />
<glyph unicode="~" horiz-adv-x="1193" d="M156 520v258q66 72 137.5 104.5t163.5 32.5q78 0 143.5 -20.5t123.5 -46t111.5 -46t108.5 -20.5q145 0 275 142v-271q-53 -53 -133 -93t-160 -40q-68 0 -130.5 22.5t-122 48t-119.5 48.5t-124 23q-139 -1 -274 -142z" />
<glyph unicode="&#xa1;" d="M29 -422l88 381l198 524h138l-47 -524l-89 -381h-288zM264 655l72 314h313l-71 -314h-314z" />
<glyph unicode="&#xa2;" horiz-adv-x="1087" d="M113 401q0 109 44 219.5t127 195.5t198.5 132t260.5 27l131 364h134l-152 -399q33 -12 55 -35l15 64h217l-84 -365h-209q-6 76 -74 111l-180 -512q125 12 217 147l209 -104q-37 -66 -88 -120t-115.5 -91t-140.5 -54.5t-164 -9.5l-123 -348h-131l133 377 q-133 39 -206.5 143t-73.5 258zM420 395q0 -92 67 -155l179 501q-61 -4 -107.5 -34.5t-77 -78.5t-46 -110t-15.5 -123z" />
<glyph unicode="&#xa3;" horiz-adv-x="1044" d="M92 170q0 47 17.5 88t48 70.5t70.5 47t87 17.5q33 0 59.5 -6t67.5 -22q2 47 -3 110.5t-13 108.5h-266l45 192h188q-29 162 -10.5 283t74 199.5t141.5 117.5t195 39q98 0 171.5 -27.5t116.5 -79t54.5 -123t-13.5 -159.5h-237q10 25 13 43t3 41q0 55 -27.5 86t-76.5 31 q-70 0 -108 -61.5t-38 -178.5q0 -20 2 -48t4 -56.5t5.5 -57t7.5 -49.5h274l-45 -192h-229q-4 -57 -10.5 -101.5t-14.5 -80t-20.5 -65.5t-26.5 -58q72 -57 143 -58q51 0 85 34t57 110h164q-14 -88 -48 -160t-83.5 -123t-110 -79t-129.5 -28q-59 0 -105.5 25t-93.5 80 q-55 -55 -98 -76.5t-98 -21.5q-86 0 -137.5 51t-51.5 137zM203 180q0 -33 23.5 -53.5t58.5 -20.5q63 0 108 80q-33 43 -54.5 59.5t-49.5 16.5q-37 0 -61.5 -23.5t-24.5 -58.5z" />
<glyph unicode="&#xa4;" horiz-adv-x="1110" d="M66 479l36 150h86q2 66 13 131h-109l37 149h104q35 109 89.5 201t126 159.5t164 105.5t202.5 38q88 0 160 -39t108 -90l23 107h166l-68 -412h-160q-25 104 -81 164.5t-150 60.5q-57 0 -103 -22.5t-83 -61.5t-67 -93t-54 -118h391l-35 -149h-397q-6 -33 -10 -64.5 t-6 -66.5h389l-35 -150h-350q6 -59 20 -112.5t38 -93.5t59.5 -63.5t84.5 -23.5q84 0 154 58.5t137 175.5l178 -123q-92 -162 -216 -241t-263 -79q-104 0 -184 37t-135.5 103.5t-88 159t-42.5 202.5h-129z" />
<glyph unicode="&#xa5;" horiz-adv-x="1280" d="M84 477l35 139h403l-114 277h-289l33 139h198l-57 142h-137l51 217h577l-51 -217h-112l51 -142h297l121 142h-115l51 217h559l-49 -217h-131l-129 -142h209l-33 -139h-301l-252 -277h479l-32 -139h-490l-61 -260h143l-53 -217h-627l51 217h131l60 260h-416zM694 893 l60 -152l133 152h-193z" />
<glyph unicode="&#xa6;" horiz-adv-x="1251" d="M584 340h264v-780h-264v780zM584 610v781h264v-781h-264z" />
<glyph unicode="&#xa7;" horiz-adv-x="1044" d="M45 -111l238 58q-2 -47 12 -83t39.5 -60.5t59.5 -37t71 -12.5q63 0 105 34t42 83q0 45 -37.5 88t-96 87t-125 91t-125 100.5t-96.5 117t-38 139.5q0 113 79 210t216 150q-100 102 -100 238q0 74 28.5 133t83 101t129 64.5t166.5 22.5q385 0 420 -326l-242 -43 q6 78 -42 126.5t-134 48.5q-70 0 -108.5 -34t-38.5 -93q0 -45 39 -87t96 -84t125 -86t125 -96.5t96 -113t39 -133.5q0 -45 -13.5 -92.5t-47 -95.5t-91 -93t-143.5 -86q100 -102 101 -236q0 -74 -30 -134t-84 -103t-129 -67.5t-165 -24.5q-188 0 -301 86.5t-123 242.5z M346 557q0 -45 23.5 -84t81.5 -84l202 -160q86 31 126 86.5t40 106.5q0 49 -29.5 91t-101.5 95l-186 140q-82 -41 -119 -86.5t-37 -104.5z" />
<glyph unicode="&#xa8;" d="M135 1251q0 59 43 102.5t103 43.5q59 0 102 -43t43 -103q0 -59 -43 -102t-102 -43t-102.5 43t-43.5 102zM631 1251q0 59 43 102.5t102 43.5t102.5 -43t43.5 -103q0 -59 -43 -102t-103 -43q-59 0 -102 43t-43 102z" />
<glyph unicode="&#xa9;" horiz-adv-x="1515" d="M78 729q0 160 60.5 299t164 242.5t242.5 164t299 60.5t299 -60.5t242.5 -164t164 -242.5t60.5 -299t-60.5 -299t-164 -242.5t-242.5 -164t-299 -60.5t-299 60.5t-242.5 164t-164 242.5t-60.5 299zM229 731q0 -127 48.5 -239.5t131.5 -196.5t195.5 -132t239.5 -48 t239.5 48t195.5 132t131 196.5t48 239.5t-48 238.5t-131 194.5t-195.5 131t-239.5 48t-239.5 -48t-195.5 -131t-131.5 -194.5t-48.5 -238.5zM467 725q0 199 104.5 314.5t284.5 115.5q246 0 334 -244l-162 -39q-53 139 -178 140q-98 0 -152.5 -74t-54.5 -209t52.5 -210 t146.5 -75q137 0 186 172l162 -55q-39 -125 -125 -191.5t-211 -66.5q-88 0 -159.5 29.5t-122 85t-78 133.5t-27.5 174z" />
<glyph unicode="&#xaa;" horiz-adv-x="768" d="M174 973q0 98 85 156.5t226 58.5q23 0 62 -6t59 -13q18 72 -7.5 103t-88.5 31q-35 0 -67.5 -9.5t-80.5 -31.5l-94 88q70 35 134.5 50t136.5 15q70 0 125 -14.5t92 -44t50 -73.5t-1 -105l-55 -234h102l-37 -123h-291l11 47q-51 -31 -89 -43t-86 -12q-80 0 -133 45t-53 115 zM352 989q0 -29 21.5 -47t52.5 -18q61 0 135 49l21 98q-53 12 -95 12q-59 0 -97 -26.5t-38 -67.5z" />
<glyph unicode="&#xab;" horiz-adv-x="1087" d="M86 489l317 480h310l-348 -520l124 -449h-268zM588 489l317 480h309l-348 -520l125 -449h-268z" />
<glyph unicode="&#xac;" horiz-adv-x="1368" d="M209 805v260h1128v-748h-260v488h-868z" />
<glyph unicode="&#xad;" horiz-adv-x="704" d="M123 356l59 256h482l-60 -256h-481z" />
<glyph unicode="&#xae;" horiz-adv-x="1515" d="M78 729q0 160 60.5 299t164 242.5t242.5 164t299 60.5t299 -60.5t242.5 -164t164 -242.5t60.5 -299t-60.5 -299t-164 -242.5t-242.5 -164t-299 -60.5t-299 60.5t-242.5 164t-164 242.5t-60.5 299zM229 731q0 -127 48.5 -239.5t131.5 -196.5t195.5 -132t239.5 -48 t239.5 48t195.5 132t131 196.5t48 239.5t-48 238.5t-131 194.5t-195.5 131t-239.5 48t-239.5 -48t-195.5 -131t-131.5 -194.5t-48.5 -238.5zM498 319v814h399q70 0 120 -19.5t80.5 -51.5t45 -73t14.5 -84q0 -94 -58.5 -154.5t-162.5 -72.5v-4q35 -12 59.5 -30.5t51 -57.5 t63.5 -102.5t96 -164.5h-205q-51 104 -90 174t-86 117q-31 31 -55.5 37t-75.5 6h-30v-334h-166zM664 782h145q35 0 66.5 5.5t55 18.5t38 34.5t14.5 54.5q0 53 -42 82t-128 29h-149v-224z" />
<glyph unicode="&#xaf;" d="M53 1122l58 250h821l-58 -250h-821z" />
<glyph unicode="&#xb0;" horiz-adv-x="811" d="M190 1069q0 72 27 134.5t74 109.5t109.5 73.5t134.5 26.5t134 -26.5t109 -73.5t75 -109.5t28 -134.5t-28 -134.5t-75 -109.5t-109.5 -74.5t-133.5 -27.5q-72 0 -134.5 27.5t-109.5 74.5t-74 109.5t-27 134.5zM322 1069q0 -45 16 -84t45 -68.5t67.5 -46t84.5 -16.5 q45 0 83.5 16.5t67.5 46t46.5 68.5t17.5 84t-17.5 84t-46.5 67.5t-67.5 45t-83.5 16.5q-90 0 -151.5 -61.5t-61.5 -151.5z" />
<glyph unicode="&#xb1;" horiz-adv-x="1368" d="M209 -68v261h1128v-261h-1128zM209 741v260h434v435h260v-435h434v-260h-434v-434h-260v434h-434z" />
<glyph unicode="&#xb2;" d="M162 680q6 82 41 145.5t84 113.5t103 91t101.5 77t78 71.5t30.5 76.5t-45 41q-90 0 -131 -163h-180q74 283 331 282q102 0 163 -46t61 -124q0 -68 -47 -117t-117 -96t-147.5 -101t-141.5 -130h189l28 127h156l-66 -248h-491z" />
<glyph unicode="&#xb3;" d="M182 926h178q-18 -66 1.5 -100.5t62.5 -34.5t73.5 39.5t30.5 95.5q0 39 -22.5 55t-77.5 16h-29l29 119q86 0 129 36t43 99q0 45 -49 45q-68 0 -94 -100h-178q29 115 96 166q66 53 182 53q111 0 174.5 -48t63.5 -130q0 -63 -43 -114.5t-131 -71.5q57 -35 80.5 -69 t23.5 -83q0 -47 -22.5 -89t-62.5 -72.5t-92 -48t-114 -17.5q-59 0 -111.5 15t-87 47t-50 79t-3.5 113z" />
<glyph unicode="&#xb4;" d="M313 1071l185 361h356l-379 -361h-162z" />
<glyph unicode="&#xb5;" horiz-adv-x="1259" d="M-43 -440l299 1409h287l-105 -523q-14 -74 -3 -122t38 -77.5t60.5 -41.5t62.5 -12q92 0 148.5 74.5t84.5 207.5l105 494h283l-203 -969h-258l22 94l-4 4q-63 -72 -109.5 -97.5t-105.5 -25.5q-66 0 -112 32t-89 106l-114 -553h-287z" />
<glyph unicode="&#x3bc;" horiz-adv-x="1259" d="M-43 -440l299 1409h287l-105 -523q-14 -74 -3 -122t38 -77.5t60.5 -41.5t62.5 -12q92 0 148.5 74.5t84.5 207.5l105 494h283l-203 -969h-258l22 94l-4 4q-63 -72 -109.5 -97.5t-105.5 -25.5q-66 0 -112 32t-89 106l-114 -553h-287z" />
<glyph unicode="&#xb6;" horiz-adv-x="1130" d="M90 973q0 92 28.5 169t84 132t137.5 86t188 31h693v-261h-113v-1564h-238v1564h-149v-1564h-238v1003q-186 14 -289.5 120t-103.5 284z" />
<glyph unicode="&#xb7;" d="M242 555l71 313h314l-72 -313h-313z" />
<glyph unicode="&#xb8;" d="M-63 -428l38 92q35 -8 65 -10t52 -2q66 0 101.5 21.5t35.5 62.5q0 53 -86 65l78 217h139l-34 -100q158 -23 157 -151q0 -98 -93 -155.5t-249 -57.5q-16 0 -40.5 1t-53.5 4l-57 6q-28 3 -53 7z" />
<glyph unicode="&#xb9;" d="M213 680l27 119h98l133 485h-92l27 119h299l-164 -604h84l-27 -119h-385z" />
<glyph unicode="&#xba;" horiz-adv-x="768" d="M211 1044q0 78 29.5 145.5t82 118t123 79t152.5 28.5q123 0 198.5 -69.5t75.5 -182.5q0 -76 -29.5 -141.5t-81.5 -113.5t-124 -75.5t-154 -27.5q-123 0 -197.5 66.5t-74.5 172.5zM406 1040q0 -51 25.5 -79.5t68.5 -28.5q35 0 67.5 20.5t57 54t40 77.5t15.5 94 q0 47 -26.5 76.5t-73.5 29.5q-37 0 -69 -19.5t-55.5 -52t-36.5 -78t-13 -94.5z" />
<glyph unicode="&#xbb;" horiz-adv-x="1087" d="M-35 0l348 520l-125 449h269l135 -490l-318 -479h-309zM467 0l348 520l-125 449h268l136 -490l-318 -479h-309z" />
<glyph unicode="&#xbc;" horiz-adv-x="1898" d="M145 0l1334 1391h182l-1333 -1391h-183zM174 680l27 119h98l133 485h-92l27 119h299l-164 -604h84l-27 -119h-385zM999 319l404 416h180l-123 -436h127l-24 -104h-127l-19 -86h72l-27 -109h-338l25 109h86l18 86h-243zM1122 299h156l59 213l-4 4z" />
<glyph unicode="&#xbd;" horiz-adv-x="1898" d="M145 0l1334 1391h182l-1333 -1391h-183zM174 680l27 119h98l133 485h-92l27 119h299l-164 -604h84l-27 -119h-385zM1034 0q6 82 41 145.5t84 113.5t103.5 91t101.5 77t78 72t31 76q0 41 -46 41q-90 0 -131 -163h-180q74 283 332 282q102 0 162.5 -46t60.5 -124 q0 -68 -47 -117t-116.5 -96t-147.5 -101t-141 -130h188l29 127h155l-65 -248h-492z" />
<glyph unicode="&#xbe;" horiz-adv-x="1898" d="M182 0l1334 1391h182l-1333 -1391h-183zM182 926h178q-18 -66 1.5 -100.5t62.5 -34.5t73.5 39.5t30.5 95.5q0 39 -22.5 55t-77.5 16h-29l29 119q86 0 129 36t43 99q0 45 -49 45q-68 0 -94 -100h-178q29 115 96 166q66 53 182 53q111 0 174.5 -48t63.5 -130 q0 -63 -43 -114.5t-131 -71.5q57 -35 80.5 -69t23.5 -83q0 -47 -22.5 -89t-62.5 -72.5t-92 -48t-114 -17.5q-59 0 -111.5 15t-87 47t-50 79t-3.5 113zM1036 319l404 416h180l-123 -436h127l-25 -104h-126l-19 -86h72l-27 -109h-338l25 109h86l18 86h-243zM1159 299h156 l59 213l-4 4z" />
<glyph unicode="&#xbf;" horiz-adv-x="1110" d="M51 -86q0 80 32 154.5t93.5 133t151.5 96.5t207 44l65 152h133l-33 -357q-78 4 -142 -11t-111.5 -46t-73 -74t-25.5 -92q0 -72 48 -116t126 -44q72 0 126 42t75 114h291q-27 -74 -72 -138.5t-111.5 -111.5t-153.5 -73.5t-200 -26.5q-104 0 -184 26.5t-133.5 74.5 t-81 112.5t-27.5 140.5zM543 655l71 314h314l-72 -314h-313z" />
<glyph unicode="&#xc0;" horiz-adv-x="1323" d="M-76 0l51 217h134l526 957h-135l49 217h805l-49 -217h-119l41 -957h143l-51 -217h-580l52 217h129v234h-422l-117 -234h129l-51 -217h-535zM602 649h309l-16 537h-14zM611 1856h356l184 -361h-161z" />
<glyph unicode="&#xc1;" horiz-adv-x="1323" d="M-76 0l51 217h134l526 957h-135l49 217h805l-49 -217h-119l41 -957h143l-51 -217h-580l52 217h129v234h-422l-117 -234h129l-51 -217h-535zM602 649h309l-16 537h-14zM768 1495l185 361h356l-379 -361h-162z" />
<glyph unicode="&#xc2;" horiz-adv-x="1323" d="M-76 0l51 217h134l526 957h-135l49 217h805l-49 -217h-119l41 -957h143l-51 -217h-580l52 217h129v234h-422l-117 -234h129l-51 -217h-535zM602 649h309l-16 537h-14zM518 1487l347 373h280l148 -373h-123l-178 229l-340 -229h-134z" />
<glyph unicode="&#xc3;" horiz-adv-x="1323" d="M-76 0l51 217h134l526 957h-135l49 217h805l-49 -217h-119l41 -957h143l-51 -217h-580l52 217h129v234h-422l-117 -234h129l-51 -217h-535zM602 649h309l-16 537h-14zM586 1507q0 88 21.5 149.5t55.5 100.5t75 56.5t79 17.5q41 0 85.5 -17.5t86 -38t79.5 -38t67 -17.5 q78 0 86 113h145q4 -74 -13 -134.5t-50 -102.5t-77 -64.5t-95 -22.5q-41 0 -82 17.5t-81 39t-79 39t-76 17.5q-78 0 -77 -115h-150z" />
<glyph unicode="&#xc4;" horiz-adv-x="1323" d="M-76 0l51 217h134l526 957h-135l49 217h805l-49 -217h-119l41 -957h143l-51 -217h-580l52 217h129v234h-422l-117 -234h129l-51 -217h-535zM602 649h309l-16 537h-14zM590 1675q0 59 43 102.5t103 43.5q59 0 102 -43t43 -103q0 -59 -43 -102t-102 -43t-102.5 43 t-43.5 102zM1086 1675q0 59 43 102.5t102 43.5t102.5 -43t43.5 -103q0 -59 -43 -102t-103 -43q-59 0 -102 43t-43 102z" />
<glyph unicode="&#xc5;" horiz-adv-x="1323" d="M-76 0l51 217h134l526 957h-135l49 217h805l-49 -217h-119l41 -957h143l-51 -217h-580l52 217h129v234h-422l-117 -234h129l-51 -217h-535zM602 649h309l-16 537h-14zM768 1692q0 43 16.5 82t45 67.5t67.5 45t82 16.5t82 -16.5t67.5 -45t45 -67.5t16.5 -82t-16.5 -82 t-45 -67.5t-67.5 -45t-82 -16.5t-82 16.5t-67.5 45t-45 67.5t-16.5 82zM865 1692q0 -47 33.5 -81t80.5 -34t81 34t34 81t-34 80.5t-81 33.5t-80.5 -33.5t-33.5 -80.5z" />
<glyph unicode="&#xc6;" horiz-adv-x="1898" d="M-98 0l51 217h92l614 957h-139l51 217h1504l-103 -445h-225l51 228h-424l-86 -377h326l-47 -201h-326l-86 -379h432l49 219h217l-100 -436h-1145l51 217h148l86 379h-338l-233 -379h131l-50 -217h-501zM678 797h262l109 420h-121z" />
<glyph unicode="&#xc7;" horiz-adv-x="1579" d="M168 596q0 166 74.5 314.5t202.5 260t297 177t360 65.5q133 0 221 -36t162 -120l31 134h223l-105 -453h-223q-16 111 -98 170t-215 59q-113 0 -214.5 -48t-178 -128t-122.5 -186.5t-46 -222.5q0 -76 24.5 -138.5t67.5 -107.5t102.5 -70.5t130.5 -25.5q119 0 232.5 62.5 t212.5 178.5l223 -164q-129 -162 -307.5 -248.5t-376.5 -86.5h-27l-22 -64q158 -23 157 -151q0 -98 -93 -155.5t-249 -57.5q-16 0 -40.5 1t-53.5 4l-57 6q-29 3 -53 7l38 92q35 -8 65 -10t52 -2q66 0 101.5 21.5t35.5 62.5q0 53 -86 65l70 197q-115 20 -210 73.5 t-162.5 131.5t-105.5 178t-38 215z" />
<glyph unicode="&#xc8;" horiz-adv-x="1300" d="M18 0l52 217h131l221 957h-131l49 217h1137l-103 -443h-260l51 226h-393l-80 -357h326l-51 -217h-326l-88 -383h401l52 219h251l-102 -436h-1137zM598 1856h356l184 -361h-161z" />
<glyph unicode="&#xc9;" horiz-adv-x="1300" d="M18 0l52 217h131l221 957h-131l49 217h1137l-103 -443h-260l51 226h-393l-80 -357h326l-51 -217h-326l-88 -383h401l52 219h251l-102 -436h-1137zM755 1495l185 361h356l-379 -361h-162z" />
<glyph unicode="&#xca;" horiz-adv-x="1300" d="M18 0l52 217h131l221 957h-131l49 217h1137l-103 -443h-260l51 226h-393l-80 -357h326l-51 -217h-326l-88 -383h401l52 219h251l-102 -436h-1137zM505 1487l347 373h280l148 -373h-123l-178 229l-340 -229h-134z" />
<glyph unicode="&#xcb;" horiz-adv-x="1300" d="M18 0l52 217h131l221 957h-131l49 217h1137l-103 -443h-260l51 226h-393l-80 -357h326l-51 -217h-326l-88 -383h401l52 219h251l-102 -436h-1137zM577 1675q0 59 43 102.5t103 43.5q59 0 102 -43t43 -103q0 -59 -43 -102t-102 -43t-102.5 43t-43.5 102zM1073 1675 q0 59 43 102.5t102 43.5t102.5 -43t43.5 -103q0 -59 -43 -102t-103 -43q-59 0 -102 43t-43 102z" />
<glyph unicode="&#xcc;" horiz-adv-x="811" d="M-18 0l49 217h176l221 957h-197l50 217h702l-49 -217h-152l-221 -957h201l-51 -217h-729zM273 1856h356l184 -361h-161z" />
<glyph unicode="&#xcd;" horiz-adv-x="811" d="M-18 0l49 217h176l221 957h-197l50 217h702l-49 -217h-152l-221 -957h201l-51 -217h-729zM512 1495l185 361h356l-379 -361h-162z" />
<glyph unicode="&#xce;" horiz-adv-x="811" d="M-18 0l49 217h176l221 957h-197l50 217h702l-49 -217h-152l-221 -957h201l-51 -217h-729zM262 1487l347 373h280l148 -373h-123l-178 229l-340 -229h-134z" />
<glyph unicode="&#xcf;" horiz-adv-x="811" d="M-18 0l49 217h176l221 957h-197l50 217h702l-49 -217h-152l-221 -957h201l-51 -217h-729zM334 1675q0 59 43 102.5t103 43.5q59 0 102 -43t43 -103q0 -59 -43 -102t-102 -43t-102.5 43t-43.5 102zM830 1675q0 59 43 102.5t102 43.5t102.5 -43t43.5 -103q0 -59 -43 -102 t-103 -43q-59 0 -102 43t-43 102z" />
<glyph unicode="&#xd0;" horiz-adv-x="1556" d="M-16 0l51 217h168l88 383h-201l49 217h201l82 357h-168l51 217h574q193 0 321.5 -54.5t206.5 -142.5t109.5 -196.5t31.5 -219.5q0 -166 -53 -308t-153.5 -246.5t-242 -164t-317.5 -59.5h-798zM555 217h211q84 0 148.5 34t110.5 89t77 123.5t50 138.5t26.5 133.5 t7.5 108.5q0 72 -22.5 132t-64.5 104t-102.5 69t-138.5 25h-84l-82 -357h258l-49 -217h-258z" />
<glyph unicode="&#xd1;" horiz-adv-x="1622" d="M20 0l52 217h131l219 957h-131l51 217h518l314 -963h4l170 746h-131l51 217h501l-51 -217h-131l-272 -1186h-305l-359 1120h-4l-203 -891h146l-51 -217h-519zM735 1507q0 88 21.5 149.5t55.5 100.5t75 56.5t79 17.5q41 0 85.5 -17.5t86 -38t79.5 -38t67 -17.5 q78 0 86 113h145q4 -74 -13 -134.5t-50 -102.5t-77 -64.5t-95 -22.5q-41 0 -82 17.5t-81 39t-79 39t-76 17.5q-78 0 -77 -115h-150z" />
<glyph unicode="&#xd2;" horiz-adv-x="1685" d="M172 559q0 162 65.5 316.5t182.5 274.5t279.5 193.5t359.5 73.5q158 0 275.5 -50t196.5 -131t118 -185.5t39 -212.5q0 -178 -70 -335t-192.5 -272.5t-287.5 -182t-356 -66.5q-133 0 -244.5 43t-192.5 119.5t-127 183t-46 231.5zM541 535q0 -145 77.5 -226.5t217.5 -81.5 q92 0 163.5 35t125 91.5t91 127t60 142t33 138t10.5 113.5q0 66 -21.5 120.5t-60.5 94t-93 61t-120 21.5q-123 0 -214 -65.5t-151.5 -162.5t-89 -207.5t-28.5 -200.5zM791 1856h356l184 -361h-161z" />
<glyph unicode="&#xd3;" horiz-adv-x="1685" d="M172 559q0 162 65.5 316.5t182.5 274.5t279.5 193.5t359.5 73.5q158 0 275.5 -50t196.5 -131t118 -185.5t39 -212.5q0 -178 -70 -335t-192.5 -272.5t-287.5 -182t-356 -66.5q-133 0 -244.5 43t-192.5 119.5t-127 183t-46 231.5zM541 535q0 -145 77.5 -226.5t217.5 -81.5 q92 0 163.5 35t125 91.5t91 127t60 142t33 138t10.5 113.5q0 66 -21.5 120.5t-60.5 94t-93 61t-120 21.5q-123 0 -214 -65.5t-151.5 -162.5t-89 -207.5t-28.5 -200.5zM948 1495l185 361h356l-379 -361h-162z" />
<glyph unicode="&#xd4;" horiz-adv-x="1685" d="M172 559q0 162 65.5 316.5t182.5 274.5t279.5 193.5t359.5 73.5q158 0 275.5 -50t196.5 -131t118 -185.5t39 -212.5q0 -178 -70 -335t-192.5 -272.5t-287.5 -182t-356 -66.5q-133 0 -244.5 43t-192.5 119.5t-127 183t-46 231.5zM541 535q0 -145 77.5 -226.5t217.5 -81.5 q92 0 163.5 35t125 91.5t91 127t60 142t33 138t10.5 113.5q0 66 -21.5 120.5t-60.5 94t-93 61t-120 21.5q-123 0 -214 -65.5t-151.5 -162.5t-89 -207.5t-28.5 -200.5zM698 1487l347 373h280l148 -373h-123l-178 229l-340 -229h-134z" />
<glyph unicode="&#xd5;" horiz-adv-x="1685" d="M172 559q0 162 65.5 316.5t182.5 274.5t279.5 193.5t359.5 73.5q158 0 275.5 -50t196.5 -131t118 -185.5t39 -212.5q0 -178 -70 -335t-192.5 -272.5t-287.5 -182t-356 -66.5q-133 0 -244.5 43t-192.5 119.5t-127 183t-46 231.5zM541 535q0 -145 77.5 -226.5t217.5 -81.5 q92 0 163.5 35t125 91.5t91 127t60 142t33 138t10.5 113.5q0 66 -21.5 120.5t-60.5 94t-93 61t-120 21.5q-123 0 -214 -65.5t-151.5 -162.5t-89 -207.5t-28.5 -200.5zM766 1507q0 88 21.5 149.5t55.5 100.5t75 56.5t79 17.5q41 0 85.5 -17.5t86 -38t79.5 -38t67 -17.5 q78 0 86 113h145q4 -74 -13 -134.5t-50 -102.5t-77 -64.5t-95 -22.5q-41 0 -82 17.5t-81 39t-79 39t-76 17.5q-78 0 -77 -115h-150z" />
<glyph unicode="&#xd6;" horiz-adv-x="1685" d="M172 559q0 162 65.5 316.5t182.5 274.5t279.5 193.5t359.5 73.5q158 0 275.5 -50t196.5 -131t118 -185.5t39 -212.5q0 -178 -70 -335t-192.5 -272.5t-287.5 -182t-356 -66.5q-133 0 -244.5 43t-192.5 119.5t-127 183t-46 231.5zM541 535q0 -145 77.5 -226.5t217.5 -81.5 q92 0 163.5 35t125 91.5t91 127t60 142t33 138t10.5 113.5q0 66 -21.5 120.5t-60.5 94t-93 61t-120 21.5q-123 0 -214 -65.5t-151.5 -162.5t-89 -207.5t-28.5 -200.5zM770 1675q0 59 43 102.5t103 43.5q59 0 102 -43t43 -103q0 -59 -43 -102t-102 -43t-102.5 43t-43.5 102z M1266 1675q0 59 43 102.5t102 43.5t102.5 -43t43.5 -103q0 -59 -43 -102t-103 -43q-59 0 -102 43t-43 102z" />
<glyph unicode="&#xd7;" horiz-adv-x="1366" d="M233 1036l185 185l356 -357l356 357l185 -185l-357 -356l353 -352l-183 -183l-354 355l-354 -355l-182 183l352 352z" />
<glyph unicode="&#xd8;" horiz-adv-x="1685" d="M172 559q0 158 63.5 311.5t180 275.5t281.5 196.5t368 74.5q96 0 185 -20.5t155 -57.5l92 107l109 -90l-90 -101q84 -84 128 -190.5t44 -222.5q0 -180 -71 -337t-192.5 -273.5t-286.5 -183t-356 -66.5q-88 0 -158.5 17t-156.5 60l-6 2l-129 -147l-103 86l121 141 q-178 162 -178 418zM542 535q1 -86 27 -146l639 727q-43 31 -100 45.5t-118.5 9t-125 -34t-119.5 -83.5q-68 -68 -113.5 -157t-68 -182t-21.5 -179zM653 279q49 -35 110.5 -46.5t125 -2t123 38t106.5 75.5q49 49 94 132t73 177.5t33 187.5t-24 165z" />
<glyph unicode="&#xd9;" horiz-adv-x="1449" d="M249 275q-8 38 -8 84q0 78 23 180l146 635h-107l49 217h604l-49 -217h-143l-162 -693q-12 -50 -12 -88q0 -21 4 -40q10 -50 36.5 -78.5t67.5 -41t84 -12.5q109 0 176.5 78t106.5 248l145 627h-131l49 217h478l-50 -217h-106l-162 -701q-35 -145 -92 -241.5t-132 -152.5 t-166 -79t-189 -23q-117 0 -215.5 35t-169.5 107q-53 53 -75 156zM592 1856h356l184 -361h-161z" />
<glyph unicode="&#xda;" horiz-adv-x="1449" d="M249 275q-8 38 -8 84q0 78 23 180l146 635h-107l49 217h604l-49 -217h-143l-162 -693q-12 -50 -12 -88q0 -21 4 -40q10 -50 36.5 -78.5t67.5 -41t84 -12.5q109 0 176.5 78t106.5 248l145 627h-131l49 217h478l-50 -217h-106l-162 -701q-35 -145 -92 -241.5t-132 -152.5 t-166 -79t-189 -23q-117 0 -215.5 35t-169.5 107q-53 53 -75 156zM831 1495l185 361h356l-379 -361h-162z" />
<glyph unicode="&#xdb;" horiz-adv-x="1449" d="M249 275q-8 38 -8 84q0 78 23 180l146 635h-107l49 217h604l-49 -217h-143l-162 -693q-12 -50 -12 -88q0 -21 4 -40q10 -50 36.5 -78.5t67.5 -41t84 -12.5q109 0 176.5 78t106.5 248l145 627h-131l49 217h478l-50 -217h-106l-162 -701q-35 -145 -92 -241.5t-132 -152.5 t-166 -79t-189 -23q-117 0 -215.5 35t-169.5 107q-53 53 -75 156zM581 1487l347 373h280l148 -373h-123l-178 229l-340 -229h-134z" />
<glyph unicode="&#xdc;" horiz-adv-x="1449" d="M249 275q-8 38 -8 84q0 78 23 180l146 635h-107l49 217h604l-49 -217h-143l-162 -693q-12 -50 -12 -88q0 -21 4 -40q10 -50 36.5 -78.5t67.5 -41t84 -12.5q109 0 176.5 78t106.5 248l145 627h-131l49 217h478l-50 -217h-106l-162 -701q-35 -145 -92 -241.5t-132 -152.5 t-166 -79t-189 -23q-117 0 -215.5 35t-169.5 107q-53 53 -75 156zM653 1675q0 59 43 102.5t103 43.5q59 0 102 -43t43 -103q0 -59 -43 -102t-102 -43t-102.5 43t-43.5 102zM1149 1675q0 59 43 102.5t102 43.5t102.5 -43t43.5 -103q0 -59 -43 -102t-103 -43q-59 0 -102 43 t-43 102z" />
<glyph unicode="&#xdd;" horiz-adv-x="1280" d="M156 1174l51 217h577l-51 -217h-112l141 -386l328 386h-115l51 217h559l-49 -217h-131l-520 -574l-90 -383h143l-53 -217h-627l51 217h131l88 383l-235 574h-137zM745 1495l185 361h356l-379 -361h-162z" />
<glyph unicode="&#xde;" horiz-adv-x="1323" d="M23 0l49 217h131l221 957h-156l51 217h676l-51 -217h-168l-14 -66h96q139 0 235.5 -24.5t157 -70.5t87 -111.5t26.5 -147.5q0 -90 -29.5 -174t-101.5 -156q-66 -66 -179.5 -103.5t-285.5 -37.5h-199l-14 -66h168l-49 -217h-651zM614 483h121q80 0 131.5 28t81 69t41.5 89 t12 89q0 76 -45 112.5t-145 36.5h-96z" />
<glyph unicode="&#xdf;" horiz-adv-x="1259" d="M12 0l47 207h107l190 823q20 94 58.5 165t97.5 119t143 72.5t199 24.5q119 0 204 -24.5t139 -66.5t78.5 -99.5t24.5 -122.5q0 -117 -81.5 -205t-231.5 -117v-4q125 -39 183.5 -116.5t58.5 -206.5q0 -96 -35 -180.5t-94.5 -147t-141 -98t-174.5 -35.5q-43 0 -82.5 8 t-93.5 27l47 200q29 -10 46.5 -14t37.5 -4q51 0 89 29.5t62.5 74.5t36 97.5t11.5 97.5q0 39 -12.5 74.5t-36 60.5t-59 36t-80.5 3l49 209q61 0 102 17.5t65.5 43t35 56t10.5 57.5q0 68 -47 112t-119 44q-80 0 -125 -45.5t-62 -116.5l-196 -848h84l-47 -207h-488z" />
<glyph unicode="&#xe0;" horiz-adv-x="1173" d="M94 256q0 74 30 138.5t91 112.5t153.5 76.5t217.5 28.5q20 0 75.5 -9t102.5 -19l16 80q6 33 -5 59.5t-34.5 43.5t-56.5 26.5t-70 9.5q-51 0 -103 -15.5t-124 -50.5l-147 146q109 57 208 83.5t211 26.5q231 0 340 -104q79 -76 79 -190q0 -43 -11 -91l-94 -401h162 l-60 -207h-446l18 78q-78 -49 -137 -69.5t-125 -20.5q-63 0 -116.5 20.5t-92.5 55t-60.5 84t-21.5 108.5zM369 283q0 -47 33.5 -78t80.5 -31q96 0 205 84l37 160q-47 12 -74.5 16t-72.5 4q-94 0 -151.5 -43.5t-57.5 -111.5zM402 1432h356l184 -361h-161z" />
<glyph unicode="&#xe1;" horiz-adv-x="1173" d="M94 256q0 74 30 138.5t91 112.5t153.5 76.5t217.5 28.5q20 0 75.5 -9t102.5 -19l16 80q6 33 -5 59.5t-34.5 43.5t-56.5 26.5t-70 9.5q-51 0 -103 -15.5t-124 -50.5l-147 146q109 57 208 83.5t211 26.5q231 0 340 -104q79 -76 79 -190q0 -43 -11 -91l-94 -401h162 l-60 -207h-446l18 78q-78 -49 -137 -69.5t-125 -20.5q-63 0 -116.5 20.5t-92.5 55t-60.5 84t-21.5 108.5zM369 283q0 -47 33.5 -78t80.5 -31q96 0 205 84l37 160q-47 12 -74.5 16t-72.5 4q-94 0 -151.5 -43.5t-57.5 -111.5zM559 1071l185 361h356l-379 -361h-162z" />
<glyph unicode="&#xe2;" horiz-adv-x="1173" d="M94 256q0 74 30 138.5t91 112.5t153.5 76.5t217.5 28.5q20 0 75.5 -9t102.5 -19l16 80q6 33 -5 59.5t-34.5 43.5t-56.5 26.5t-70 9.5q-51 0 -103 -15.5t-124 -50.5l-147 146q109 57 208 83.5t211 26.5q231 0 340 -104q79 -76 79 -190q0 -43 -11 -91l-94 -401h162 l-60 -207h-446l18 78q-78 -49 -137 -69.5t-125 -20.5q-63 0 -116.5 20.5t-92.5 55t-60.5 84t-21.5 108.5zM369 283q0 -47 33.5 -78t80.5 -31q96 0 205 84l37 160q-47 12 -74.5 16t-72.5 4q-94 0 -151.5 -43.5t-57.5 -111.5zM309 1063l347 373h280l148 -373h-123l-178 229 l-340 -229h-134z" />
<glyph unicode="&#xe3;" horiz-adv-x="1173" d="M94 256q0 74 30 138.5t91 112.5t153.5 76.5t217.5 28.5q20 0 75.5 -9t102.5 -19l16 80q6 33 -5 59.5t-34.5 43.5t-56.5 26.5t-70 9.5q-51 0 -103 -15.5t-124 -50.5l-147 146q109 57 208 83.5t211 26.5q231 0 340 -104q79 -76 79 -190q0 -43 -11 -91l-94 -401h162 l-60 -207h-446l18 78q-78 -49 -137 -69.5t-125 -20.5q-63 0 -116.5 20.5t-92.5 55t-60.5 84t-21.5 108.5zM369 283q0 -47 33.5 -78t80.5 -31q96 0 205 84l37 160q-47 12 -74.5 16t-72.5 4q-94 0 -151.5 -43.5t-57.5 -111.5zM377 1083q0 88 21.5 149.5t55.5 100.5t75 56.5 t79 17.5q41 0 85.5 -17.5t86 -38t79.5 -38t67 -17.5q78 0 86 113h145q4 -74 -13 -134.5t-50 -102.5t-77 -64.5t-95 -22.5q-41 0 -82 17.5t-81 39t-79 39t-76 17.5q-78 0 -77 -115h-150z" />
<glyph unicode="&#xe4;" horiz-adv-x="1173" d="M94 256q0 74 30 138.5t91 112.5t153.5 76.5t217.5 28.5q20 0 75.5 -9t102.5 -19l16 80q6 33 -5 59.5t-34.5 43.5t-56.5 26.5t-70 9.5q-51 0 -103 -15.5t-124 -50.5l-147 146q109 57 208 83.5t211 26.5q231 0 340 -104q79 -76 79 -190q0 -43 -11 -91l-94 -401h162 l-60 -207h-446l18 78q-78 -49 -137 -69.5t-125 -20.5q-63 0 -116.5 20.5t-92.5 55t-60.5 84t-21.5 108.5zM369 283q0 -47 33.5 -78t80.5 -31q96 0 205 84l37 160q-47 12 -74.5 16t-72.5 4q-94 0 -151.5 -43.5t-57.5 -111.5zM381 1251q0 59 43 102.5t103 43.5q59 0 102 -43 t43 -103q0 -59 -43 -102t-102 -43t-102.5 43t-43.5 102zM877 1251q0 59 43 102.5t102 43.5t102.5 -43t43.5 -103q0 -59 -43 -102t-103 -43q-59 0 -102 43t-43 102z" />
<glyph unicode="&#xe5;" horiz-adv-x="1173" d="M94 256q0 74 30 138.5t91 112.5t153.5 76.5t217.5 28.5q20 0 75.5 -9t102.5 -19l16 80q6 33 -5 59.5t-34.5 43.5t-56.5 26.5t-70 9.5q-51 0 -103 -15.5t-124 -50.5l-147 146q109 57 208 83.5t211 26.5q231 0 340 -104q79 -76 79 -190q0 -43 -11 -91l-94 -401h162 l-60 -207h-446l18 78q-78 -49 -137 -69.5t-125 -20.5q-63 0 -116.5 20.5t-92.5 55t-60.5 84t-21.5 108.5zM369 283q0 -47 33.5 -78t80.5 -31q96 0 205 84l37 160q-47 12 -74.5 16t-72.5 4q-94 0 -151.5 -43.5t-57.5 -111.5zM559 1268q0 43 16.5 82t45 67.5t67.5 45t82 16.5 t82 -16.5t67.5 -45t45 -67.5t16.5 -82t-16.5 -82t-45 -67.5t-67.5 -45t-82 -16.5t-82 16.5t-67.5 45t-45 67.5t-16.5 82zM656 1268q0 -47 33.5 -81t80.5 -34t81 34t34 81t-34 80.5t-81 33.5t-80.5 -33.5t-33.5 -80.5z" />
<glyph unicode="&#xe6;" horiz-adv-x="1728" d="M80 252q0 80 33.5 147.5t95 115.5t145.5 75.5t183 27.5q41 0 96 -6t112 -22l17 72q8 37 -4.5 63.5t-37 44.5t-58 27.5t-70.5 9.5q-109 0 -223 -64l-148 148q109 55 204 78.5t210 23.5q45 0 94 -5t97 -17.5t88 -31.5t67 -48q145 102 303 102q102 0 191.5 -41t148.5 -115.5 t80.5 -179t-8.5 -233.5h-682q-14 -61 -5 -109.5t34.5 -82t64.5 -51t86 -17.5q59 0 112.5 33.5t84.5 93.5l217 -101q-90 -113 -196.5 -166t-248.5 -53q-246 0 -372 183q-92 -74 -197 -128.5t-227 -54.5q-129 0 -208 78t-79 203zM356 270q0 -49 32 -79.5t83 -30.5 q47 0 104.5 21.5t88.5 51.5l43 191q-43 10 -73 15t-63 5q-96 0 -155.5 -48t-59.5 -126zM1047 582h387q10 55 0.5 96t-33 67.5t-56 40t-67.5 13.5q-78 0 -140 -58.5t-91 -158.5z" />
<glyph unicode="&#xe7;" horiz-adv-x="1087" d="M113 401q0 119 44 224.5t120.5 183.5t180 124t220.5 46q70 0 122 -16.5t111 -57.5l15 64h217l-84 -363h-217q-4 66 -47 103q-41 37 -113 36q-55 0 -103.5 -26.5t-83 -73.5t-55 -111.5t-20.5 -138.5q0 -84 47 -135t119 -51q66 0 124 38t99 107l213 -104 q-82 -135 -196.5 -205t-256.5 -74l-18 -53q158 -23 158 -151q0 -98 -93.5 -155.5t-248.5 -57.5q-16 0 -41 1t-54 4l-57 6q-29 3 -53 7l39 92q35 -8 64.5 -10t51.5 -2q66 0 102 21.5t36 62.5q0 53 -86 65l65 185q-147 33 -234 141t-87 274z" />
<glyph unicode="&#xe8;" horiz-adv-x="1130" d="M123 391q0 117 41 226.5t114.5 192.5t177 133t226.5 50q94 0 182 -35.5t149.5 -106.5t87.5 -177q12 -50 12 -109q0 -65 -15 -141h-688q-5 -33 -5.5 -61.5t5.5 -53.5q10 -49 34.5 -81.5t60.5 -48t79 -15.5q125 0 198 125l219 -99q-145 -219 -436 -219q-102 0 -183 30 t-139.5 84t-89 132t-30.5 174zM446 582h383q4 24 4 44q0 26 -6 49q-10 40 -32.5 67.5t-55 42t-67.5 14.5q-154 0 -226 -217zM381 1432h356l184 -361h-161z" />
<glyph unicode="&#xe9;" horiz-adv-x="1130" d="M123 391q0 117 41 226.5t114.5 192.5t177 133t226.5 50q94 0 182 -35.5t149.5 -106.5t87.5 -177q12 -50 12 -109q0 -65 -15 -141h-688q-5 -33 -5.5 -61.5t5.5 -53.5q10 -49 34.5 -81.5t60.5 -48t79 -15.5q125 0 198 125l219 -99q-145 -219 -436 -219q-102 0 -183 30 t-139.5 84t-89 132t-30.5 174zM446 582h383q4 24 4 44q0 26 -6 49q-10 40 -32.5 67.5t-55 42t-67.5 14.5q-154 0 -226 -217zM538 1071l185 361h356l-379 -361h-162z" />
<glyph unicode="&#xea;" horiz-adv-x="1130" d="M123 391q0 117 41 226.5t114.5 192.5t177 133t226.5 50q94 0 182 -35.5t149.5 -106.5t87.5 -177q12 -50 12 -109q0 -65 -15 -141h-688q-5 -33 -5.5 -61.5t5.5 -53.5q10 -49 34.5 -81.5t60.5 -48t79 -15.5q125 0 198 125l219 -99q-145 -219 -436 -219q-102 0 -183 30 t-139.5 84t-89 132t-30.5 174zM446 582h383q4 24 4 44q0 26 -6 49q-10 40 -32.5 67.5t-55 42t-67.5 14.5q-154 0 -226 -217zM288 1063l347 373h280l148 -373h-123l-178 229l-340 -229h-134z" />
<glyph unicode="&#xeb;" horiz-adv-x="1130" d="M123 391q0 117 41 226.5t114.5 192.5t177 133t226.5 50q94 0 182 -35.5t149.5 -106.5t87.5 -177q12 -50 12 -109q0 -65 -15 -141h-688q-5 -33 -5.5 -61.5t5.5 -53.5q10 -49 34.5 -81.5t60.5 -48t79 -15.5q125 0 198 125l219 -99q-145 -219 -436 -219q-102 0 -183 30 t-139.5 84t-89 132t-30.5 174zM446 582h383q4 24 4 44q0 26 -6 49q-10 40 -32.5 67.5t-55 42t-67.5 14.5q-154 0 -226 -217zM360 1251q0 59 43 102.5t103 43.5q59 0 102 -43t43 -103q0 -59 -43 -102t-102 -43t-102.5 43t-43.5 102zM856 1251q0 59 43 102.5t102 43.5 t102.5 -43t43.5 -103q0 -59 -43 -102t-103 -43q-59 0 -102 43t-43 102z" />
<glyph unicode="&#xec;" d="M27 0l47 207h106l129 555h-131l47 207h428l-176 -762h131l-47 -207h-534zM35 1432h356l184 -361h-161z" />
<glyph unicode="&#xed;" d="M27 0l47 207h106l129 555h-131l47 207h428l-176 -762h131l-47 -207h-534zM313 1071l185 361h356l-379 -361h-162z" />
<glyph unicode="&#xee;" d="M27 0l47 207h106l129 555h-131l47 207h428l-176 -762h131l-47 -207h-534zM63 1063l347 373h280l148 -373h-123l-178 229l-340 -229h-134z" />
<glyph unicode="&#xef;" d="M27 0l47 207h106l129 555h-131l47 207h428l-176 -762h131l-47 -207h-534zM135 1251q0 59 43 102.5t103 43.5q59 0 102 -43t43 -103q0 -59 -43 -102t-102 -43t-102.5 43t-43.5 102zM631 1251q0 59 43 102.5t102 43.5t102.5 -43t43.5 -103q0 -59 -43 -102t-103 -43 q-59 0 -102 43t-43 102z" />
<glyph unicode="&#xf0;" horiz-adv-x="1300" d="M168 393q0 127 49 236.5t130 190.5t184.5 127t211.5 46q35 0 75 -9t87 -44l4 4q-16 41 -48 91t-75 102l-221 -86l-121 102l242 94q-59 55 -104 80l219 86q61 -37 108 -78l201 78l121 -102l-219 -86q55 -72 93 -150t60.5 -152.5t31.5 -140t9 -114.5q0 -100 -32.5 -221 t-106.5 -225.5t-192.5 -174.5t-292.5 -70q-92 0 -169 32t-131.5 87.5t-84 131t-29.5 165.5zM469 362q0 -80 41 -122.5t104 -42.5q74 0 125.5 46t83 110.5t47 135t15.5 117.5q0 78 -41 126t-107 48q-76 0 -127 -48t-82.5 -114.5t-45 -137.5t-13.5 -118z" />
<glyph unicode="&#xf1;" horiz-adv-x="1236" d="M6 0l47 207h107l129 555h-146l47 207h443l-29 -121q53 33 95 57.5t80 41t76 25.5t83 9q55 0 101 -21.5t77 -61.5t41 -98q4 -22 4 -47q0 -40 -10 -85l-107 -461h132l-48 -207h-428l142 612q7 32 7 56q0 30 -11 48q-20 32 -60 32q-47 0 -99 -29t-122 -78l-100 -434h123 l-48 -207h-526zM410 1083q0 88 21.5 149.5t55.5 100.5t75 56.5t79 17.5q41 0 85.5 -17.5t86 -38t79.5 -38t67 -17.5q78 0 86 113h145q4 -74 -13 -134.5t-50 -102.5t-77 -64.5t-95 -22.5q-41 0 -82 17.5t-81 39t-79 39t-76 17.5q-78 0 -77 -115h-150z" />
<glyph unicode="&#xf2;" horiz-adv-x="1173" d="M117 375q0 131 46 243.5t126 195.5t188.5 131t235.5 48q113 0 192.5 -39t130.5 -100t75 -137t24 -148q0 -123 -44 -231.5t-124 -189t-189.5 -129t-240.5 -48.5q-94 0 -171 30t-132.5 83t-86 127t-30.5 164zM418 365q0 -80 38 -128.5t103 -48.5q70 0 122 42t86 104.5 t50.5 133.5t16.5 130q0 80 -39 129t-109 49q-74 0 -125 -45t-83 -109.5t-46 -135t-14 -121.5zM402 1432h356l184 -361h-161z" />
<glyph unicode="&#xf3;" horiz-adv-x="1173" d="M117 375q0 131 46 243.5t126 195.5t188.5 131t235.5 48q113 0 192.5 -39t130.5 -100t75 -137t24 -148q0 -123 -44 -231.5t-124 -189t-189.5 -129t-240.5 -48.5q-94 0 -171 30t-132.5 83t-86 127t-30.5 164zM418 365q0 -80 38 -128.5t103 -48.5q70 0 122 42t86 104.5 t50.5 133.5t16.5 130q0 80 -39 129t-109 49q-74 0 -125 -45t-83 -109.5t-46 -135t-14 -121.5zM559 1071l185 361h356l-379 -361h-162z" />
<glyph unicode="&#xf4;" horiz-adv-x="1173" d="M117 375q0 131 46 243.5t126 195.5t188.5 131t235.5 48q113 0 192.5 -39t130.5 -100t75 -137t24 -148q0 -123 -44 -231.5t-124 -189t-189.5 -129t-240.5 -48.5q-94 0 -171 30t-132.5 83t-86 127t-30.5 164zM418 365q0 -80 38 -128.5t103 -48.5q70 0 122 42t86 104.5 t50.5 133.5t16.5 130q0 80 -39 129t-109 49q-74 0 -125 -45t-83 -109.5t-46 -135t-14 -121.5zM309 1063l347 373h280l148 -373h-123l-178 229l-340 -229h-134z" />
<glyph unicode="&#xf5;" horiz-adv-x="1173" d="M117 375q0 131 46 243.5t126 195.5t188.5 131t235.5 48q113 0 192.5 -39t130.5 -100t75 -137t24 -148q0 -123 -44 -231.5t-124 -189t-189.5 -129t-240.5 -48.5q-94 0 -171 30t-132.5 83t-86 127t-30.5 164zM418 365q0 -80 38 -128.5t103 -48.5q70 0 122 42t86 104.5 t50.5 133.5t16.5 130q0 80 -39 129t-109 49q-74 0 -125 -45t-83 -109.5t-46 -135t-14 -121.5zM377 1083q0 88 21.5 149.5t55.5 100.5t75 56.5t79 17.5q41 0 85.5 -17.5t86 -38t79.5 -38t67 -17.5q78 0 86 113h145q4 -74 -13 -134.5t-50 -102.5t-77 -64.5t-95 -22.5 q-41 0 -82 17.5t-81 39t-79 39t-76 17.5q-78 0 -77 -115h-150z" />
<glyph unicode="&#xf6;" horiz-adv-x="1173" d="M117 375q0 131 46 243.5t126 195.5t188.5 131t235.5 48q113 0 192.5 -39t130.5 -100t75 -137t24 -148q0 -123 -44 -231.5t-124 -189t-189.5 -129t-240.5 -48.5q-94 0 -171 30t-132.5 83t-86 127t-30.5 164zM418 365q0 -80 38 -128.5t103 -48.5q70 0 122 42t86 104.5 t50.5 133.5t16.5 130q0 80 -39 129t-109 49q-74 0 -125 -45t-83 -109.5t-46 -135t-14 -121.5zM381 1251q0 59 43 102.5t103 43.5q59 0 102 -43t43 -103q0 -59 -43 -102t-102 -43t-102.5 43t-43.5 102zM877 1251q0 59 43 102.5t102 43.5t102.5 -43t43.5 -103q0 -59 -43 -102 t-103 -43q-59 0 -102 43t-43 102z" />
<glyph unicode="&#xf7;" horiz-adv-x="1368" d="M209 561v260h1128v-260h-1128zM621 264q0 63 44 107.5t107 44.5t108.5 -44t45.5 -108q0 -63 -45 -108t-109 -45q-63 0 -107 45t-44 108zM621 1120q0 63 44 107.5t107 44.5t108.5 -44t45.5 -108q0 -63 -45 -108t-109 -45q-63 0 -107 45t-44 108z" />
<glyph unicode="&#xf8;" horiz-adv-x="1173" d="M117 385q0 127 46 238.5t127 193.5t189.5 129t233.5 47q131 0 223 -55l100 117l92 -82l-98 -115q104 -127 105 -287q0 -117 -47.5 -231.5t-126.5 -196.5q-80 -82 -189.5 -127t-232.5 -45q-133 0 -220 54l-100 -121l-96 84l96 114q-55 61 -78.5 127t-23.5 156zM418 332 l354 413q-49 35 -113.5 29t-126.5 -67q-18 -18 -40.5 -59.5t-41 -93.5t-28.5 -110.5t-4 -111.5zM479 213q41 -31 105.5 -22.5t124.5 67.5q59 59 93 155.5t32 215.5z" />
<glyph unicode="&#xf9;" horiz-adv-x="1236" d="M150 762l49 207h428l-146 -625q-7 -27 -6 -48q0 -24 8 -41q16 -32 54 -32q18 0 46.5 9.5t60.5 24.5t63.5 35.5t58.5 43.5l98 426h-131l49 207h428l-176 -762h131l-49 -207h-428l31 127q-31 -23 -73 -46.5t-88 -44t-94 -33.5t-95 -13q-41 0 -79 16.5t-65.5 43t-44 62 t-16.5 76.5q0 29 7 76t17 101l93 397h-131zM353 1432h356l184 -361h-161z" />
<glyph unicode="&#xfa;" horiz-adv-x="1236" d="M150 762l49 207h428l-146 -625q-7 -27 -6 -48q0 -24 8 -41q16 -32 54 -32q18 0 46.5 9.5t60.5 24.5t63.5 35.5t58.5 43.5l98 426h-131l49 207h428l-176 -762h131l-49 -207h-428l31 127q-31 -23 -73 -46.5t-88 -44t-94 -33.5t-95 -13q-41 0 -79 16.5t-65.5 43t-44 62 t-16.5 76.5q0 29 7 76t17 101l93 397h-131zM592 1071l185 361h356l-379 -361h-162z" />
<glyph unicode="&#xfb;" horiz-adv-x="1236" d="M150 762l49 207h428l-146 -625q-7 -27 -6 -48q0 -24 8 -41q16 -32 54 -32q18 0 46.5 9.5t60.5 24.5t63.5 35.5t58.5 43.5l98 426h-131l49 207h428l-176 -762h131l-49 -207h-428l31 127q-31 -23 -73 -46.5t-88 -44t-94 -33.5t-95 -13q-41 0 -79 16.5t-65.5 43t-44 62 t-16.5 76.5q0 29 7 76t17 101l93 397h-131zM342 1063l347 373h280l148 -373h-123l-178 229l-340 -229h-134z" />
<glyph unicode="&#xfc;" horiz-adv-x="1236" d="M150 762l49 207h428l-146 -625q-7 -27 -6 -48q0 -24 8 -41q16 -32 54 -32q18 0 46.5 9.5t60.5 24.5t63.5 35.5t58.5 43.5l98 426h-131l49 207h428l-176 -762h131l-49 -207h-428l31 127q-31 -23 -73 -46.5t-88 -44t-94 -33.5t-95 -13q-41 0 -79 16.5t-65.5 43t-44 62 t-16.5 76.5q0 29 7 76t17 101l93 397h-131zM414 1251q0 59 43 102.5t103 43.5q59 0 102 -43t43 -103q0 -59 -43 -102t-102 -43t-102.5 43t-43.5 102zM910 1251q0 59 43 102.5t102 43.5t102.5 -43t43.5 -103q0 -59 -43 -102t-103 -43q-59 0 -102 43t-43 102z" />
<glyph unicode="&#xfd;" horiz-adv-x="1153" d="M31 -440l47 207h162l114 202l-147 793h-107l50 207h507l-49 -207h-116l51 -463h4l266 463h-117l47 207h506l-47 -207h-131l-696 -1202h-344zM549 1071l185 361h356l-379 -361h-162z" />
<glyph unicode="&#xfe;" horiz-adv-x="1236" d="M-104 -440l47 207h137l328 1417h-138l47 207h435l-127 -549l4 -4q72 76 141.5 109.5t149.5 33.5q74 0 134 -28.5t103 -81t66.5 -125t23.5 -160.5q0 -129 -40 -241t-108.5 -194.5t-160.5 -131t-197 -48.5q-92 0 -159.5 38t-120.5 122l-84 -364h158l-48 -207h-591zM530 381 q0 -78 46.5 -129t113.5 -51q63 0 110.5 34.5t80 89t49 120t16.5 126.5q0 82 -41 129.5t-110 47.5q-51 0 -98.5 -31t-84.5 -82t-59.5 -117.5t-22.5 -136.5z" />
<glyph unicode="&#xff;" horiz-adv-x="1153" d="M31 -440l47 207h162l114 202l-147 793h-107l50 207h507l-49 -207h-116l51 -463h4l266 463h-117l47 207h506l-47 -207h-131l-696 -1202h-344zM371 1251q0 59 43 102.5t103 43.5q59 0 102 -43t43 -103q0 -59 -43 -102t-102 -43t-102.5 43t-43.5 102zM867 1251 q0 59 43 102.5t102 43.5t102.5 -43t43.5 -103q0 -59 -43 -102t-103 -43q-59 0 -102 43t-43 102z" />
<glyph unicode="&#x131;" d="M27 0l47 207h106l129 555h-131l47 207h428l-176 -762h131l-47 -207h-534z" />
<glyph unicode="&#x152;" horiz-adv-x="2048" d="M180 537q0 156 58.5 309t167 274t263 196t349.5 75h1206l-102 -441h-221l51 224h-398l-81 -357h327l-49 -217h-328l-88 -383h410l49 221h223l-102 -438h-1180q-141 0 -245.5 46t-173 122t-102.5 172.5t-34 196.5zM543 504q0 -86 32.5 -146.5t91 -96.5t139.5 -46t177 2 l219 957h-110q-104 0 -192.5 -26t-147.5 -85q-49 -49 -88 -121t-66 -149.5t-41 -154.5t-14 -134z" />
<glyph unicode="&#x153;" horiz-adv-x="2027" d="M123 422q0 121 48 225.5t131 181t196.5 120.5t246.5 44q125 0 208 -37.5t153 -128.5q121 88 225.5 129t214.5 41q102 0 194.5 -36.5t157 -108.5t93 -179.5t4.5 -248.5h-791q-6 -59 10.5 -107.5t50 -82t80 -52t97.5 -18.5q72 0 124 28.5t115 100.5l228 -105 q-68 -102 -187.5 -159.5t-265.5 -57.5q-264 0 -428 189q-57 -53 -107.5 -89t-101.5 -58.5t-106.5 -32t-118.5 -9.5q-109 0 -196 32t-148.5 90.5t-94 142.5t-32.5 186zM418 391q0 -92 56 -147.5t149 -55.5q84 0 142 41t94 101.5t52.5 130t16.5 127.5q0 82 -56.5 135 t-142.5 53q-92 0 -152.5 -50t-96.5 -115.5t-49 -129t-13 -90.5zM1247 582h500q4 51 -11.5 92t-45 69.5t-69.5 44t-87 15.5q-98 0 -176 -59.5t-111 -161.5z" />
<glyph unicode="&#x178;" horiz-adv-x="1280" d="M156 1174l51 217h577l-51 -217h-112l141 -386l328 386h-115l51 217h559l-49 -217h-131l-520 -574l-90 -383h143l-53 -217h-627l51 217h131l88 383l-235 574h-137zM567 1675q0 59 43 102.5t103 43.5q59 0 102 -43t43 -103q0 -59 -43 -102t-102 -43t-102.5 43t-43.5 102z M1063 1675q0 59 43 102.5t102 43.5t102.5 -43t43.5 -103q0 -59 -43 -102t-103 -43q-59 0 -102 43t-43 102z" />
<glyph unicode="&#x2c6;" d="M63 1063l347 373h280l148 -373h-123l-178 229l-340 -229h-134z" />
<glyph unicode="&#x2da;" d="M313 1268q0 43 16.5 82t45 67.5t67.5 45t82 16.5t82 -16.5t67.5 -45t45 -67.5t16.5 -82t-16.5 -82t-45 -67.5t-67.5 -45t-82 -16.5t-82 16.5t-67.5 45t-45 67.5t-16.5 82zM410 1268q0 -47 33.5 -81t80.5 -34t81 34t34 81t-34 80.5t-81 33.5t-80.5 -33.5t-33.5 -80.5z" />
<glyph unicode="&#x2dc;" d="M131 1083q0 88 21.5 149.5t55.5 100.5t75 56.5t79 17.5q41 0 85.5 -17.5t86 -38t79.5 -38t67 -17.5q78 0 86 113h145q4 -74 -13 -134.5t-50 -102.5t-77 -64.5t-95 -22.5q-41 0 -82 17.5t-81 39t-79 39t-76 17.5q-78 0 -77 -115h-150z" />
<glyph unicode="&#x2000;" horiz-adv-x="950" />
<glyph unicode="&#x2001;" horiz-adv-x="1902" />
<glyph unicode="&#x2002;" horiz-adv-x="950" />
<glyph unicode="&#x2003;" horiz-adv-x="1902" />
<glyph unicode="&#x2004;" horiz-adv-x="632" />
<glyph unicode="&#x2005;" horiz-adv-x="475" />
<glyph unicode="&#x2006;" horiz-adv-x="315" />
<glyph unicode="&#x2007;" horiz-adv-x="315" />
<glyph unicode="&#x2008;" horiz-adv-x="237" />
<glyph unicode="&#x2009;" horiz-adv-x="378" />
<glyph unicode="&#x200a;" horiz-adv-x="104" />
<glyph unicode="&#x2010;" horiz-adv-x="704" d="M123 356l59 256h482l-60 -256h-481z" />
<glyph unicode="&#x2011;" horiz-adv-x="704" d="M123 356l59 256h482l-60 -256h-481z" />
<glyph unicode="&#x2012;" horiz-adv-x="704" d="M123 356l59 256h482l-60 -256h-481z" />
<glyph unicode="&#x2013;" horiz-adv-x="1024" d="M31 387v250h1048v-250h-1048z" />
<glyph unicode="&#x2014;" horiz-adv-x="2048" d="M31 387v250h2072v-250h-2072z" />
<glyph unicode="&#x2018;" d="M258 711l72 313q14 66 41.5 129.5t74 115.5t114 84.5t163.5 37.5l-33 -142q-45 -10 -77.5 -31.5t-55 -52t-37 -66.5t-22.5 -75h145l-72 -313h-313z" />
<glyph unicode="&#x2019;" d="M297 711l33 141q90 20 133 83.5t59 141.5h-145l72 314h313l-72 -314q-14 -66 -41.5 -129t-74 -115.5t-114 -85t-163.5 -36.5z" />
<glyph unicode="&#x201a;" d="M43 -367l33 142q90 20 133 83.5t59 141.5h-145l72 313h313l-72 -313q-14 -66 -41.5 -129.5t-74 -115.5t-114 -85t-163.5 -37z" />
<glyph unicode="&#x201c;" horiz-adv-x="1216" d="M283 711l71 313q14 66 42 129.5t74 115.5t113.5 84.5t164.5 37.5l-33 -142q-45 -10 -78 -31.5t-55.5 -52t-37 -66.5t-22.5 -75h146l-72 -313h-313zM803 711l71 313q14 66 42 129.5t74 115.5t113.5 84.5t164.5 37.5l-33 -142q-45 -10 -78 -31.5t-55.5 -52t-36.5 -66.5 t-23 -75h146l-72 -313h-313z" />
<glyph unicode="&#x201d;" horiz-adv-x="1216" d="M283 711l32 141q90 20 133.5 83.5t59.5 141.5h-146l72 314h314l-72 -314q-14 -66 -42 -129t-74 -115.5t-113.5 -85t-163.5 -36.5zM805 711l33 141q90 20 133 83.5t59 141.5h-145l71 314h314l-72 -314q-14 -66 -42 -129t-74 -115.5t-113.5 -85t-163.5 -36.5z" />
<glyph unicode="&#x201e;" horiz-adv-x="1216" d="M47 -367l33 142q90 20 133 83.5t59 141.5h-145l72 313h313l-72 -313q-14 -66 -41.5 -129.5t-73.5 -115.5t-114 -85t-164 -37zM567 -367l33 142q90 20 133 83.5t60 141.5h-146l72 313h313l-71 -313q-14 -66 -42 -129.5t-74 -115.5t-114 -85t-164 -37z" />
<glyph unicode="&#x2022;" horiz-adv-x="724" d="M164 698q0 59 22.5 111.5t60.5 90.5t90 60.5t112 22.5q59 0 111 -22.5t91 -60.5t61.5 -90t22.5 -112q0 -59 -22.5 -111t-61.5 -91t-91 -61.5t-111 -22.5t-111.5 22.5t-90.5 61.5t-60.5 91t-22.5 111z" />
<glyph unicode="&#x2026;" horiz-adv-x="2048" d="M174 0v336h336v-336h-336zM856 0v336h336v-336h-336zM1538 0v336h336v-336h-336z" />
<glyph unicode="&#x202f;" horiz-adv-x="378" />
<glyph unicode="&#x2039;" horiz-adv-x="532" d="M63 489l318 480h309l-348 -520l125 -449h-268z" />
<glyph unicode="&#x203a;" horiz-adv-x="532" d="M-80 0l348 520l-125 449h269l135 -490l-318 -479h-309z" />
<glyph unicode="&#x205f;" horiz-adv-x="475" />
<glyph unicode="&#x20ac;" horiz-adv-x="1110" d="M66 479l36 150h86q2 66 13 131h-109l37 149h104q35 109 89.5 201t126 159.5t164 105.5t202.5 38q88 0 160 -39t108 -90l23 107h166l-68 -412h-160q-25 104 -81 164.5t-150 60.5q-57 0 -103 -22.5t-83 -61.5t-67 -93t-54 -118h391l-35 -149h-397q-6 -33 -10 -64.5 t-6 -66.5h389l-35 -150h-350q6 -59 20 -112.5t38 -93.5t59.5 -63.5t84.5 -23.5q84 0 154 58.5t137 175.5l178 -123q-92 -162 -216 -241t-263 -79q-104 0 -184 37t-135.5 103.5t-88 159t-42.5 202.5h-129z" />
<glyph unicode="&#x2122;" horiz-adv-x="2048" d="M147 1249v142h666v-142h-246v-676h-166v676h-254zM909 573v818h260l148 -564h4l147 564h261v-818h-158v652h-4l-174 -652h-152l-170 652h-4v-652h-158z" />
<glyph unicode="&#xe000;" horiz-adv-x="970" d="M0 970h970v-970h-970v970z" />
<glyph unicode="&#xfb01;" horiz-adv-x="1259" d="M12 0l47 207h107l127 555h-148l50 207h147q18 111 54 193.5t97.5 138t153.5 83t225 27.5q180 0 279.5 -67.5t112.5 -196.5h-289q-10 23 -25.5 36t-34.5 19q-18 8 -37.5 10t-35.5 2q-51 0 -86 -15t-57.5 -46t-37 -77t-22.5 -107h584l-176 -762h131l-48 -207h-522l47 207 h95l127 555h-287l-127 -555h106l-47 -207h-510z" />
<glyph unicode="&#xfb02;" horiz-adv-x="1259" d="M12 0l49 207h107l127 555h-148l48 207h149q37 240 158 342t303 102q12 0 37.5 -1t57.5 -4t68 -7t66 -10h289l-272 -1184h129l-50 -207h-524l49 207h99l215 938q-29 70 -127 69q-45 0 -78 -11t-55.5 -39.5t-39 -76t-30.5 -118.5h111l-48 -207h-110l-127 -555h106l-49 -207 h-510z" />
<glyph unicode="&#xfb03;" horiz-adv-x="2045" d="M1391 0l47 207h106l129 555h-131l47 207h428l-176 -762h131l-47 -207h-534zM1765 1255q0 68 47.5 115t114.5 47q68 0 116 -47t48 -115t-48 -115.5t-116 -47.5t-115 47.5t-47 115.5zM698 0l47 207h99l129 555h-148l47 207h148q20 98 56 179t89.5 138t126 89t170.5 32 q66 0 119 -16.5t121 -59.5l-80 -198q-35 33 -63.5 45t-63.5 12q-80 0 -115.5 -56.5t-62.5 -164.5h125l-47 -207h-125l-129 -555h131l-47 -207h-527zM16 0l47 207h99l129 555h-148l47 207h148q20 98 56 179t89.5 138t126 89t170.5 32q66 0 119 -16.5t121 -59.5l-80 -198 q-35 33 -63.5 45t-63.5 12q-80 0 -115.5 -56.5t-62.5 -164.5h125l-47 -207h-125l-129 -555h131l-47 -207h-527z" />
<glyph unicode="&#xfb04;" horiz-adv-x="2045" d="M1384 0l48 207h106l225 977h-137l47 207h434l-272 -1184h131l-47 -207h-535zM698 0l47 207h99l129 555h-148l47 207h148q20 98 56 179t89.5 138t126 89t170.5 32q66 0 119 -16.5t121 -59.5l-80 -198q-35 33 -63.5 45t-63.5 12q-80 0 -115.5 -56.5t-62.5 -164.5h125 l-47 -207h-125l-129 -555h131l-47 -207h-527zM16 0l47 207h99l129 555h-148l47 207h148q20 98 56 179t89.5 138t126 89t170.5 32q66 0 119 -16.5t121 -59.5l-80 -198q-35 33 -63.5 45t-63.5 12q-80 0 -115.5 -56.5t-62.5 -164.5h125l-47 -207h-125l-129 -555h131l-47 -207 h-527z" />
</font>
</defs>
</svg>
