<?xml version="1.0" encoding="utf-8"?>
<!-- Generator: Adobe Illustrator 16.2.1, SVG Export Plug-In . SVG Version: 6.00 Build 0)  -->
<!DOCTYPE svg PUBLIC "-//W3C//DTD SVG 1.1//EN" "http://www.w3.org/Graphics/SVG/1.1/DTD/svg11.dtd">
<svg version="1.1" id="Layer_1" xmlns="http://www.w3.org/2000/svg" xmlns:xlink="http://www.w3.org/1999/xlink" x="0px" y="0px"
	 width="672.48px" height="132.357px" viewBox="0 0 672.48 132.357" enable-background="new 0 0 672.48 132.357"
	 xml:space="preserve">
<g>
	<path fill-rule="evenodd" clip-rule="evenodd" d="M17.164,113.087c3.841,0.146,6.997,0.098,10.257,0.098
		c2.656,0,4.622,0.365,6.291,1.451c1.061,0.691,1.85,1.362,2.612,2.516c0.083,0.125,0.091,0.315,0.194,0.483
		c0.07,0.117,0.229,0.171,0.29,0.292c0.074,0.143,0.121,0.31,0.194,0.482c0.516,1.226,0.862,3.218,0.581,4.936
		c-0.426,2.594-2.142,4.81-4.258,5.999c-1.119,0.63-2.504,1.024-4.161,1.064c-4.902,0.118-10.377-0.096-15.289-0.096
		c-3.112,0-6.17,0.265-8.419-0.581c-0.049-0.019-0.157-0.183-0.193-0.193c-0.602-0.182-0.929-0.416-1.452-0.774
		c-0.25-0.173-0.567-0.309-0.774-0.483c-0.295-0.251-0.681-0.645-0.968-0.968c-0.157-0.177-0.237-0.354-0.387-0.581
		c-0.21-0.316-0.648-0.873-0.871-1.354c-0.266-0.575-0.432-1.222-0.581-1.935c-0.426-2.053-0.193-4.594-0.193-7.161
		c0-34.311,0-68.029,0-102.573c0-2.511-0.277-5.147,0.193-7.064C1.062,3.248,3.83,0.6,7.68,0.161
		c1.099-0.125,2.759,0.029,3.774,0.387c2.826,0.997,4.878,3.38,5.516,6.386c0.408,1.928,0.193,4.217,0.193,6.483
		C17.164,46.329,17.164,80.588,17.164,113.087z"/>
	<path fill-rule="evenodd" clip-rule="evenodd" d="M28.292,0.161c-0.002,0.001,0.03-0.092,0.097-0.097c1.973-0.145,4.081,0,6.096,0
		c22.109,0,44.478,0,66.769,0c6.084,0,12.143,0,18.192,0c1.084,0,2.078-0.029,3,0c3.024,0.094,5.307,1.561,6.677,3.483
		c1.008,1.416,1.762,3.237,1.645,5.516c-0.115,2.249-0.95,3.839-2.032,5.128c-1.132,1.351-2.505,2.213-4.354,2.709
		c-1.565,0.421-3.587,0.291-5.805,0.291c-28.703,0-56.67,0-85.349,0c-2.116,0-4.318,0.194-5.902-0.194
		c-0.826-0.202-1.605-0.548-2.323-0.967c-0.184-0.108-0.283-0.251-0.483-0.387c-0.192-0.131-0.407-0.147-0.581-0.291
		c-0.169-0.14-0.459-0.458-0.678-0.677c-0.022-0.022-0.183-0.075-0.193-0.097c-0.02-0.043,0.03-0.16,0-0.193
		c-0.13-0.144-0.366-0.236-0.484-0.387c-0.244-0.314-0.462-0.688-0.677-1.065c-0.882-1.539-1.447-3.569-1.064-5.806
		c0.316-1.847,1.332-3.498,2.516-4.645C24.559,1.32,26.15,0.418,28.292,0.161z"/>
	<path fill-rule="evenodd" clip-rule="evenodd" d="M28.583,21.256c0.727-0.071,2.227-0.05,3.096,0.194
		c0.576,0.161,1.344,0.524,1.936,0.871c0.211,0.124,0.46,0.275,0.677,0.484c0.101,0.096,0.242,0.167,0.387,0.291
		c0.39,0.329,0.992,0.792,1.354,1.257c0.524,0.674,0.918,1.517,1.258,2.419c0.604,1.596,0.709,3.146,0.291,4.936
		c-0.207,0.881-0.456,1.602-0.871,2.322c-0.062,0.108-0.136,0.297-0.193,0.387c-0.024,0.037-0.179,0.065-0.194,0.097
		c-0.161,0.357-0.49,0.688-0.774,1.064c-0.067,0.088-0.115,0.212-0.194,0.29c-0.085,0.085-0.265,0.089-0.386,0.194
		c-0.082,0.069-0.112,0.224-0.194,0.29c-0.13,0.104-0.271,0.119-0.387,0.193c-0.037,0.024-0.064,0.179-0.097,0.193
		c-0.486,0.22-0.93,0.504-1.548,0.774c-3.466,1.517-7.224,0.518-9.483-1.742c-1.847-1.848-3.032-4.663-2.322-7.935
		c0.056-0.258,0.204-0.518,0.291-0.774c0.338-1.004,0.699-1.796,1.354-2.613c0.153-0.191,0.322-0.312,0.484-0.484
		c0.1-0.106,0.084-0.288,0.193-0.387c0.084-0.077,0.209-0.119,0.291-0.193c0.789-0.721,1.911-1.435,3.193-1.839
		C27.331,21.362,27.869,21.326,28.583,21.256z"/>
	<path fill-rule="evenodd" clip-rule="evenodd" d="M75.514,35.675c-0.01,0,0.036-0.093,0.096-0.097
		c2.802-0.206,5.561,0.21,7.646,0.871c1.11,0.352,2.328,0.864,3.386,1.451c0.116,0.064,0.25,0.106,0.387,0.194
		c0.094,0.06,0.189,0.228,0.291,0.291c0.156,0.095,0.342,0.106,0.484,0.193c0.269,0.166,0.639,0.527,0.968,0.774
		c0.126,0.096,0.279,0.099,0.387,0.193c0.115,0.101,0.175,0.199,0.291,0.291c0.206,0.164,0.32,0.198,0.484,0.386
		c0.695,0.803,1.792,1.694,2.516,2.614c1.162,1.476,2.085,3.093,2.903,5.031c0.049,0.117,0.158,0.289,0.193,0.387
		c0.105,0.298,0.097,0.661,0.194,0.967c0.189,0.606,0.455,1.184,0.58,1.839c0.064,0.33,0.051,0.711,0.097,1.064
		c0.042,0.31,0.17,0.667,0.193,0.967c0.577,7.373-2.673,12.939-6.58,16.354c-0.11,0.096-0.195,0.213-0.291,0.289
		c-0.104,0.085-0.271,0.102-0.387,0.194c-0.14,0.112-0.173,0.292-0.29,0.388c-0.26,0.21-0.713,0.444-1.066,0.677
		c-0.258,0.171-0.518,0.331-0.773,0.483c-0.131,0.078-0.289,0.142-0.387,0.194c-0.044,0.022-0.062,0.176-0.097,0.192
		c-0.194,0.092-0.284,0.071-0.485,0.194c-0.124,0.076-0.356,0.183-0.58,0.291c-2.774,1.327-6.881,2.27-11.128,1.644
		c-3.806-0.56-6.766-1.965-9.29-3.967c-0.15-0.119-0.318-0.221-0.484-0.388c-0.038-0.038-0.059-0.159-0.097-0.192
		c-0.076-0.066-0.218-0.03-0.29-0.097c-0.508-0.474-1.141-1.317-1.742-1.839c-0.132-0.116-0.203-0.257-0.387-0.484
		c-2.69-3.343-4.981-8.442-4.064-14.805c0.058-0.402,0.025-0.775,0.096-1.161c0.097-0.523,0.408-1.265,0.581-1.839
		c0.096-0.316,0.089-0.67,0.194-0.967c0.018-0.051,0.183-0.157,0.193-0.193c0.234-0.774,0.559-1.551,0.968-2.323
		c0.224-0.422,0.43-0.75,0.677-1.161c0.154-0.256,0.286-0.401,0.484-0.678c0.353-0.493,0.825-1.143,1.257-1.645
		c2.12-2.46,5.01-4.638,8.71-5.806C72.667,36.034,74.082,35.792,75.514,35.675z"/>
	<path fill-rule="evenodd" clip-rule="evenodd" d="M37.582,91.993c27.03,0.145,52.766-0.193,80.026-0.193
		c1.766,0,3.541-0.106,5.226,0.097c2.474,0.297,4.322,1.397,5.708,3.192c1.338,1.733,2.138,4.065,1.646,6.774
		c-0.339,1.862-1.055,3.242-2.226,4.451c-1.028,1.061-2.472,1.996-4.259,2.419c-1.161,0.275-2.582,0.291-4.064,0.291
		c-17.852,0-35.151,0.193-52.834,0.193c-11.637,0-23.445,0.097-35.223,0.097c-1.684,0-3.148,0.136-4.355-0.097
		c-0.589-0.113-1.12-0.364-1.645-0.581c-0.256-0.104-0.527-0.152-0.774-0.29c-0.271-0.151-0.641-0.442-0.968-0.677
		c-1.455-1.044-2.783-2.796-3.29-4.936c-0.427-1.804-0.194-4.315-0.194-6.773c0-14.035,0.097-27.442,0.097-41.513
		c0-1.188-0.023-2.331,0-3.484c0.021-1.084,0.019-2.209,0.194-3.193c0.336-1.892,1.413-3.666,2.709-4.838
		c1.815-1.642,4.429-2.519,7.258-2.032c2.123,0.365,3.719,1.413,4.935,2.807c0.988,1.133,1.768,2.581,2.032,4.063
		c0.302,1.697,0.096,3.673,0.096,5.516C37.678,65.888,37.588,79.607,37.582,91.993z"/>
	<path fill-rule="evenodd" clip-rule="evenodd" d="M49.387,113.185c-0.007,0.001,0.035-0.091,0.096-0.098
		c2.209-0.215,4.614,0,6.871,0c13.372,0,27.179,0.291,40.835,0.291c1.706,0,3.343-0.069,4.935,0.193
		c0.584,0.097,1.398,0.305,2.032,0.581c0.899,0.393,1.98,1.182,2.709,1.935c0.384,0.396,0.605,0.782,0.968,1.161
		c0.079,0.083,0.116,0.209,0.194,0.29c0.052,0.057,0.292,0.481,0.387,0.678c0.729,1.504,1.189,4.021,0.58,6.193
		c-0.122,0.435-0.384,0.841-0.58,1.258c-0.403,0.859-0.816,1.549-1.452,2.226c-1.153,1.227-2.833,2.268-4.741,2.613
		c-1.886,0.339-4.399,0.097-6.774,0.097c-2.333,0-4.719,0.082-6.773,0c-4.614-0.185-9.245-0.003-13.451-0.194
		c-2.313-0.104-4.532,0-6.87,0c-4.421,0.001-8.851-0.096-13.548-0.096c-1.733,0-3.423,0.079-5.032-0.098
		c-1.924-0.212-3.36-0.844-4.644-1.838c-0.488-0.379-0.859-0.655-1.258-1.162c-0.057-0.072-0.145-0.13-0.193-0.193
		c-0.059-0.076-0.034-0.203-0.097-0.29c-0.114-0.155-0.271-0.212-0.387-0.388c-0.062-0.096-0.042-0.2-0.097-0.289
		c-0.336-0.541-0.887-1.645-1.065-2.42c-0.433-1.887-0.151-3.956,0.484-5.419c0.311-0.715,0.8-1.341,1.258-1.935
		c0.453-0.588,0.918-1.094,1.548-1.549C46.274,114.044,47.739,113.375,49.387,113.185z"/>
	<path fill-rule="evenodd" clip-rule="evenodd" d="M121.285,113.378c0.727-0.071,2.227-0.051,3.096,0.193
		c0.576,0.161,1.344,0.524,1.935,0.871c0.213,0.124,0.461,0.275,0.678,0.483c0.1,0.097,0.242,0.167,0.387,0.29
		c0.39,0.329,0.992,0.793,1.354,1.258c0.525,0.675,0.918,1.518,1.258,2.42c0.603,1.596,0.71,3.146,0.292,4.935
		c-0.207,0.883-0.457,1.603-0.872,2.323c-0.062,0.107-0.136,0.298-0.193,0.387c-0.024,0.037-0.18,0.064-0.194,0.097
		c-0.162,0.357-0.491,0.688-0.774,1.063c-0.067,0.089-0.115,0.214-0.194,0.291c-0.085,0.085-0.264,0.089-0.387,0.194
		c-0.082,0.068-0.112,0.224-0.193,0.289c-0.13,0.105-0.272,0.12-0.387,0.194c-0.038,0.022-0.065,0.179-0.097,0.192
		c-0.486,0.22-0.93,0.504-1.548,0.774c-3.465,1.519-7.223,0.518-9.482-1.741c-1.848-1.848-3.032-4.664-2.323-7.936
		c0.056-0.257,0.203-0.517,0.29-0.773c0.339-1.004,0.7-1.796,1.356-2.612c0.152-0.191,0.321-0.312,0.483-0.484
		c0.099-0.105,0.084-0.287,0.194-0.388c0.083-0.076,0.208-0.118,0.29-0.192c0.79-0.722,1.911-1.436,3.193-1.839
		C120.033,113.484,120.572,113.448,121.285,113.378z"/>
</g>
<g>
	<g>
		<path d="M173.401,80.354h-31.877V0.091h18.209V61.12h13.668V80.354z"/>
		<path d="M201.942,0.091h18.209v55.791c0,4.667-0.626,8.447-1.878,11.342c-1.223,3.031-3.261,5.773-6.113,8.226
			c-3.843,3.271-8.515,4.904-14.017,4.904c-6.23,0-11.456-1.805-15.676-5.415c-5.356-4.599-8.035-11.956-8.035-22.071V0.091h18.209
			V51.56c0,3.48,0.356,5.943,1.07,7.39c0.713,1.447,1.914,2.17,3.603,2.17c1.747,0,2.955-0.672,3.625-2.015
			c0.669-1.413,1.004-3.911,1.004-7.493V0.091z"/>
		<path d="M293.886,80.354h-18.427l-0.742-36.597l-0.591-14.607c-0.213,2.807-0.455,5.484-0.728,8.031
			c-0.273,2.547-0.606,5.017-1,7.408l-5.957,35.765h-15.13l-4.891-35.817c-0.292-2.08-0.685-5.648-1.179-10.709
			c-0.059-0.762-0.189-2.321-0.393-4.678l-0.437,14.815l-1.616,36.389h-19.388l7.86-80.263h22.663l3.799,27.032
			c0.32,2.218,0.604,4.626,0.852,7.226c0.247,2.599,0.473,5.424,0.677,8.474c0.37-5.095,0.883-9.651,1.539-13.672l4.53-29.059
			h22.009L293.886,80.354z"/>
		<path d="M298.104,80.354V0.091h33.842v19.234h-15.633v10.241h14.017V48.8h-14.017v12.32h15.633v19.234H298.104z"/>
		<path d="M335.247,80.354V0.091h17.379l9.126,28.175c0.495,1.664,1.055,3.57,1.681,5.718c0.625,2.149,1.317,4.626,2.074,7.434
			l1.877,7.07c-0.67-6.966-1.179-12.926-1.528-17.882c-0.349-4.956-0.524-9.114-0.524-12.476V0.091h17.554v80.263h-17.554
			l-9.721-29.527c-1.019-3.153-1.937-6.108-2.754-8.863c-0.818-2.755-1.536-5.38-2.153-7.875c0.726,5.649,1.257,10.57,1.593,14.763
			c0.335,4.194,0.503,7.868,0.503,11.021v20.481H335.247z"/>
		<path d="M436.667,80.354h-18.82l-1.354-10.188h-12.27l-1.485,10.188h-18.82l16.2-80.263h22.27L436.667,80.354z M414.353,53.271
			l-1.179-9.357c-0.029-0.034-0.087-0.502-0.175-1.403c-0.059-0.762-0.364-3.777-0.917-9.045c-0.059-0.589-0.131-1.395-0.218-2.417
			c-0.087-1.022-0.204-2.313-0.35-3.873l-0.567-7.589c-0.059,0.728-0.139,1.542-0.24,2.443c-0.103,0.902-0.211,1.89-0.328,2.963
			c-0.204,2.149-0.349,3.639-0.437,4.471c-0.087,0.832-0.146,1.334-0.175,1.507l-1.266,9.721l-1.834,12.58H414.353z"/>
		<path d="M469.355,80.354h-31.877V0.091h18.209V61.12h13.668V80.354z"/>
		<path d="M530.627,55.921l-1.048,21.753c-4.047,1.787-7.671,2.68-10.873,2.68c-7.54,0-13.886-3.179-19.038-9.537
			c-5.764-7.128-8.646-17.217-8.646-30.268c0-12.214,2.707-22.019,8.121-29.415c5.415-7.362,12.648-11.043,21.702-11.043
			c2.94,0,5.939,0.631,8.996,1.893v22.175c-2.708-3.223-5.488-4.834-8.341-4.834c-3.727,0-6.638,1.873-8.733,5.618
			c-2.096,3.779-3.144,9.001-3.144,15.667c0,3.229,0.262,6.116,0.786,8.658c0.523,2.542,1.272,4.69,2.248,6.442
			c0.976,1.753,2.176,3.092,3.603,4.02s3.057,1.392,4.891,1.392C524.296,61.12,527.455,59.387,530.627,55.921z"/>
		<path d="M582.835,40.499c0,11.813-2.344,21.417-7.03,28.812c-4.658,7.362-10.728,11.043-18.209,11.043
			c-6.637,0-12.329-2.827-17.073-8.483c-5.968-7.161-8.952-17.902-8.952-32.226c0-13.72,3.115-24.211,9.345-31.472
			c4.629-5.388,10.116-8.082,16.463-8.082c7.772,0,13.958,3.648,18.558,10.942C580.536,18.329,582.835,28.151,582.835,40.499z
			 M563.928,40.681c0-14.237-2.155-21.356-6.463-21.356c-2.154,0-3.872,1.869-5.152,5.607c-1.252,3.466-1.878,8.563-1.878,15.291
			c0,6.626,0.59,11.766,1.769,15.418c1.179,3.653,2.816,5.479,4.912,5.479c2.154,0,3.813-1.801,4.979-5.403
			C563.317,52.115,563.928,47.104,563.928,40.681z"/>
		<path d="M586.136,80.354V0.091h15.72c8.996,0,15.997,2.877,21.004,8.629c6.579,7.521,9.869,18.038,9.869,31.554
			c0,13.308-2.78,23.583-8.341,30.827c-4.745,6.169-11.819,9.253-21.222,9.253H586.136z M604.345,61.12
			c6.521-0.381,9.781-7.07,9.781-20.066c0-6.411-0.829-11.471-2.489-15.179c-1.659-3.743-3.901-5.614-6.725-5.614h-0.567V61.12z"/>
		<path d="M636.03,80.354V0.091h33.842v19.234h-15.633v10.241h14.018V48.8h-14.018v12.32h15.633v19.234H636.03z"/>
	</g>
	<g>
		<path d="M145.828,91.213v38.269h-4.178V91.213H145.828z"/>
		<path d="M150.828,129.482V88.611l20.189,29.197V91.213h4.178v40.599l-20.189-29.123v26.793H150.828z"/>
		<path d="M187.814,96.642v32.84h-4.178v-32.84h-6.365v-5.429h16.89v5.429H187.814z"/>
		<path d="M211.514,96.642h-11.099v9.194h10.776v5.429h-10.776v12.789h11.099v5.428h-15.276V91.213h15.276V96.642z"/>
		<path d="M224.725,113.173l8.57,16.309h-5.11l-7.907-15.664h-0.753v15.664h-4.178V91.213h4.895c3.658,0,6.299,0.95,7.925,2.851
			c1.793,2.115,2.689,4.907,2.689,8.377c0,2.711-0.562,5.04-1.686,6.99C228.048,111.38,226.565,112.628,224.725,113.173z
			 M219.525,108.787h1.327c3.957,0,5.935-2.091,5.935-6.271c0-3.916-1.925-5.874-5.773-5.874h-1.488V108.787z"/>
		<path d="M252.065,120.187h-11.852l-3.084,9.295h-4.5l13.698-40.673l13.214,40.673h-4.572L252.065,120.187z M250.362,114.759
			l-4.106-13.012l-4.303,13.012H250.362z"/>
		<path d="M280.517,93.258v6.828c-2.415-2.792-4.913-4.188-7.495-4.188c-2.845,0-5.242,1.413-7.19,4.238
			c-1.96,2.81-2.94,6.246-2.94,10.311c0,4.016,0.98,7.402,2.94,10.162s4.363,4.139,7.208,4.139c1.471,0,2.719-0.33,3.748-0.991
			c0.574-0.33,1.168-0.776,1.784-1.338c0.615-0.562,1.264-1.239,1.945-2.032v6.977c-2.391,1.876-4.901,2.813-7.531,2.813
			c-3.957,0-7.333-1.909-10.13-5.726c-2.786-3.85-4.178-8.493-4.178-13.93c0-4.874,1.166-9.22,3.496-13.037
			c2.869-4.676,6.58-7.014,11.134-7.014C275.795,90.47,278.197,91.4,280.517,93.258z"/>
		<path d="M288.313,91.213v38.269h-4.178V91.213H288.313z"/>
		<path d="M294.711,91.213l7.656,26.521l7.764-26.521h4.572l-12.425,41.144l-12.138-41.144H294.711z"/>
		<path d="M331.769,96.642H320.67v9.194h10.776v5.429H320.67v12.789h11.099v5.428h-15.276V91.213h15.276V96.642z"/>
		<path d="M361.544,120.187h-11.852l-3.084,9.295h-4.5l13.698-40.673l13.214,40.673h-4.572L361.544,120.187z M359.841,114.759
			l-4.106-13.012l-4.303,13.012H359.841z"/>
		<path d="M380.207,113.173l8.57,16.309h-5.11l-7.907-15.664h-0.753v15.664h-4.178V91.213h4.895c3.658,0,6.299,0.95,7.925,2.851
			c1.793,2.115,2.689,4.907,2.689,8.377c0,2.711-0.562,5.04-1.686,6.99C383.529,111.38,382.047,112.628,380.207,113.173z
			 M375.007,108.787h1.327c3.957,0,5.935-2.091,5.935-6.271c0-3.916-1.925-5.874-5.773-5.874h-1.488V108.787z"/>
		<path d="M398.6,96.642v32.84h-4.178v-32.84h-6.365v-5.429h16.89v5.429H398.6z"/>
		<path d="M420.88,91.213v38.269h-4.178V91.213H420.88z"/>
		<path d="M425.879,129.482V88.611l20.189,29.197V91.213h4.178v40.599l-20.189-29.123v26.793H425.879z"/>
		<path d="M470.88,96.889l-3.389,2.776c-0.634-1.521-1.237-2.512-1.811-2.975c-0.598-0.528-1.369-0.793-2.313-0.793
			c-1.16,0-2.122,0.455-2.887,1.364c-0.765,0.894-1.147,2.018-1.147,3.373c0,1.869,1.004,3.373,3.012,4.515l2.761,1.562
			c2.247,1.257,3.891,2.79,4.931,4.601c1.04,1.812,1.56,4.031,1.56,6.66c0,3.521-0.849,6.432-2.546,8.73
			c-1.709,2.315-3.831,3.473-6.365,3.473c-2.403,0-4.387-0.988-5.953-2.963c-1.542-1.974-2.504-4.746-2.887-8.314l4.231-1.289
			c0.191,2.247,0.526,3.801,1.004,4.659c0.861,1.653,2.116,2.479,3.765,2.479c1.303,0,2.385-0.603,3.246-1.808
			c0.86-1.205,1.291-2.732,1.291-4.582c0-0.742-0.075-1.424-0.224-2.043s-0.382-1.189-0.699-1.709
			c-0.317-0.521-0.726-1.008-1.228-1.461c-0.502-0.454-1.1-0.888-1.793-1.301l-2.671-1.535c-3.79-2.213-5.684-5.449-5.684-9.709
			c0-2.873,0.795-5.275,2.385-7.207c1.59-1.948,3.568-2.923,5.935-2.923C466.595,90.47,469.087,92.61,470.88,96.889z"/>
		<path d="M483.141,96.642v32.84h-4.178v-32.84h-6.365v-5.429h16.889v5.429H483.141z"/>
		<path d="M506.322,120.187H494.47l-3.084,9.295h-4.5l13.698-40.673l13.214,40.673h-4.572L506.322,120.187z M504.619,114.759
			l-4.106-13.012l-4.303,13.012H504.619z"/>
		<path d="M519.784,91.213v32.841h8.141v5.428h-12.317V91.213H519.784z"/>
		<path d="M534.412,91.213v32.841h8.141v5.428h-12.317V91.213H534.412z"/>
		<path d="M562.666,120.187h-11.852l-3.084,9.295h-4.5l13.698-40.673l13.214,40.673h-4.572L562.666,120.187z M560.962,114.759
			l-4.106-13.012l-4.303,13.012H560.962z"/>
		<path d="M578.046,96.642v32.84h-4.178v-32.84h-6.365v-5.429h16.89v5.429H578.046z"/>
		<path d="M590.648,91.213v38.269h-4.177V91.213H590.648z"/>
		<path d="M594.267,110.174c0-5.387,1.428-10.014,4.285-13.88c2.845-3.866,6.264-5.8,10.256-5.8c3.944,0,7.327,1.95,10.148,5.85
			c2.832,3.899,4.249,8.584,4.249,14.053c0,5.503-1.423,10.171-4.268,14.004c-2.856,3.851-6.305,5.775-10.345,5.775
			c-3.574,0-6.784-1.711-9.629-5.131C595.833,121.262,594.267,116.305,594.267,110.174z M598.48,110.236
			c0,4.228,1.028,7.702,3.084,10.426c2.044,2.725,4.405,4.086,7.083,4.086c2.904,0,5.354-1.387,7.351-4.16
			c1.996-2.806,2.994-6.224,2.994-10.252c0-4.077-0.985-7.495-2.958-10.252c-1.961-2.773-4.387-4.161-7.279-4.161
			c-2.881,0-5.313,1.388-7.298,4.161C599.472,102.824,598.48,106.208,598.48,110.236z"/>
		<path d="M626.807,129.482V88.611l20.188,29.197V91.213h4.178v40.599l-20.189-29.123v26.793H626.807z"/>
		<path d="M671.808,96.889l-3.389,2.776c-0.634-1.521-1.237-2.512-1.812-2.975c-0.598-0.528-1.368-0.793-2.312-0.793
			c-1.159,0-2.122,0.455-2.887,1.364c-0.765,0.894-1.147,2.018-1.147,3.373c0,1.869,1.004,3.373,3.013,4.515l2.761,1.562
			c2.247,1.257,3.891,2.79,4.931,4.601c1.04,1.812,1.56,4.031,1.56,6.66c0,3.521-0.849,6.432-2.546,8.73
			c-1.709,2.315-3.831,3.473-6.365,3.473c-2.402,0-4.387-0.988-5.952-2.963c-1.542-1.974-2.505-4.746-2.887-8.314l4.231-1.289
			c0.19,2.247,0.525,3.801,1.004,4.659c0.86,1.653,2.115,2.479,3.766,2.479c1.303,0,2.384-0.603,3.245-1.808
			c0.86-1.205,1.291-2.732,1.291-4.582c0-0.742-0.075-1.424-0.225-2.043s-0.383-1.189-0.699-1.709
			c-0.316-0.521-0.726-1.008-1.229-1.461c-0.502-0.454-1.1-0.888-1.793-1.301l-2.671-1.535c-3.789-2.213-5.684-5.449-5.684-9.709
			c0-2.873,0.795-5.275,2.385-7.207c1.589-1.948,3.567-2.923,5.935-2.923C667.523,90.47,670.015,92.61,671.808,96.889z"/>
	</g>
</g>
</svg>
