mtllib triangle-trace.mtl
v 160.336746 160.498627 1.000342
v 158.336746 160.498627 1.000342
v 158.336746 158.498627 1.000342
v 160.336060 158.501358 0.999658
vt 1.000000 1.000000
vt 0.000000 1.000000
vt 0.000000 0.000000
vt 1.000000 0.000000
vn 0.000003 -0.000003 0.020000
vn 0.000000 0.000000 0.020000
vn 0.000003 -0.000003 0.020000
vn 0.000007 -0.000007 0.020000
usemtl Front_Material
f 1/1/1 2/2/2 3/3/3
f 4/4/4 1/1/1 3/3/3
v 160.336060 160.501358 -1.000342
v 160.336060 160.501358 0.999658
v 160.336060 158.501358 0.999658
v 160.336060 158.501358 -1.000342
vt 1.000000 1.000000
vt 0.000000 1.000000
vt 0.000000 0.000000
vt 1.000000 0.000000
vn 0.020000 0.000000 0.000000
vn 0.020000 0.000000 0.000000
vn 0.020000 0.000000 0.000000
vn 0.020000 0.000000 0.000000
usemtl Right_Material
f 5/5/5 6/6/6 7/7/7
f 8/8/8 5/5/5 7/7/7
v 158.336060 160.501358 -1.000342
v 160.336060 160.501358 -1.000342
v 160.336060 158.501358 -1.000342
v 158.336060 158.501358 -1.000342
vt 1.000000 1.000000
vt 0.000000 1.000000
vt 0.000000 0.000000
vt 1.000000 0.000000
vn 0.000000 0.000000 -0.020000
vn 0.000000 0.000000 -0.020000
vn 0.000000 0.000000 -0.020000
vn 0.000000 0.000000 -0.020000
usemtl Back_Material
f 9/9/9 10/10/10 11/11/11
f 12/12/12 9/9/9 11/11/11
v 158.336060 160.501358 0.999658
v 158.336060 160.501358 -1.000342
v 158.336060 158.501358 -1.000342
v 158.336060 158.501358 0.999658
vt 1.000000 1.000000
vt 0.000000 1.000000
vt 0.000000 0.000000
vt 1.000000 0.000000
vn -0.020000 0.000000 0.000000
vn -0.020000 0.000000 0.000000
vn -0.020000 0.000000 0.000000
vn -0.020000 0.000000 0.000000
usemtl Left_Material
f 13/13/13 14/14/14 15/15/15
f 16/16/16 13/13/13 15/15/15
v 160.336060 160.501358 -1.000342
v 158.336060 160.501358 -1.000342
v 158.336060 160.501358 0.999658
v 160.336060 160.501358 0.999658
vt 1.000000 1.000000
vt 0.000000 1.000000
vt 0.000000 0.000000
vt 1.000000 0.000000
vn 0.000000 0.020000 0.000000
vn 0.000000 0.020000 0.000000
vn 0.000000 0.020000 0.000000
vn 0.000000 0.020000 0.000000
usemtl Top_Material
f 17/17/17 18/18/18 19/19/19
f 20/20/20 17/17/17 19/19/19
v 160.336060 158.501358 0.999658
v 158.336060 158.501358 0.999658
v 158.336060 158.501358 -1.000342
v 160.336060 158.501358 -1.000342
vt 1.000000 1.000000
vt 0.000000 1.000000
vt 0.000000 0.000000
vt 1.000000 0.000000
vn 0.000000 -0.020000 0.000000
vn 0.000000 -0.020000 0.000000
vn 0.000000 -0.020000 0.000000
vn 0.000000 -0.020000 0.000000
usemtl Bottom_Material
f 21/21/21 22/22/22 23/23/23
f 24/24/24 21/21/21 23/23/23
